SplineFontDB: 3.0
FontName: NovaRoundSlim-BoldOblique
FullName: Nova Round Slim Bold Oblique
FamilyName: Nova Round Slim
Weight: Bold
Copyright: Copyright (c) 2020-2024 by Wojciech Kalinowski "wmk69" with Reserved Font Name "NovaRoundSlim-BoldOblique".\nThis Font Software is licensed under the SIL Open Font License, Version 1.1.
Version: 3.1.0; 2021-05-23
ItalicAngle: -12
UnderlinePosition: -80
UnderlineWidth: 320
Ascent: 1638
Descent: 410
InvalidEm: 0
LayerCount: 2
Layer: 0 1 "Warstwa t+AUIA-a" 1
Layer: 1 1 "Plan pierwszy" 0
XUID: [1021 783 23647091 8360855]
StyleMap: 0x0021
FSType: 0
OS2Version: 3
OS2_WeightWidthSlopeOnly: 0
OS2_UseTypoMetrics: 1
CreationTime: 1260698820
ModificationTime: 1621762101
PfmFamily: 33
TTFWeight: 700
TTFWidth: 5
LineGap: 200
VLineGap: 0
Panose: 2 12 8 4 5 5 3 13 2 4
OS2TypoAscent: 2000
OS2TypoAOffset: 0
OS2TypoDescent: -500
OS2TypoDOffset: 0
OS2TypoLinegap: 200
OS2WinAscent: 2000
OS2WinAOffset: 0
OS2WinDescent: 500
OS2WinDOffset: 0
HheadAscent: 2000
HheadAOffset: 0
HheadDescent: -500
HheadDOffset: 0
OS2SubXSize: 1434
OS2SubYSize: 1331
OS2SubXOff: 0
OS2SubYOff: 287
OS2SupXSize: 1434
OS2SupYSize: 1331
OS2SupXOff: 0
OS2SupYOff: 977
OS2StrikeYSize: 102
OS2StrikeYPos: 512
OS2CapHeight: 1530
OS2XHeight: 1120
OS2Vendor: '    '
OS2CodePages: 20000093.00000000
OS2UnicodeRanges: 8000002f.4000204b.00000000.00000000
Lookup: 258 0 0 "'kern' Horizontal Kerning lookup 0" { "'kern' Horizontal Kerning lookup 0-1 subtable" [307,0,4] } ['kern' ('DFLT' <'dflt' > 'grek' <'dflt' > 'latn' <'dflt' > ) ]
MarkAttachClasses: 1
DEI: 91125
KernClass2: 65 55 "'kern' Horizontal Kerning lookup 0-1 subtable"
 134 A M N Agrave Aacute Acircumflex Atilde Adieresis Aring Ntilde Amacron Abreve Aogonek Nacute Ncommaaccent Ncaron Eng Aringacute uni1E40
 28 B germandbls uni1E02 uni1E9E
 47 C Ccedilla Cacute Ccircumflex Cdotaccent Ccaron
 122 D O Q Eth Ograve Oacute Ocircumflex Otilde Odieresis Oslash Dcaron Dcroat Omacron Obreve Ohungarumlaut Oslashacute uni1E0A

StartChar: .notdef
Encoding: 65536 -1 0
Width: 1034
Flags: W
HStem: 0 118<323 761> 1392 118<594 1032>
VStem: 110 814<0 814> 431 814<696 1510>
DStem2: 110 0 297.918 0 0.207912 0.978148<159.707 1462.21> 735.918 0 924 0 0.207912 0.978148<120.636 1423.14>
LayerCount: 2
Fore
SplineSet
110 0 m 1,0,-1
 431 1510 l 1,1,-1
 1245 1510 l 1,2,-1
 924 0 l 1,3,-1
 110 0 l 1,0,-1
323 118 m 1,4,-1
 761 118 l 1,5,-1
 1032 1392 l 1,6,-1
 594 1392 l 1,7,-1
 323 118 l 1,4,-1
EndSplineSet
Validated: 1
EndChar

StartChar: exclam
Encoding: 33 33 4
Width: 640
GlyphClass: 2
Flags: W
HStem: -20 365<266.097 442.323> 1510 20G<748.605 805>
VStem: 170 635
DStem2: 155.789 -20 475.543 -20 0.207912 0.978148<641.036 1434.34>
LayerCount: 2
Fore
SplineSet
316 -20 m 0,0,1
 240 -20 240 -20 200 34 c 0,2,3
 170 73 170 73 170 123 c 0,4,5
 170 142 170 142 174 162 c 0,6,7
 190 238 190 238 254 291 c 0,8,9
 318 345 318 345 393 345 c 0,10,11
 469 345 469 345 510 292 c 0,12,13
 539 254 539 254 539 203 c 0,14,15
 539 184 539 184 535 163 c 0,16,17
 519 88 519 88 454.5 34 c 128,-1,18
 390 -20 390 -20 316 -20 c 0,0,1
795 1530 m 1,19,-1
 805 1530 l 1,20,-1
 595 542 l 1,21,-1
 254 395 l 1,22,-1
 244 395 l 1,23,-1
 454 1383 l 1,24,-1
 795 1530 l 1,19,-1
EndSplineSet
Validated: 1
EndChar

StartChar: quotedbl
Encoding: 34 34 5
Width: 510
GlyphClass: 2
Flags: W
HStem: 1100 480
VStem: 264 552
DStem2: 264 1100 443.783 1100 0.207912 0.978148<120.189 407.953> 534 1100 713.783 1100 0.207912 0.978148<120.189 407.953>
LayerCount: 2
Fore
SplineSet
806 1580 m 1,0,-1
 816 1580 l 1,1,-1
 731 1181 l 1,2,-1
 544 1100 l 1,3,-1
 534 1100 l 1,4,-1
 619 1499 l 1,5,-1
 806 1580 l 1,0,-1
536 1580 m 1,6,-1
 546 1580 l 1,7,-1
 461 1181 l 1,8,-1
 274 1100 l 1,9,-1
 264 1100 l 1,10,-1
 349 1499 l 1,11,-1
 536 1580 l 1,6,-1
EndSplineSet
Validated: 1
EndChar

StartChar: numbersign
Encoding: 35 35 6
Width: 1408
GlyphClass: 2
Flags: W
HStem: 460 180<326 506 724 918 1136 1316> 872 180<414 593 812 1005 1224 1403>
DStem2: 442 161 621.783 161 0.207912 0.978148<120.189 305.772 527.164 726.858 948.457 1132.85> 854 161 1033.78 161 0.207912 0.978148<120.189 305.772 527.164 726.858 948.457 1132.85>
LayerCount: 2
Fore
SplineSet
865 1350 m 1,0,-1
 875 1350 l 1,1,-1
 812 1052 l 1,2,-1
 1044 1052 l 1,3,-1
 1090 1269 l 1,4,-1
 1277 1350 l 1,5,-1
 1287 1350 l 1,6,-1
 1224 1052 l 1,7,-1
 1522 1052 l 1,8,-1
 1519 1042 l 1,9,-1
 1403 872 l 1,10,-1
 1185 872 l 1,11,-1
 1136 640 l 1,12,-1
 1434 640 l 1,13,-1
 1432 630 l 1,14,-1
 1316 460 l 1,15,-1
 1098 460 l 1,16,-1
 1051 242 l 1,17,-1
 864 161 l 1,18,-1
 854 161 l 1,19,-1
 918 460 l 1,20,-1
 686 460 l 1,21,-1
 639 242 l 1,22,-1
 452 161 l 1,23,-1
 442 161 l 1,24,-1
 506 460 l 1,25,-1
 208 460 l 1,26,-1
 210 470 l 1,27,-1
 326 640 l 1,28,-1
 544 640 l 1,29,-1
 593 872 l 1,30,-1
 295 872 l 1,31,-1
 297 882 l 1,32,-1
 414 1052 l 1,33,-1
 632 1052 l 1,34,-1
 678 1269 l 1,35,-1
 865 1350 l 1,0,-1
956 640 m 1,36,-1
 1005 872 l 1,37,-1
 773 872 l 1,38,-1
 724 640 l 1,39,-1
 956 640 l 1,36,-1
EndSplineSet
Validated: 1
EndChar

StartChar: dollar
Encoding: 36 36 7
Width: 1179
GlyphClass: 2
Flags: W
VStem: 114 301<218.564 399> 345 314<933.012 1249.93> 904 343<342.619 687.106> 979 301<1190 1342.31>
DStem2: 489 -120 609.16 -120 0.207912 0.978148<77.122 107.28 291.889 889.452 1070.48 1519.44 1706.77 1737.14>
LayerCount: 2
Fore
SplineSet
620 -69 m 1,0,-1
 499 -120 l 1,1,-1
 489 -120 l 1,2,-1
 511 -15 l 1,3,4
 325 8 325 8 217 131 c 0,5,6
 117 246 117 246 114 399 c 1,7,-1
 448 543 l 1,8,-1
 458 543 l 1,9,-1
 425 384 l 2,10,11
 415 336 415 336 415 296 c 0,12,13
 415 221 415 221 453 185 c 0,14,15
 493 147 493 147 543 136 c 1,16,-1
 674 750 l 1,17,18
 499 777 499 777 419 857 c 0,19,20
 345 930 345 930 345 1051 c 0,21,22
 345 1085 345 1085 351 1123 c 0,23,24
 378 1297 378 1297 519 1412 c 0,25,26
 650 1520 650 1520 840 1529 c 1,27,-1
 851 1579 l 1,28,-1
 971 1630 l 1,29,-1
 981 1630 l 1,30,-1
 959 1525 l 1,31,32
 1109 1505 1109 1505 1192 1404 c 0,33,34
 1277 1302 1277 1302 1280 1190 c 1,35,-1
 951 1048 l 1,36,-1
 941 1048 l 1,37,-1
 964 1155 l 2,38,39
 979 1225 979 1225 979 1269 c 0,40,41
 979 1306 979 1306 969 1326 c 0,42,43
 954 1356 954 1356 926 1369 c 1,44,-1
 826 901 l 1,45,46
 1070 874 1070 874 1169 759 c 0,47,48
 1247 669 1247 669 1247 548 c 0,49,50
 1247 519 1247 519 1243 488 c 0,51,52
 1212 264 1212 264 1030 125 c 0,53,54
 852 -11 852 -11 631 -19 c 1,55,-1
 620 -69 l 1,0,-1
712 927 m 1,56,-1
 806 1366 l 1,57,58
 788 1358 788 1358 770 1345 c 0,59,60
 703 1296 703 1296 673 1155 c 0,61,62
 659 1090 659 1090 659 1043 c 0,63,64
 659 950 659 950 712 927 c 1,56,-1
790 731 m 1,65,-1
 665 141 l 1,66,67
 710 155 710 155 753 187 c 0,68,69
 854 263 854 263 889 426 c 0,70,71
 904 496 904 496 904 550 c 0,72,73
 904 631 904 631 870 674 c 0,74,75
 840 714 840 714 790 731 c 1,65,-1
EndSplineSet
Validated: 1
EndChar

StartChar: percent
Encoding: 37 37 8
Width: 1846
GlyphClass: 2
Flags: W
HStem: -20 104<1303.58 1486.73> 619 103<1398.03 1583.46> 788 104<586.577 769.729> 1427 103<681.029 866.465>
VStem: 353 217<932.375 1256.99> 881 216<1068.71 1386.8> 1070 217<124.375 448.995> 1598 216<260.711 578.8>
DStem2: 484 93 707 -20 0.561853 0.827237<31.8155 1737.11>
LayerCount: 2
Fore
SplineSet
1503.5 619 m 128,-1,1
 1445 619 1445 619 1394 571.5 c 128,-1,2
 1343 524 1343 524 1307 352 c 0,3,4
 1287 259 1287 259 1287 201 c 0,5,6
 1287 154 1287 154 1301 132 c 0,7,8
 1329 84 1329 84 1387 84 c 0,9,10
 1441 84 1441 84 1491 132 c 0,11,12
 1540 179 1540 179 1577 352 c 0,13,14
 1598 450 1598 450 1598 504 c 0,15,16
 1598 545 1598 545 1585 572 c 0,17,0
 1562 619 1562 619 1503.5 619 c 128,-1,1
786.5 1427 m 128,-1,19
 728 1427 728 1427 677 1379.5 c 128,-1,20
 626 1332 626 1332 590 1160 c 0,21,22
 570 1067 570 1067 570 1009 c 0,23,24
 570 962 570 962 584 940 c 0,25,26
 612 892 612 892 670 892 c 0,27,28
 724 892 724 892 774 940 c 0,29,30
 823 987 823 987 860 1160 c 0,31,32
 881 1258 881 1258 881 1312 c 0,33,34
 881 1353 881 1353 868 1380 c 0,35,18
 845 1427 845 1427 786.5 1427 c 128,-1,19
1383 -20 m 0,36,37
 1215 -20 1215 -20 1133 89 c 0,38,39
 1070 173 1070 173 1070 290 c 0,40,41
 1070 320 1070 320 1074 352 c 0,42,43
 1094 512 1094 512 1217 613 c 0,44,45
 1349 722 1349 722 1501 722 c 0,46,47
 1667 722 1667 722 1751 613 c 0,48,49
 1814 531 1814 531 1814 411 c 0,50,51
 1814 381 1814 381 1810 350 c 0,52,53
 1792 192 1792 192 1667 89 c 0,54,55
 1536 -20 1536 -20 1383 -20 c 0,36,37
697 -20 m 1,56,-1
 484 93 l 1,57,-1
 1460 1530 l 1,58,-1
 1470 1530 l 1,59,-1
 1682 1417 l 1,60,-1
 707 -20 l 1,61,-1
 697 -20 l 1,56,-1
784 1530 m 0,62,63
 950 1530 950 1530 1034 1421 c 0,64,65
 1097 1339 1097 1339 1097 1219 c 0,66,67
 1097 1189 1097 1189 1093 1158 c 0,68,69
 1075 1000 1075 1000 950 897 c 0,70,71
 819 788 819 788 666 788 c 0,72,73
 498 788 498 788 416 897 c 0,74,75
 353 981 353 981 353 1098 c 0,76,77
 353 1128 353 1128 357 1160 c 0,78,79
 377 1320 377 1320 500 1421 c 0,80,81
 632 1530 632 1530 784 1530 c 0,62,63
EndSplineSet
Validated: 1
EndChar

StartChar: ampersand
Encoding: 38 38 9
Width: 1692
GlyphClass: 2
Flags: W
HStem: -20 150<629.126 949.276> 1380 150<838.77 1062.5>
VStem: 208 325<227.294 585.815> 434 302<935.492 1250.67> 1089 297<1183 1329.93>
DStem2: 1040 902 755 746 0.562594 -0.826733<0 452.66 707.264 895.583>
LayerCount: 2
Fore
SplineSet
681 -20 m 0,0,1
 442 -20 442 -20 316 117 c 0,2,3
 208 234 208 234 208 412 c 0,4,5
 208 442 208 442 211 473 c 0,6,7
 235 724 235 724 490 851 c 1,8,9
 434 944 434 944 434 1061 c 0,10,11
 434 1091 434 1091 438 1122 c 0,12,13
 459 1299 459 1299 610 1409 c 0,14,15
 775 1530 775 1530 972 1530 c 0,16,17
 1184 1530 1184 1530 1297 1406 c 0,18,19
 1385 1308 1385 1308 1386 1183 c 1,20,-1
 1062 1043 l 1,21,-1
 1052 1043 l 1,22,-1
 1082 1187 l 2,23,24
 1089 1221 1089 1221 1089 1248 c 0,25,26
 1089 1297 1089 1297 1068 1331 c 0,27,28
 1037 1380 1037 1380 954 1380 c 0,29,30
 890 1380 890 1380 839 1338 c 0,31,32
 781 1290 781 1290 755 1166 c 0,33,34
 736 1078 736 1078 736 1023 c 0,35,36
 736 964 736 964 758 943 c 0,37,38
 800 902 800 902 872 902 c 2,39,-1
 1040 902 l 1,40,-1
 1295 528 l 1,41,42
 1369 691 1369 691 1391 851 c 1,43,-1
 1738 1000 l 1,44,-1
 1748 1000 l 1,45,46
 1665 610 1665 610 1422 340 c 1,47,-1
 1581 107 l 1,48,-1
 1287 -20 l 1,49,-1
 1277 -20 l 1,50,-1
 1171 134 l 1,51,52
 939 -20 939 -20 681 -20 c 0,0,1
755 746 m 1,53,54
 684 731 684 731 642 689 c 0,55,56
 574 619 574 619 545 478 c 0,57,58
 533 424 533 424 533 377 c 0,59,60
 533 288 533 288 576 228 c 0,61,62
 646 130 646 130 774 130 c 0,63,64
 930 130 930 130 1090 256 c 1,65,-1
 755 746 l 1,53,54
EndSplineSet
Validated: 1
EndChar

StartChar: quotesingle
Encoding: 39 39 10
Width: 240
GlyphClass: 2
Flags: W
HStem: 1100 480
VStem: 264 282
DStem2: 264 1100 443.783 1100 0.207912 0.978148<120.189 407.953>
LayerCount: 2
Fore
SplineSet
536 1580 m 1,0,-1
 546 1580 l 1,1,-1
 461 1181 l 1,2,-1
 274 1100 l 1,3,-1
 264 1100 l 1,4,-1
 349 1499 l 1,5,-1
 536 1580 l 1,0,-1
EndSplineSet
Validated: 1
EndChar

StartChar: parenleft
Encoding: 40 40 11
Width: 756
GlyphClass: 2
Flags: W
HStem: -240 150<558.238 675> 1599 151<902.449 1066>
VStem: 206 293<-13.3359 178.317>
DStem2: 108.746 -240 429.18 -240 0.207912 0.978148<417.961 1768.01>
LayerCount: 2
Fore
SplineSet
675 -240 m 1,0,1
 441 -240 441 -240 306 -93 c 0,2,3
 206 16 206 16 206 165 c 0,4,5
 206 217 206 217 218 274 c 2,6,-1
 423 1236 l 2,7,8
 476 1485 476 1485 637 1604 c 0,9,10
 835 1750 835 1750 1098 1750 c 1,11,-1
 1066 1599 l 1,12,13
 963 1598 963 1598 880 1542 c 0,14,15
 795 1483 795 1483 777 1398 c 2,16,-1
 504 112 l 2,17,18
 499 91 499 91 499 71 c 0,19,20
 499 10 499 10 545 -34 c 0,21,22
 603 -90 603 -90 707 -90 c 1,23,-1
 675 -240 l 1,0,1
EndSplineSet
Validated: 1
EndChar

StartChar: parenright
Encoding: 41 41 12
Width: 756
GlyphClass: 2
Flags: W
HStem: -240 150<11 175.027> 1599 151<402 512.438>
VStem: 577 294<1211.55 1526.46>
DStem2: 224.832 -240 545.267 -240 0.207912 0.978148<339.998 1684.1>
LayerCount: 2
Fore
SplineSet
-21 -240 m 1,0,1
 11 -90 l 1,2,3
 115 -90 115 -90 197 -34 c 0,4,5
 281 24 281 24 300 112 c 2,6,-1
 573 1398 l 2,7,8
 577 1419 577 1419 577 1438 c 0,9,10
 577 1499 577 1499 532 1542 c 0,11,12
 473 1598 473 1598 370 1599 c 1,13,-1
 402 1750 l 1,14,15
 635 1750 635 1750 771 1604 c 0,16,17
 871 1496 871 1496 871 1346 c 0,18,19
 871 1294 871 1294 859 1236 c 2,20,-1
 654 274 l 2,21,22
 601 27 601 27 440 -93 c 0,23,24
 243 -240 243 -240 -21 -240 c 1,0,1
EndSplineSet
Validated: 1
EndChar

StartChar: asterisk
Encoding: 42 42 13
Width: 790
GlyphClass: 2
Flags: W
DStem2: 264 1103 400 988 0.889369 0.457191<68.3772 213.28 574.709 719.612>
LayerCount: 2
Fore
SplineSet
811 1580 m 1,0,-1
 821 1580 l 1,1,-1
 775 1366 l 1,2,-1
 904 1432 l 1,3,-1
 1037 1326 l 1,4,-1
 1040 1317 l 1,5,-1
 832 1210 l 1,6,-1
 994 1103 l 1,7,-1
 988 1094 l 1,8,-1
 810 988 l 1,9,-1
 709 1054 l 1,10,-1
 681 921 l 1,11,-1
 494 840 l 1,12,-1
 484 840 l 1,13,-1
 529 1054 l 1,14,-1
 400 988 l 1,15,-1
 268 1094 l 1,16,-1
 264 1103 l 1,17,-1
 472 1210 l 1,18,-1
 310 1317 l 1,19,-1
 317 1326 l 1,20,-1
 494 1432 l 1,21,-1
 595 1366 l 1,22,-1
 624 1499 l 1,23,-1
 811 1580 l 1,0,-1
EndSplineSet
Validated: 1
EndChar

StartChar: plus
Encoding: 43 43 14
Width: 1240
GlyphClass: 2
Flags: W
HStem: 620 270<424 617 944 1137>
DStem2: 537 245 807.43 245 0.207912 0.978148<184.018 383.438 715.525 914.945>
LayerCount: 2
Fore
SplineSet
1014 1265 m 1,0,-1
 1024 1265 l 1,1,-1
 944 890 l 1,2,-1
 1319 890 l 1,3,-1
 1317 880 l 1,4,-1
 1137 620 l 1,5,-1
 887 620 l 1,6,-1
 834 370 l 1,7,-1
 547 245 l 1,8,-1
 537 245 l 1,9,-1
 617 620 l 1,10,-1
 242 620 l 1,11,-1
 244 630 l 1,12,-1
 424 890 l 1,13,-1
 674 890 l 1,14,-1
 727 1140 l 1,15,-1
 1014 1265 l 1,0,-1
EndSplineSet
Validated: 1
EndChar

StartChar: comma
Encoding: 44 44 15
Width: 496
GlyphClass: 2
Flags: W
HStem: -328 666
VStem: 203 283<-42.5039 147.058>
LayerCount: 2
Fore
SplineSet
75 212 m 1,0,-1
 371 338 l 1,1,-1
 381 338 l 1,2,3
 486 259 486 259 486 132 c 0,4,5
 486 95 486 95 477 54 c 0,6,7
 422 -203 422 -203 60 -328 c 1,8,-1
 55 -321 l 1,9,10
 166 -172 166 -172 197 -24 c 0,11,12
 203 3 203 3 203 28 c 0,13,14
 203 146 203 146 75 212 c 1,0,-1
EndSplineSet
Validated: 1
EndChar

StartChar: hyphen
Encoding: 45 45 16
Width: 1240
GlyphClass: 2
Flags: W
HStem: 620 270<424 1137>
LayerCount: 2
Fore
SplineSet
424 890 m 1,0,-1
 1319 890 l 1,1,-1
 1317 880 l 1,2,-1
 1137 620 l 1,3,-1
 242 620 l 1,4,-1
 244 630 l 1,5,-1
 424 890 l 1,0,-1
EndSplineSet
Validated: 1
EndChar

StartChar: period
Encoding: 46 46 17
Width: 420
GlyphClass: 2
Flags: W
HStem: -20 365<156.097 332.323>
VStem: 60 369<75.75 249.936>
LayerCount: 2
Fore
SplineSet
206 -20 m 0,0,1
 130 -20 130 -20 90 34 c 0,2,3
 60 73 60 73 60 123 c 0,4,5
 60 142 60 142 64 162 c 0,6,7
 80 238 80 238 144 291 c 0,8,9
 208 345 208 345 283 345 c 0,10,11
 359 345 359 345 400 292 c 0,12,13
 429 254 429 254 429 203 c 0,14,15
 429 184 429 184 425 163 c 0,16,17
 409 88 409 88 344.5 34 c 128,-1,18
 280 -20 280 -20 206 -20 c 0,0,1
EndSplineSet
Validated: 1
EndChar

StartChar: slash
Encoding: 47 47 18
Width: 1105
GlyphClass: 2
Flags: W
DStem2: -8 -87 214 -200 0.561693 0.827346<31.2057 2172.01>
LayerCount: 2
Fore
SplineSet
204 -200 m 1,0,-1
 -8 -87 l 1,1,-1
 1212 1710 l 1,2,-1
 1222 1710 l 1,3,-1
 1434 1597 l 1,4,-1
 214 -200 l 1,5,-1
 204 -200 l 1,0,-1
EndSplineSet
Validated: 1
EndChar

StartChar: zero
Encoding: 48 48 19
Width: 1370
GlyphClass: 2
Flags: W
HStem: -20 150<572.181 875.327> 1379 151<818.223 1120.52>
VStem: 214 302<217.12 517.766> 1175 302<992.234 1293.4>
DStem2: 115.746 -20 446.18 -20 0.207912 0.978148<425.872 1318.51> 915.357 -20 1245.79 -20 0.207912 0.978148<335.076 1227.43>
LayerCount: 2
Fore
SplineSet
717 130 m 128,-1,1
 818 130 818 130 895 187 c 128,-1,2
 972 244 972 244 991 332 c 2,3,-1
 1170 1178 l 2,4,5
 1175 1203 1175 1203 1175 1224 c 0,6,7
 1175 1284 1175 1284 1135 1323 c 0,8,9
 1076 1379 1076 1379 978 1379 c 128,-1,10
 880 1379 880 1379 797 1322 c 0,11,12
 720 1269 720 1269 700 1178 c 2,13,-1
 521 332 l 2,14,15
 516 308 516 308 516 286 c 0,16,17
 516 226 516 226 557 186 c 0,18,0
 616 130 616 130 717 130 c 128,-1,1
712 -20 m 128,-1,20
 478 -20 478 -20 328 127 c 0,21,22
 214 239 214 239 214 393 c 0,23,24
 214 441 214 441 225 494 c 2,25,-1
 336 1016 l 2,26,27
 389 1265 389 1265 550 1384 c 0,28,29
 748 1530 748 1530 982 1530 c 0,30,31
 1215 1530 1215 1530 1364 1383 c 0,32,33
 1477 1271 1477 1271 1477 1117 c 0,34,35
 1477 1068 1477 1068 1466 1016 c 2,36,-1
 1355 494 l 2,37,38
 1302 245 1302 245 1142 126 c 0,39,19
 946 -20 946 -20 712 -20 c 128,-1,20
EndSplineSet
Validated: 1
EndChar

StartChar: one
Encoding: 49 49 20
Width: 794
GlyphClass: 2
Flags: W
HStem: -20 21G<260 316.395> 1117 21G<261.267 307.857> 1510 20G<852.612 909>
VStem: 260 649
DStem2: 260 -20 579.754 -20 0.207912 0.978148<216.765 1269.75> 289 1267 257 1117 0.918286 0.395917<0 197.981>
LayerCount: 2
Fore
SplineSet
270 -20 m 1,0,-1
 260 -20 l 1,1,-1
 524 1222 l 1,2,-1
 257 1117 l 1,3,-1
 289 1267 l 1,4,-1
 899 1530 l 1,5,-1
 909 1530 l 1,6,-1
 611 127 l 1,7,-1
 270 -20 l 1,0,-1
EndSplineSet
Validated: 1
EndChar

StartChar: two
Encoding: 50 50 21
Width: 1273
GlyphClass: 2
Flags: W
HStem: 0 300<517 1047> 1379 151<754.771 1028.26>
VStem: 265 325<916.632 1177.69> 1082 330<975.188 1312.75>
LayerCount: 2
Fore
SplineSet
40 0 m 1,0,-1
 42 10 l 1,1,-1
 256 323 l 1,2,-1
 777 650 l 2,3,4
 1008 795 1008 795 1069 1082 c 0,5,6
 1082 1144 1082 1144 1082 1192 c 0,7,8
 1082 1259 1082 1259 1057 1299 c 0,9,10
 1007 1379 1007 1379 905 1379 c 128,-1,11
 803 1379 803 1379 718 1309 c 0,12,13
 635 1240 635 1240 602 1090 c 0,14,15
 590 1036 590 1036 590 989 c 0,16,17
 590 956 590 956 596 927 c 1,18,-1
 299 800 l 1,19,-1
 289 800 l 1,20,21
 265 860 265 860 265 943 c 0,22,23
 265 991 265 991 273 1048 c 0,24,25
 300 1244 300 1244 467 1380 c 0,26,27
 653 1530 653 1530 910 1530 c 0,28,29
 1176 1530 1176 1530 1316 1383 c 0,30,31
 1412 1282 1412 1282 1412 1139 c 0,32,33
 1412 1095 1412 1095 1403 1047 c 0,34,35
 1342 732 1342 732 903 502 c 2,36,-1
 517 300 l 1,37,-1
 1247 300 l 1,38,-1
 1245 290 l 1,39,-1
 1047 0 l 1,40,-1
 40 0 l 1,0,-1
EndSplineSet
Validated: 1
EndChar

StartChar: three
Encoding: 51 51 22
Width: 1262
GlyphClass: 2
Flags: W
HStem: -20 150<518.688 784.76> 1360 150<560 987>
VStem: 158 304<201.184 431.703> 973 321<402.615 764.12>
LayerCount: 2
Fore
SplineSet
642 -20 m 0,0,1
 362 -20 362 -20 243 136 c 0,2,3
 158 247 158 247 158 401 c 0,4,5
 158 412 158 412 159 423 c 1,6,-1
 499 570 l 1,7,-1
 509 570 l 1,8,-1
 472 394 l 2,9,10
 462 346 462 346 462 308 c 0,11,12
 462 238 462 238 495 198 c 0,13,14
 552 130 552 130 649 130 c 0,15,16
 747 130 747 130 827.5 209 c 128,-1,17
 908 288 908 288 953 500 c 0,18,19
 973 594 973 594 973 662 c 128,-1,20
 973 730 973 730 953 773 c 0,21,22
 912 862 912 862 790 862 c 0,23,24
 708 862 708 862 633 830 c 1,25,-1
 607 870 l 1,26,-1
 987 1360 l 1,27,-1
 461 1360 l 1,28,-1
 463 1370 l 1,29,-1
 560 1510 l 1,30,-1
 1460 1510 l 1,31,-1
 1013 945 l 1,32,33
 1136 918 1136 918 1213 820 c 0,34,35
 1294 719 1294 719 1294 578 c 0,36,37
 1294 537 1294 537 1287 493 c 0,38,39
 1252 261 1252 261 1090 130 c 0,40,41
 904 -20 904 -20 642 -20 c 0,0,1
EndSplineSet
Validated: 1
EndChar

StartChar: four
Encoding: 52 52 23
Width: 1317
GlyphClass: 2
Flags: W
HStem: -20 21G<783 839.395> 304 150<407 852 1204 1255> 1510 20G<1375.51 1432>
DStem2: 77 314 407 454 0.680769 0.732499<327.203 1235.03> 783 -20 1102.75 -20 0.207912 0.978148<216.765 331.266 551.173 1164.42>
LayerCount: 2
Fore
SplineSet
407 454 m 1,0,-1
 884 454 l 1,1,-1
 1025 1119 l 1,2,-1
 407 454 l 1,0,-1
793 -20 m 1,3,-1
 783 -20 l 1,4,-1
 852 304 l 1,5,-1
 75 304 l 1,6,-1
 77 314 l 1,7,-1
 1064 1376 l 1,8,-1
 1422 1530 l 1,9,-1
 1432 1530 l 1,10,-1
 1204 454 l 1,11,-1
 1354 454 l 1,12,-1
 1351 444 l 1,13,-1
 1255 304 l 1,14,-1
 1172 304 l 1,15,-1
 1134 127 l 1,16,-1
 793 -20 l 1,3,-1
EndSplineSet
Validated: 1
EndChar

StartChar: five
Encoding: 53 53 24
Width: 1261
GlyphClass: 2
Flags: W
HStem: -20 150<518.688 784.197> 847 151<706.766 919.385> 1360 150<906 1326>
VStem: 158 304<201.386 431.703> 971 334<397.661 772.522>
LayerCount: 2
Fore
SplineSet
642 -20 m 0,0,1
 362 -20 362 -20 243 136 c 0,2,3
 158 248 158 248 158 401 c 0,4,5
 158 412 158 412 159 423 c 1,6,-1
 499 570 l 1,7,-1
 509 570 l 1,8,-1
 472 394 l 2,9,10
 462 346 462 346 462 308 c 0,11,12
 462 238 462 238 495 198 c 0,13,14
 552 130 552 130 649 130 c 0,15,16
 747 130 747 130 827.5 209 c 128,-1,17
 908 288 908 288 953 500 c 0,18,19
 971 584 971 584 971 648 c 0,20,21
 971 715 971 715 951 758 c 0,22,23
 910 847 910 847 788 847 c 0,24,25
 681 847 681 847 564 786 c 1,26,-1
 339 897 l 1,27,-1
 625 1510 l 1,28,-1
 1425 1510 l 1,29,-1
 1423 1500 l 1,30,-1
 1326 1360 l 1,31,-1
 906 1360 l 1,32,-1
 705 983 l 1,33,34
 775 998 775 998 845 998 c 0,35,36
 1069 998 1069 998 1200 859 c 0,37,38
 1305 747 1305 747 1305 578 c 0,39,40
 1305 542 1305 542 1300 504 c 0,41,42
 1273 285 1273 285 1086 131 c 0,43,44
 902 -20 902 -20 642 -20 c 0,0,1
EndSplineSet
Validated: 1
EndChar

StartChar: six
Encoding: 54 54 25
Width: 1340
GlyphClass: 2
Flags: W
HStem: -20 150<589.765 845.57> 863 152<725.882 982.982> 1380 150<808.416 1113.49>
VStem: 214 315<216.402 593.072> 1039 321<403.829 784.028> 1179 288<1126 1304.81>
DStem2: 115.746 -20 437.533 -20 0.207912 0.978148<444.937 854.518 1058.22 1318.45>
LayerCount: 2
Fore
SplineSet
707 130 m 0,0,1
 805 130 805 130 882 203 c 0,2,3
 976 291 976 291 1020 498 c 0,4,5
 1039 587 1039 587 1039 653 c 0,6,7
 1039 740 1039 740 1007 790 c 0,8,9
 961 863 961 863 862 863 c 0,10,11
 768 863 768 863 684 785 c 0,12,13
 590 697 590 697 547 495 c 0,14,15
 529 410 529 410 529 345 c 0,16,17
 529 258 529 258 561 208 c 0,18,19
 613 130 613 130 707 130 c 0,0,1
709 -20 m 0,20,21
 473 -20 473 -20 326 127 c 0,22,23
 214 239 214 239 214 392 c 0,24,25
 214 442 214 442 225 494 c 2,26,-1
 336 1016 l 2,27,28
 389 1265 389 1265 549 1384 c 0,29,30
 745 1530 745 1530 979 1530 c 0,31,32
 1231 1530 1231 1530 1367 1383 c 0,33,34
 1464 1277 1464 1277 1467 1126 c 1,35,-1
 1150 989 l 1,36,-1
 1140 989 l 1,37,-1
 1173 1144 l 2,38,39
 1179 1172 1179 1172 1179 1202 c 0,40,41
 1179 1271 1179 1271 1137 1316 c 0,42,43
 1078 1380 1078 1380 974.5 1380 c 128,-1,44
 871 1380 871 1380 790 1325 c 0,45,46
 710 1270 710 1270 692 1185 c 2,47,-1
 642 950 l 1,48,49
 770 1015 770 1015 890 1015 c 0,50,51
 1126 1015 1126 1015 1259 868 c 0,52,53
 1360 757 1360 757 1360 571 c 0,54,55
 1360 536 1360 536 1356 498 c 0,56,57
 1333 261 1333 261 1146 121 c 0,58,59
 957 -20 957 -20 709 -20 c 0,20,21
EndSplineSet
Validated: 1
EndChar

StartChar: seven
Encoding: 55 55 26
Width: 1098
GlyphClass: 2
Flags: W
HStem: -20 21G<128 184.633> 1360 150<398 975>
DStem2: 128 -20 602 179 0.523098 0.852273<417.551 1619.2>
LayerCount: 2
Fore
SplineSet
138 -20 m 1,0,-1
 128 -20 l 1,1,-1
 975 1360 l 1,2,-1
 299 1360 l 1,3,-1
 301 1370 l 1,4,-1
 398 1510 l 1,5,-1
 1409 1510 l 1,6,-1
 1407 1500 l 1,7,-1
 602 179 l 1,8,-1
 138 -20 l 1,0,-1
EndSplineSet
Validated: 1
EndChar

StartChar: eight
Encoding: 56 56 27
Width: 1250
GlyphClass: 2
Flags: W
HStem: -20 150<527.437 799.59> 747 150<703.519 910.24> 1380 150<786.461 1026.52>
VStem: 157 316<202.753 540.074> 370 301<930.624 1245.16> 965 332<333.619 692.335> 1062 273<1035.6 1346.48>
LayerCount: 2
Fore
SplineSet
917 1380 m 0,0,1
 829 1380 829 1380 767.5 1319 c 128,-1,2
 706 1258 706 1258 682 1143 c 0,3,4
 671 1091 671 1091 671 1049 c 0,5,6
 672 993 672 993 692 958 c 0,7,8
 728 897 728 897 815.5 897 c 128,-1,9
 903 897 903 897 964.5 958 c 128,-1,10
 1026 1019 1026 1019 1052 1143 c 0,11,12
 1062 1189 1062 1189 1062 1227 c 0,13,14
 1062 1283 1062 1283 1040 1319 c 0,15,16
 1004 1380 1004 1380 917 1380 c 0,0,1
488 438 m 0,17,18
 473 369 473 369 473 317 c 0,19,20
 473 241 473 241 502 200 c 0,21,22
 552 130 552 130 653.5 130 c 128,-1,23
 755 130 755 130 832 200 c 0,24,25
 918 278 918 278 951 438 c 0,26,27
 965 503 965 503 965 554 c 0,28,29
 965 631 965 631 933 677 c 0,30,31
 884 747 884 747 785 747 c 0,32,33
 684 747 684 747 604 676 c 128,-1,34
 524 605 524 605 488 438 c 0,17,18
650 -20 m 0,35,36
 396 -20 396 -20 261 121 c 0,37,38
 157 230 157 230 157 398 c 0,39,40
 157 439 157 439 163 484 c 0,41,42
 199 742 199 742 440 853 c 1,43,44
 370 937 370 937 370 1063 c 0,45,46
 370 1092 370 1092 374 1123 c 0,47,48
 394 1289 394 1289 559 1410 c 0,49,50
 723 1530 723 1530 918 1530 c 0,51,52
 1131 1530 1131 1530 1245 1409 c 0,53,54
 1335 1315 1335 1315 1335 1176 c 0,55,56
 1335 1150 1335 1150 1332 1122 c 0,57,58
 1313 951 1313 951 1173 855 c 1,59,60
 1297 729 1297 729 1297 549 c 0,61,62
 1297 519 1297 519 1294 488 c 0,63,64
 1269 256 1269 256 1080 120 c 0,65,66
 884 -20 884 -20 650 -20 c 0,35,36
EndSplineSet
Validated: 1
EndChar

StartChar: nine
Encoding: 57 57 28
Width: 1340
GlyphClass: 2
Flags: W
HStem: -20 150<547.511 852.188> 495 152<678.018 935.118> 1380 150<815.43 1071.24>
VStem: 194 288<205.192 384> 301 321<725.972 1106.17> 1132 315<916.928 1293.6>
DStem2: 895.717 -20 1215.75 -20 0.207912 0.978148<332.73 592.958 800.672 1206.24>
LayerCount: 2
Fore
SplineSet
954 1380 m 0,0,1
 856 1380 856 1380 779 1307 c 0,2,3
 685 1219 685 1219 641 1012 c 0,4,5
 622 923 622 923 622 857 c 0,6,7
 622 770 622 770 654 720 c 0,8,9
 700 647 700 647 799 647 c 0,10,11
 893 647 893 647 977 725 c 0,12,13
 1071 813 1071 813 1114 1015 c 0,14,15
 1132 1100 1132 1100 1132 1165 c 0,16,17
 1132 1252 1132 1252 1100 1302 c 0,18,19
 1048 1380 1048 1380 954 1380 c 0,0,1
682 -20 m 0,20,21
 430 -20 430 -20 294 127 c 0,22,23
 197 233 197 233 194 384 c 1,24,-1
 511 521 l 1,25,-1
 521 521 l 1,26,-1
 488 366 l 2,27,28
 482 338 482 338 482 308 c 0,29,30
 482 239 482 239 524 194 c 0,31,32
 583 130 583 130 686.5 130 c 128,-1,33
 790 130 790 130 870 185 c 0,34,35
 951 240 951 240 969 325 c 2,36,-1
 1019 560 l 1,37,38
 891 495 891 495 771 495 c 0,39,40
 535 495 535 495 402 642 c 0,41,42
 301 753 301 753 301 939 c 0,43,44
 301 974 301 974 305 1012 c 0,45,46
 328 1249 328 1249 515 1389 c 0,47,48
 704 1530 704 1530 952 1530 c 0,49,50
 1188 1530 1188 1530 1335 1383 c 0,51,52
 1447 1271 1447 1271 1447 1118 c 0,53,54
 1447 1068 1447 1068 1436 1016 c 2,55,-1
 1325 494 l 2,56,57
 1272 245 1272 245 1112 126 c 0,58,59
 916 -20 916 -20 682 -20 c 0,20,21
EndSplineSet
Validated: 1
EndChar

StartChar: colon
Encoding: 58 58 29
Width: 420
GlyphClass: 2
Flags: W
HStem: -20 365<156.097 332.323> 573 365<282.097 458.323>
VStem: 60 495
LayerCount: 2
Fore
SplineSet
206 -20 m 0,0,1
 130 -20 130 -20 90 34 c 0,2,3
 60 73 60 73 60 123 c 0,4,5
 60 142 60 142 64 162 c 0,6,7
 80 238 80 238 144 291 c 0,8,9
 208 345 208 345 283 345 c 0,10,11
 359 345 359 345 400 292 c 0,12,13
 429 254 429 254 429 203 c 0,14,15
 429 184 429 184 425 163 c 0,16,17
 409 88 409 88 344.5 34 c 128,-1,18
 280 -20 280 -20 206 -20 c 0,0,1
409 938 m 0,19,20
 485 938 485 938 526 885 c 0,21,22
 555 847 555 847 555 796 c 0,23,24
 555 777 555 777 551 756 c 0,25,26
 535 681 535 681 470.5 627 c 128,-1,27
 406 573 406 573 332 573 c 0,28,29
 256 573 256 573 216 627 c 0,30,31
 186 666 186 666 186 716 c 0,32,33
 186 735 186 735 190 755 c 0,34,35
 206 831 206 831 270 884 c 0,36,37
 334 938 334 938 409 938 c 0,19,20
EndSplineSet
Validated: 1
EndChar

StartChar: semicolon
Encoding: 59 59 30
Width: 496
GlyphClass: 2
Flags: W
HStem: 573 365<320.097 496.323>
VStem: 203 283<-42.5039 147.058>
LayerCount: 2
Fore
SplineSet
75 212 m 1,0,-1
 371 338 l 1,1,-1
 381 338 l 1,2,3
 486 259 486 259 486 132 c 0,4,5
 486 95 486 95 477 54 c 0,6,7
 422 -203 422 -203 60 -328 c 1,8,-1
 55 -321 l 1,9,10
 166 -172 166 -172 197 -24 c 0,11,12
 203 3 203 3 203 28 c 0,13,14
 203 146 203 146 75 212 c 1,0,-1
447 938 m 0,15,16
 523 938 523 938 564 885 c 0,17,18
 593 847 593 847 593 796 c 0,19,20
 593 777 593 777 589 756 c 0,21,22
 573 681 573 681 508.5 627 c 128,-1,23
 444 573 444 573 370 573 c 0,24,25
 294 573 294 573 254 627 c 0,26,27
 224 666 224 666 224 716 c 0,28,29
 224 735 224 735 228 755 c 0,30,31
 244 831 244 831 308 884 c 0,32,33
 372 938 372 938 447 938 c 0,15,16
EndSplineSet
Validated: 1
EndChar

StartChar: less
Encoding: 60 60 31
Width: 1355
GlyphClass: 2
Flags: W
DStem2: 611 800 246 638 0.933479 -0.358631<0 679.37> 416 891 611 800 0.945835 0.324646<154.895 1017.63>
LayerCount: 2
Fore
SplineSet
416 891 m 1,0,-1
 1392 1226 l 1,1,-1
 1428 1093 l 1,2,-1
 1426 1083 l 1,3,-1
 611 800 l 1,4,-1
 1310 539 l 1,5,-1
 1307 529 l 1,6,-1
 1144 293 l 1,7,-1
 246 638 l 1,8,-1
 248 648 l 1,9,-1
 416 891 l 1,0,-1
EndSplineSet
Validated: 1
EndChar

StartChar: equal
Encoding: 61 61 32
Width: 1240
GlyphClass: 2
Flags: W
HStem: 390 270<375 1088> 850 270<473 1186>
LayerCount: 2
Fore
SplineSet
375 660 m 1,0,-1
 1270 660 l 1,1,-1
 1268 650 l 1,2,-1
 1088 390 l 1,3,-1
 193 390 l 1,4,-1
 195 400 l 1,5,-1
 375 660 l 1,0,-1
473 1120 m 1,6,-1
 1368 1120 l 1,7,-1
 1366 1110 l 1,8,-1
 1186 850 l 1,9,-1
 291 850 l 1,10,-1
 293 860 l 1,11,-1
 473 1120 l 1,6,-1
EndSplineSet
Validated: 1
EndChar

StartChar: greater
Encoding: 62 62 33
Width: 1355
GlyphClass: 2
Flags: W
DStem2: 250 427 284 284 0.945835 0.324646<0 862.731> 532 1217 366 971 0.933479 -0.358631<0 679.37>
LayerCount: 2
Fore
SplineSet
1260 619 m 1,0,-1
 284 284 l 1,1,-1
 248 417 l 1,2,-1
 250 427 l 1,3,-1
 1065 710 l 1,4,-1
 366 971 l 1,5,-1
 369 981 l 1,6,-1
 532 1217 l 1,7,-1
 1430 872 l 1,8,-1
 1428 862 l 1,9,-1
 1260 619 l 1,0,-1
EndSplineSet
Validated: 1
EndChar

StartChar: question
Encoding: 63 63 34
Width: 1339
GlyphClass: 2
Flags: W
HStem: -20 365<591.097 767.323> 1379 151<814.771 1101.25>
VStem: 324 326<916.843 1171.5> 1154 313<978.729 1324.79>
LayerCount: 2
Fore
SplineSet
970 1530 m 0,0,1
 1229 1530 1229 1530 1376 1383 c 0,2,3
 1467 1292 1467 1292 1467 1161 c 0,4,5
 1467 1118 1467 1118 1457 1071 c 0,6,7
 1404 804 1404 804 1050 663 c 0,8,9
 940 619 940 619 919 507 c 1,10,-1
 574 360 l 1,11,-1
 564 360 l 1,12,13
 619 618 619 618 884 722 c 0,14,15
 1078 798 1078 798 1139 1081 c 0,16,17
 1154 1150 1154 1150 1154 1201 c 0,18,19
 1154 1263 1154 1263 1132 1299 c 0,20,21
 1082 1379 1082 1379 965 1379 c 0,22,23
 863 1379 863 1379 778 1309 c 128,-1,24
 693 1239 693 1239 661 1090 c 0,25,26
 650 1037 650 1037 650 992 c 0,27,28
 650 958 650 958 656 927 c 1,29,-1
 359 800 l 1,30,-1
 349 800 l 1,31,32
 324 861 324 861 324 943 c 0,33,34
 324 992 324 992 333 1048 c 0,35,36
 364 1247 364 1247 527 1380 c 0,37,38
 713 1530 713 1530 970 1530 c 0,0,1
641 -20 m 0,39,40
 565 -20 565 -20 525 34 c 0,41,42
 495 73 495 73 495 123 c 0,43,44
 495 142 495 142 499 162 c 0,45,46
 515 238 515 238 579 291 c 0,47,48
 643 345 643 345 718 345 c 0,49,50
 794 345 794 345 835 292 c 0,51,52
 864 254 864 254 864 203 c 0,53,54
 864 184 864 184 860 163 c 0,55,56
 844 88 844 88 779.5 34 c 128,-1,57
 715 -20 715 -20 641 -20 c 0,39,40
EndSplineSet
Validated: 1
EndChar

StartChar: at
Encoding: 64 64 35
Width: 1420
GlyphClass: 2
Flags: W
HStem: -430 140<498.48 615> -20 140<871.139 986> 519 140<938.982 1090> 980 140<749.003 1088.25>
VStem: 146 277<-213.601 124.078> 601 247<144.307 419.668> 1148 272<660.617 893.505>
DStem2: 48.4706 -430 348.929 -430 0.207912 0.978148<415.207 1320.7> 889.094 -430 1188.52 -430 0.207912 0.978148<622.497 970.033 1113.21 1225.84>
LayerCount: 2
Fore
SplineSet
963 -20 m 2,0,1
 778 -20 778 -20 684 82 c 0,2,3
 602 170 602 170 601 283 c 0,4,5
 601 303 601 303 604 324 c 0,6,7
 625 497 625 497 777 588 c 0,8,9
 895 659 895 659 1075 659 c 2,10,-1
 1120 659 l 1,11,-1
 1141 758 l 2,12,13
 1148 789 1148 789 1148 816 c 0,14,15
 1148 880 1148 880 1109 918 c 0,16,17
 1047 980 1047 980 931 980 c 0,18,19
 810 980 810 980 716 916 c 0,20,21
 622 853 622 853 599 748 c 2,22,-1
 428 -58 l 2,23,24
 423 -84 423 -84 423 -107 c 0,25,26
 423 -175 423 -175 468 -224 c 0,27,28
 529 -290 529 -290 643 -290 c 2,29,-1
 707 -290 l 1,30,-1
 705 -300 l 1,31,-1
 615 -430 l 1,32,33
 283 -429 283 -429 178 -189 c 0,34,35
 146 -115 146 -115 146 -28 c 0,36,37
 146 28 146 28 159 90 c 2,38,-1
 268 600 l 2,39,40
 322 852 322 852 472 972 c 0,41,42
 660 1120 660 1120 918 1120 c 128,-1,43
 1176 1120 1176 1120 1316 974 c 0,44,45
 1420 865 1420 865 1420 712 c 0,46,47
 1420 660 1420 660 1408 604 c 2,48,-1
 1305 118 l 1,49,-1
 986 -20 l 1,50,-1
 963 -20 l 2,0,1
1090 519 m 1,51,52
 988 519 988 519 934.5 473.5 c 128,-1,53
 881 428 881 428 858 322 c 0,54,55
 848 275 848 275 848 240 c 0,56,57
 848 194 848 194 865 169 c 0,58,59
 898 120 898 120 1006 120 c 1,60,-1
 1090 519 l 1,51,52
EndSplineSet
Validated: 1
EndChar

StartChar: A
Encoding: 65 65 36
Width: 1410
GlyphClass: 2
Flags: W
HStem: -20 21G<136 192.395 946 1002.39> 680 150<636 1095> 1380 150<837.407 1143.62>
VStem: 1204 293<1109.14 1299.38>
DStem2: 136 -20 455.754 -20 0.207912 0.978148<216.765 782.214 935.381 1318.46> 946 -20 1265.75 -20 0.207912 0.978148<216.765 715.682 868.85 1225.21>
LayerCount: 2
Fore
SplineSet
146 -20 m 1,0,-1
 136 -20 l 1,1,-1
 356 1016 l 2,2,3
 409 1265 409 1265 570 1384 c 0,4,5
 767 1530 767 1530 1004 1530 c 128,-1,6
 1241 1530 1241 1530 1389 1383 c 0,7,8
 1497 1276 1497 1276 1497 1117 c 0,9,10
 1497 1068 1497 1068 1486 1016 c 2,11,-1
 1297 127 l 1,12,-1
 956 -20 l 1,13,-1
 946 -20 l 1,14,-1
 1095 680 l 1,15,-1
 605 680 l 1,16,-1
 487 127 l 1,17,-1
 146 -20 l 1,0,-1
1126 830 m 1,18,-1
 1199 1172 l 2,19,20
 1204 1194 1204 1194 1204 1214 c 0,21,22
 1204 1277 1204 1277 1159 1322 c 0,23,24
 1101 1380 1101 1380 998.5 1380 c 128,-1,25
 896 1380 896 1380 812 1321 c 128,-1,26
 728 1262 728 1262 709 1172 c 2,27,-1
 636 830 l 1,28,-1
 1126 830 l 1,18,-1
EndSplineSet
Validated: 1
EndChar

StartChar: B
Encoding: 66 66 37
Width: 1300
GlyphClass: 2
Flags: W
HStem: 0 150<512 879.847> 751 150<672 984.891> 1360 150<769 1086.96>
VStem: 1027 328<345.595 708.284> 1111 289<1020.66 1326.84>
DStem2: 160 0 480.117 0 0.207912 0.978148<219.907 834.386 987.762 1414.88>
LayerCount: 2
Fore
SplineSet
769 1360 m 1,0,-1
 672 901 l 1,1,-1
 887 901 l 2,2,3
 954 901 954 901 1007 940 c 0,4,5
 1069 985 1069 985 1098 1123 c 0,6,7
 1111 1187 1111 1187 1111 1232 c 0,8,9
 1111 1292 1111 1292 1088 1321 c 0,10,11
 1055 1360 1055 1360 984 1360 c 2,12,-1
 769 1360 l 1,0,-1
512 150 m 1,13,-1
 702 150 l 2,14,15
 825 150 825 150 896 206 c 0,16,17
 972 266 972 266 1011 450 c 0,18,19
 1027 526 1027 526 1027 581 c 0,20,21
 1027 659 1027 659 995 697 c 0,22,23
 948 751 948 751 830 751 c 2,24,-1
 640 751 l 1,25,-1
 512 150 l 1,13,-1
160 0 m 1,26,-1
 454 1384 l 1,27,-1
 749 1510 l 1,28,-1
 976 1510 l 2,29,30
 1176 1510 1176 1510 1288 1413 c 0,31,32
 1400 1315 1400 1315 1400 1175 c 0,33,34
 1400 1144 1400 1144 1395 1112 c 0,35,36
 1365 929 1365 929 1208 838 c 1,37,38
 1355 712 1355 712 1355 527 c 0,39,40
 1355 507 1355 507 1353 485 c 0,41,42
 1336 276 1336 276 1160 139 c 0,43,44
 981 0 981 0 715 0 c 2,45,-1
 160 0 l 1,26,-1
EndSplineSet
Validated: 1
EndChar

StartChar: C
Encoding: 67 67 38
Width: 1290
GlyphClass: 2
Flags: W
HStem: -20 150<572.113 874.487> 1380 150<816.482 1120.47>
VStem: 214 302<210.622 397.914> 1170 295<1112 1292.8>
DStem2: 115.746 -20 446.18 -20 0.207912 0.978148<425.902 1318.51>
LayerCount: 2
Fore
SplineSet
708 -20 m 128,-1,1
 470 -20 470 -20 322 127 c 0,2,3
 214 234 214 234 214 393 c 0,4,5
 214 442 214 442 225 494 c 2,6,-1
 336 1016 l 2,7,8
 389 1265 389 1265 550 1384 c 0,9,10
 747 1530 747 1530 981 1530 c 0,11,12
 1230 1530 1230 1530 1362 1378 c 0,13,14
 1464 1259 1464 1259 1465 1112 c 1,15,-1
 1131 967 l 1,16,-1
 1121 967 l 1,17,-1
 1165 1178 l 2,18,19
 1170 1202 1170 1202 1170 1225 c 0,20,21
 1170 1284 1170 1284 1134 1324 c 0,22,23
 1084 1380 1084 1380 980 1380 c 128,-1,24
 876 1380 876 1380 798 1324 c 0,25,26
 719 1267 719 1267 700 1178 c 2,27,-1
 521 332 l 2,28,29
 516 308 516 308 516 288 c 0,30,31
 516 228 516 228 557 186 c 0,32,33
 612 130 612 130 715 130 c 128,-1,34
 818 130 818 130 892 186 c 0,35,36
 967 243 967 243 986 332 c 2,37,-1
 1001 404 l 1,38,-1
 1359 558 l 1,39,-1
 1369 558 l 1,40,-1
 1357 502 l 2,41,42
 1303 251 1303 251 1141 128 c 0,43,0
 946 -20 946 -20 708 -20 c 128,-1,1
EndSplineSet
Validated: 1
EndChar

StartChar: D
Encoding: 68 68 39
Width: 1390
GlyphClass: 2
Flags: W
HStem: 0 150<512 891.954> 1360 150<769 1128.33>
VStem: 1191 301<978.281 1267.39>
DStem2: 160 0 480.117 0 0.207912 0.978148<219.907 1413.9> 939.647 0 1270.08 0 0.207912 0.978148<339.521 1179.64>
LayerCount: 2
Fore
SplineSet
512 150 m 1,0,-1
 727 150 l 2,1,2
 830 150 830 150 914 207 c 0,3,4
 996 263 996 263 1015 351 c 2,5,-1
 1186 1159 l 2,6,7
 1191 1180 1191 1180 1191 1199 c 0,8,9
 1191 1260 1191 1260 1145 1303 c 0,10,11
 1085 1360 1085 1360 984 1360 c 2,12,-1
 769 1360 l 1,13,-1
 512 150 l 1,0,-1
160 0 m 1,14,-1
 454 1383 l 1,15,-1
 749 1510 l 1,16,-1
 1011 1510 l 2,17,18
 1245 1510 1245 1510 1380 1362 c 0,19,20
 1492 1240 1492 1240 1492 1090 c 0,21,22
 1492 1045 1492 1045 1482 997 c 2,23,-1
 1379 513 l 2,24,25
 1326 269 1326 269 1166 148 c 0,26,27
 970 0 970 0 735 0 c 2,28,-1
 160 0 l 1,14,-1
EndSplineSet
Validated: 1
EndChar

StartChar: E
Encoding: 69 69 40
Width: 1100
GlyphClass: 2
Flags: W
HStem: 0 150<512 1023> 680 150<656 1118> 1360 150<769 1262>
DStem2: 160 0 480.117 0 0.207912 0.978148<219.907 761.819 914.987 1414.88>
CounterMasks: 1 e0
LayerCount: 2
Fore
SplineSet
160 0 m 1,0,-1
 454 1384 l 1,1,-1
 749 1510 l 1,2,-1
 1361 1510 l 1,3,-1
 1359 1500 l 1,4,-1
 1262 1360 l 1,5,-1
 769 1360 l 1,6,-1
 656 830 l 1,7,-1
 1216 830 l 1,8,-1
 1214 820 l 1,9,-1
 1118 680 l 1,10,-1
 625 680 l 1,11,-1
 512 150 l 1,12,-1
 1122 150 l 1,13,-1
 1120 140 l 1,14,-1
 1023 0 l 1,15,-1
 160 0 l 1,0,-1
EndSplineSet
Validated: 1
EndChar

StartChar: F
Encoding: 70 70 41
Width: 1050
GlyphClass: 2
Flags: W
HStem: -20 21G<156 212.395> 680 150<656 1118> 1360 150<769 1262>
DStem2: 156 -20 475.754 -20 0.207912 0.978148<216.765 782.214 935.381 1435.28>
LayerCount: 2
Fore
SplineSet
166 -20 m 1,0,-1
 156 -20 l 1,1,-1
 454 1384 l 1,2,-1
 749 1510 l 1,3,-1
 1361 1510 l 1,4,-1
 1359 1500 l 1,5,-1
 1262 1360 l 1,6,-1
 769 1360 l 1,7,-1
 656 830 l 1,8,-1
 1216 830 l 1,9,-1
 1214 820 l 1,10,-1
 1118 680 l 1,11,-1
 625 680 l 1,12,-1
 507 127 l 1,13,-1
 166 -20 l 1,0,-1
EndSplineSet
Validated: 1
EndChar

StartChar: G
Encoding: 71 71 42
Width: 1370
GlyphClass: 2
Flags: W
HStem: -20 150<572.113 882.517> 680 150<825 1075> 1380 150<816.482 1120.47>
VStem: 214 302<210.622 397.914> 1170 295<1112 1292.8>
DStem2: 115.746 -20 446.18 -20 0.207912 0.978148<425.902 1318.51>
CounterMasks: 1 e0
LayerCount: 2
Fore
SplineSet
708 -20 m 128,-1,1
 470 -20 470 -20 322 127 c 0,2,3
 214 234 214 234 214 393 c 0,4,5
 214 442 214 442 225 494 c 2,6,-1
 336 1016 l 2,7,8
 389 1265 389 1265 550 1384 c 0,9,10
 747 1530 747 1530 981 1530 c 0,11,12
 1230 1530 1230 1530 1362 1378 c 0,13,14
 1464 1259 1464 1259 1465 1112 c 1,15,-1
 1131 967 l 1,16,-1
 1121 967 l 1,17,-1
 1165 1178 l 2,18,19
 1170 1202 1170 1202 1170 1225 c 0,20,21
 1170 1284 1170 1284 1134 1324 c 0,22,23
 1084 1380 1084 1380 980 1380 c 128,-1,24
 876 1380 876 1380 798 1324 c 0,25,26
 719 1267 719 1267 700 1178 c 2,27,-1
 521 332 l 2,28,29
 516 308 516 308 516 288 c 0,30,31
 516 228 516 228 557 186 c 0,32,33
 612 130 612 130 715 130 c 128,-1,34
 818 130 818 130 900 184 c 0,35,36
 980 237 980 237 998 322 c 2,37,-1
 1075 680 l 1,38,-1
 727 680 l 1,39,-1
 729 690 l 1,40,-1
 825 830 l 1,41,-1
 1426 830 l 1,42,-1
 1356 500 l 2,43,44
 1303 250 1303 250 1142 128 c 0,45,0
 946 -20 946 -20 708 -20 c 128,-1,1
EndSplineSet
Validated: 1
EndChar

StartChar: H
Encoding: 72 72 43
Width: 1440
GlyphClass: 2
Flags: W
HStem: -20 21G<156 212.395 956 1012.39> 680 150<656 1105> 1510 20G<748.605 805 1548.61 1605>
DStem2: 156 -20 475.754 -20 0.207912 0.978148<216.765 782.214 935.381 1434.3> 956 -20 1275.75 -20 0.207912 0.978148<216.765 715.682 868.85 1434.3>
LayerCount: 2
Fore
SplineSet
166 -20 m 1,0,-1
 156 -20 l 1,1,-1
 454 1383 l 1,2,-1
 795 1530 l 1,3,-1
 805 1530 l 1,4,-1
 656 830 l 1,5,-1
 1136 830 l 1,6,-1
 1254 1383 l 1,7,-1
 1595 1530 l 1,8,-1
 1605 1530 l 1,9,-1
 1307 127 l 1,10,-1
 966 -20 l 1,11,-1
 956 -20 l 1,12,-1
 1105 680 l 1,13,-1
 625 680 l 1,14,-1
 507 127 l 1,15,-1
 166 -20 l 1,0,-1
EndSplineSet
Validated: 1
EndChar

StartChar: I
Encoding: 73 73 44
Width: 640
GlyphClass: 2
Flags: W
HStem: -20 21G<156 212.395> 1510 20G<748.605 805>
VStem: 156 649
DStem2: 156 -20 475.754 -20 0.207912 0.978148<216.765 1434.3>
LayerCount: 2
Fore
SplineSet
166 -20 m 1,0,-1
 156 -20 l 1,1,-1
 454 1383 l 1,2,-1
 795 1530 l 1,3,-1
 805 1530 l 1,4,-1
 507 127 l 1,5,-1
 166 -20 l 1,0,-1
EndSplineSet
Validated: 1
EndChar

StartChar: J
Encoding: 74 74 45
Width: 1215
GlyphClass: 2
Flags: W
HStem: -20 150<437.374 729.275> 1360 150<498 1064>
VStem: 95 290<210.334 401>
DStem2: 770.672 -20 1090.79 -20 0.207912 0.978148<329.278 1410.83>
LayerCount: 2
Fore
SplineSet
570 -20 m 0,0,1
 322 -20 322 -20 192 131 c 0,2,3
 95 245 95 245 95 401 c 1,4,-1
 424 542 l 1,5,-1
 434 542 l 1,6,-1
 390 332 l 2,7,8
 385 308 385 308 385 286 c 0,9,10
 385 226 385 226 423 186 c 0,11,12
 475 130 475 130 572 130 c 128,-1,13
 669 130 669 130 749 187 c 0,14,15
 827 243 827 243 846 332 c 2,16,-1
 1064 1360 l 1,17,-1
 399 1360 l 1,18,-1
 401 1370 l 1,19,-1
 498 1510 l 1,20,-1
 1416 1510 l 1,21,-1
 1200 494 l 2,22,23
 1148 247 1148 247 991 127 c 0,24,25
 799 -20 799 -20 570 -20 c 0,0,1
EndSplineSet
Validated: 1
EndChar

StartChar: K
Encoding: 75 75 46
Width: 1390
GlyphClass: 2
Flags: W
HStem: -20 21G<156 212.395 946 1002.39> 1510 20G<748.605 805 1365.71 1442.5>
VStem: 1115 294<689.258 890.711>
DStem2: 156 -20 475.754 -20 0.207912 0.978148<216.765 998.787 1150.15 1434.3> 946 -20 1265.75 -20 0.207912 0.978148<216.765 807.711>
LayerCount: 2
Fore
SplineSet
166 -20 m 1,0,-1
 156 -20 l 1,1,-1
 454 1383 l 1,2,-1
 795 1530 l 1,3,-1
 805 1530 l 1,4,-1
 701 1040 l 1,5,-1
 1394 1530 l 1,6,-1
 1404 1530 l 1,7,-1
 1558 1450 l 1,8,-1
 1041 1097 l 1,9,10
 1210 1077 1210 1077 1311 966 c 0,11,12
 1409 858 1409 858 1409 709 c 0,13,14
 1409 656 1409 656 1397 599 c 2,15,-1
 1297 127 l 1,16,-1
 956 -20 l 1,17,-1
 946 -20 l 1,18,-1
 1110 755 l 2,19,20
 1115 779 1115 779 1115 798 c 0,21,22
 1115 862 1115 862 1067 908 c 0,23,24
 1009 963 1009 963 921 963 c 0,25,26
 828 963 828 963 748 910 c 0,27,28
 660 852 660 852 640 755 c 2,29,-1
 507 127 l 1,30,-1
 166 -20 l 1,0,-1
EndSplineSet
Validated: 1
EndChar

StartChar: L
Encoding: 76 76 47
Width: 1100
GlyphClass: 2
Flags: W
HStem: 0 150<512 1023> 1510 20G<748.288 805>
DStem2: 160 0 480.117 0 0.207912 0.978148<219.907 1414.88>
LayerCount: 2
Fore
SplineSet
160 0 m 1,0,-1
 454 1384 l 1,1,-1
 795 1530 l 1,2,-1
 805 1530 l 1,3,-1
 512 150 l 1,4,-1
 1122 150 l 1,5,-1
 1120 140 l 1,6,-1
 1023 0 l 1,7,-1
 160 0 l 1,0,-1
EndSplineSet
Validated: 1
EndChar

StartChar: M
Encoding: 77 77 48
Width: 2220
GlyphClass: 2
Flags: W
HStem: -20 21G<136 192.395 946 1002.39 1756 1812.39> 1380 150<836.791 1141.27 1646.52 1953.86>
VStem: 2014 293<1105.77 1299.51>
DStem2: 136 -20 455.754 -20 0.207912 0.978148<216.765 1318.46> 946 -20 1265.75 -20 0.207912 0.978148<216.765 1260.12> 1756 -20 2075.75 -20 0.207912 0.978148<216.765 1226.16>
LayerCount: 2
Fore
SplineSet
146 -20 m 1,0,-1
 136 -20 l 1,1,-1
 356 1016 l 2,2,3
 409 1265 409 1265 570 1384 c 0,4,5
 767 1530 767 1530 1001 1530 c 0,6,7
 1237 1530 1237 1530 1373 1379 c 1,8,9
 1576 1530 1576 1530 1813 1530 c 0,10,11
 2053 1530 2053 1530 2200 1383 c 0,12,13
 2307 1276 2307 1276 2307 1118 c 0,14,15
 2307 1068 2307 1068 2296 1016 c 2,16,-1
 2107 127 l 1,17,-1
 1766 -20 l 1,18,-1
 1756 -20 l 1,19,-1
 2009 1172 l 2,20,21
 2014 1196 2014 1196 2014 1214 c 0,22,23
 2014 1277 2014 1277 1969 1322 c 0,24,25
 1911 1380 1911 1380 1808.5 1380 c 128,-1,26
 1706 1380 1706 1380 1622 1321 c 128,-1,27
 1538 1262 1538 1262 1519 1172 c 2,28,-1
 1297 127 l 1,29,-1
 956 -20 l 1,30,-1
 946 -20 l 1,31,-1
 1199 1172 l 2,32,33
 1204 1196 1204 1196 1204 1214 c 0,34,35
 1204 1277 1204 1277 1159 1322 c 0,36,37
 1101 1380 1101 1380 998.5 1380 c 128,-1,38
 896 1380 896 1380 812 1321 c 128,-1,39
 728 1262 728 1262 709 1172 c 2,40,-1
 487 127 l 1,41,-1
 146 -20 l 1,0,-1
EndSplineSet
Validated: 1
EndChar

StartChar: N
Encoding: 78 78 49
Width: 1410
GlyphClass: 2
Flags: W
HStem: -20 21G<136 192.395 946 1002.39> 1380 150<837.407 1143.62>
VStem: 1204 293<1105.77 1299.38>
DStem2: 136 -20 455.754 -20 0.207912 0.978148<216.765 1318.46> 946 -20 1265.75 -20 0.207912 0.978148<216.765 1225.21>
LayerCount: 2
Fore
SplineSet
146 -20 m 1,0,-1
 136 -20 l 1,1,-1
 356 1016 l 2,2,3
 409 1265 409 1265 570 1384 c 0,4,5
 767 1530 767 1530 1004 1530 c 128,-1,6
 1241 1530 1241 1530 1389 1383 c 0,7,8
 1497 1276 1497 1276 1497 1117 c 0,9,10
 1497 1068 1497 1068 1486 1016 c 2,11,-1
 1297 127 l 1,12,-1
 956 -20 l 1,13,-1
 946 -20 l 1,14,-1
 1199 1172 l 2,15,16
 1204 1196 1204 1196 1204 1214 c 0,17,18
 1204 1277 1204 1277 1159 1322 c 0,19,20
 1101 1380 1101 1380 998.5 1380 c 128,-1,21
 896 1380 896 1380 812 1321 c 128,-1,22
 728 1262 728 1262 709 1172 c 2,23,-1
 487 127 l 1,24,-1
 146 -20 l 1,0,-1
EndSplineSet
Validated: 1
EndChar

StartChar: O
Encoding: 79 79 50
Width: 1370
GlyphClass: 2
Flags: W
HStem: -20 150<572.181 875.327> 1379 151<818.223 1120.52>
VStem: 214 302<217.12 517.766> 1175 302<992.234 1293.4>
DStem2: 115.746 -20 446.18 -20 0.207912 0.978148<425.872 1318.51> 915.357 -20 1245.79 -20 0.207912 0.978148<335.076 1227.43>
LayerCount: 2
Fore
SplineSet
717 130 m 128,-1,1
 818 130 818 130 895 187 c 128,-1,2
 972 244 972 244 991 332 c 2,3,-1
 1170 1178 l 2,4,5
 1175 1203 1175 1203 1175 1224 c 0,6,7
 1175 1284 1175 1284 1135 1323 c 0,8,9
 1076 1379 1076 1379 978 1379 c 128,-1,10
 880 1379 880 1379 797 1322 c 0,11,12
 720 1269 720 1269 700 1178 c 2,13,-1
 521 332 l 2,14,15
 516 308 516 308 516 286 c 0,16,17
 516 226 516 226 557 186 c 0,18,0
 616 130 616 130 717 130 c 128,-1,1
712 -20 m 128,-1,20
 478 -20 478 -20 328 127 c 0,21,22
 214 239 214 239 214 393 c 0,23,24
 214 441 214 441 225 494 c 2,25,-1
 336 1016 l 2,26,27
 389 1265 389 1265 550 1384 c 0,28,29
 748 1530 748 1530 982 1530 c 0,30,31
 1215 1530 1215 1530 1364 1383 c 0,32,33
 1477 1271 1477 1271 1477 1117 c 0,34,35
 1477 1068 1477 1068 1466 1016 c 2,36,-1
 1355 494 l 2,37,38
 1302 245 1302 245 1142 126 c 0,39,19
 946 -20 946 -20 712 -20 c 128,-1,20
EndSplineSet
Validated: 1
EndChar

StartChar: P
Encoding: 80 80 51
Width: 1270
GlyphClass: 2
Flags: W
HStem: -20 21G<156 212.395> 440 151<606 942.741> 1360 150<769 1088.4>
VStem: 1139 313<904.59 1261.17>
DStem2: 156 -20 475.754 -20 0.207912 0.978148<216.765 536.855 691.208 1434.3>
LayerCount: 2
Fore
SplineSet
606 591 m 1,0,-1
 803 591 l 2,1,2
 901 591 901 591 981 662 c 0,3,4
 1060 733 1060 733 1112 975 c 0,5,6
 1138 1098 1138 1098 1139 1177 c 0,7,8
 1139 1254 1139 1254 1114 1288 c 0,9,10
 1064 1360 1064 1360 966 1360 c 2,11,-1
 769 1360 l 1,12,-1
 606 591 l 1,0,-1
166 -20 m 1,13,-1
 156 -20 l 1,14,-1
 454 1383 l 1,15,-1
 749 1510 l 1,16,-1
 977 1510 l 2,17,18
 1230 1510 1230 1510 1352 1353 c 0,19,20
 1451 1226 1451 1226 1452 1049 c 0,21,22
 1452 1013 1452 1013 1448 975 c 0,23,24
 1423 747 1423 747 1241 596 c 0,25,26
 1054 440 1054 440 810 440 c 2,27,-1
 574 440 l 1,28,-1
 507 127 l 1,29,-1
 166 -20 l 1,13,-1
EndSplineSet
Validated: 1
EndChar

StartChar: Q
Encoding: 81 81 52
Width: 1370
GlyphClass: 2
Flags: W
HStem: -20 150<566.36 796.826> 5 135<715.343 798> 1379 151<816.145 1125.82>
VStem: 214 292<216.806 517.766> 1185 292<995.938 1293.73>
DStem2: 111.495 -40 431.929 -40 0.207912 0.978148<446.319 1338.85> 921.224 -40 1241.49 -40 0.207912 0.978148<472.784 1245.8>
LayerCount: 2
Fore
SplineSet
603 512 m 1,0,-1
 910 609 l 1,1,-1
 920 609 l 1,2,-1
 1019 420 l 1,3,-1
 1180 1178 l 2,4,5
 1185 1199 1185 1199 1185 1219 c 0,6,7
 1185 1280 1185 1280 1139 1323 c 0,8,9
 1081 1379 1081 1379 978 1379 c 0,10,11
 875 1378 875 1378 793 1322 c 0,12,13
 709 1264 709 1264 690 1178 c 2,14,-1
 511 332 l 2,15,16
 506 311 506 311 506 291 c 0,17,18
 506 230 506 230 552 186 c 0,19,20
 610 130 610 130 714 130 c 0,21,22
 757 130 757 130 798 140 c 1,23,-1
 603 512 l 1,0,-1
712 -20 m 0,24,25
 478 -20 478 -20 328 127 c 0,26,27
 214 239 214 239 214 393 c 0,28,29
 214 441 214 441 225 494 c 2,30,-1
 336 1016 l 2,31,32
 389 1265 389 1265 550 1384 c 0,33,34
 748 1530 748 1530 982 1530 c 0,35,36
 1215 1530 1215 1530 1364 1383 c 0,37,38
 1477 1271 1477 1271 1477 1117 c 0,39,40
 1477 1069 1477 1069 1466 1016 c 2,41,-1
 1355 494 l 2,42,43
 1313 298 1313 298 1155 161 c 1,44,-1
 1209 57 l 1,45,-1
 901 -40 l 1,46,-1
 891 -40 l 1,47,-1
 868 5 l 1,48,49
 799 -20 799 -20 712 -20 c 0,24,25
EndSplineSet
Validated: 1
EndChar

StartChar: R
Encoding: 82 82 53
Width: 1369
GlyphClass: 2
Flags: W
HStem: -20 21G<156 212.395 1028.78 1099.19> 440 151<606 782> 1360 150<769 1088.4>
VStem: 1139 313<904.59 1261.17>
DStem2: 156 -20 475.754 -20 0.207912 0.978148<216.765 536.855 691.208 1434.3> 1117 513 782 440 0.489181 -0.872183<-0.139597 427.206>
LayerCount: 2
Fore
SplineSet
606 591 m 1,0,-1
 803 591 l 2,1,2
 901 591 901 591 981 662 c 0,3,4
 1060 733 1060 733 1112 975 c 0,5,6
 1138 1098 1138 1098 1139 1177 c 0,7,8
 1139 1254 1139 1254 1114 1288 c 0,9,10
 1064 1360 1064 1360 966 1360 c 2,11,-1
 769 1360 l 1,12,-1
 606 591 l 1,0,-1
166 -20 m 1,13,-1
 156 -20 l 1,14,-1
 454 1383 l 1,15,-1
 749 1510 l 1,16,-1
 977 1510 l 2,17,18
 1230 1510 1230 1510 1352 1353 c 0,19,20
 1451 1226 1451 1226 1452 1049 c 0,21,22
 1452 1013 1452 1013 1448 975 c 0,23,24
 1423 747 1423 747 1241 596 c 0,25,26
 1182 547 1182 547 1117 513 c 1,27,-1
 1355 104 l 1,28,-1
 1050 -20 l 1,29,-1
 1040 -20 l 1,30,-1
 782 440 l 1,31,-1
 574 440 l 1,32,-1
 507 127 l 1,33,-1
 166 -20 l 1,13,-1
EndSplineSet
Validated: 1
EndChar

StartChar: T
Encoding: 84 84 54
Width: 1190
GlyphClass: 2
Flags: W
HStem: -20 21G<431 487.712> 1360 150<398 724 1044 1402>
DStem2: 431 -20 750.967 -20 0.207912 0.978148<215.787 1410.76>
LayerCount: 2
Fore
SplineSet
441 -20 m 1,0,-1
 431 -20 l 1,1,-1
 724 1360 l 1,2,-1
 299 1360 l 1,3,-1
 301 1370 l 1,4,-1
 398 1510 l 1,5,-1
 1501 1510 l 1,6,-1
 1499 1500 l 1,7,-1
 1402 1360 l 1,8,-1
 1044 1360 l 1,9,-1
 782 126 l 1,10,-1
 441 -20 l 1,0,-1
EndSplineSet
Validated: 1
EndChar

StartChar: U
Encoding: 85 85 55
Width: 1410
GlyphClass: 2
Flags: W
HStem: -20 150<587.826 894.209> 1510 20G<728.605 785 1538.61 1595>
VStem: 234 293<210.162 404.235>
DStem2: 135.746 -20 455.905 -20 0.207912 0.978148<425.902 1434.35> 945.905 -20 1265.75 -20 0.207912 0.978148<332.621 1434.32>
LayerCount: 2
Fore
SplineSet
730 -20 m 0,0,1
 489 -20 489 -20 341 127 c 0,2,3
 234 233 234 233 234 393 c 0,4,5
 234 442 234 442 245 494 c 2,6,-1
 434 1383 l 1,7,-1
 775 1530 l 1,8,-1
 785 1530 l 1,9,-1
 532 338 l 2,10,11
 527 314 527 314 527 296 c 0,12,13
 527 233 527 233 572 188 c 0,14,15
 630 130 630 130 732.5 130 c 128,-1,16
 835 130 835 130 919 189 c 128,-1,17
 1003 248 1003 248 1022 338 c 2,18,-1
 1244 1383 l 1,19,-1
 1585 1530 l 1,20,-1
 1595 1530 l 1,21,-1
 1375 494 l 2,22,23
 1322 245 1322 245 1161 126 c 0,24,25
 964 -20 964 -20 730 -20 c 0,0,1
EndSplineSet
Validated: 1
EndChar

StartChar: V
Encoding: 86 86 56
Width: 1378
GlyphClass: 2
Flags: W
HStem: -20 21G<544.578 604.508> 1510 20G<544.71 604.418 1525.56 1585.5>
DStem2: 601 1530 304 1406 0.168657 -0.985675<72.1326 1199.14> 803 348 851 106 0.524097 0.851658<0 1391.87>
LayerCount: 2
Fore
SplineSet
558 -20 m 1,0,-1
 548 -20 l 1,1,-1
 304 1406 l 1,2,-1
 591 1530 l 1,3,-1
 601 1530 l 1,4,-1
 803 348 l 1,5,-1
 1538 1530 l 1,6,-1
 1548 1530 l 1,7,-1
 1683 1458 l 1,8,-1
 851 106 l 1,9,-1
 558 -20 l 1,0,-1
EndSplineSet
Validated: 1
EndChar

StartChar: W
Encoding: 87 87 57
Width: 2220
GlyphClass: 2
Flags: W
HStem: -20 150<587.139 894.481 1399.73 1704.21> 1510 20G<728.605 785 1538.61 1595 2348.61 2405>
VStem: 234 293<210.493 404.235>
DStem2: 135.746 -20 455.905 -20 0.207912 0.978148<424.954 1434.35> 945.905 -20 1265.9 -20 0.207912 0.978148<390.96 1434.32> 1755.9 -20 2075.75 -20 0.207912 0.978148<332.621 1434.32>
LayerCount: 2
Fore
SplineSet
728 -20 m 0,0,1
 488 -20 488 -20 341 127 c 0,2,3
 234 234 234 234 234 392 c 0,4,5
 234 442 234 442 245 494 c 2,6,-1
 434 1383 l 1,7,-1
 775 1530 l 1,8,-1
 785 1530 l 1,9,-1
 532 338 l 2,10,11
 527 314 527 314 527 296 c 0,12,13
 527 233 527 233 572 188 c 0,14,15
 630 130 630 130 732.5 130 c 128,-1,16
 835 130 835 130 919 189 c 128,-1,17
 1003 248 1003 248 1022 338 c 2,18,-1
 1244 1383 l 1,19,-1
 1585 1530 l 1,20,-1
 1595 1530 l 1,21,-1
 1342 338 l 2,22,23
 1337 314 1337 314 1337 296 c 0,24,25
 1337 233 1337 233 1382 188 c 0,26,27
 1440 130 1440 130 1542.5 130 c 128,-1,28
 1645 130 1645 130 1729 189 c 128,-1,29
 1813 248 1813 248 1832 338 c 2,30,-1
 2054 1383 l 1,31,-1
 2395 1530 l 1,32,-1
 2405 1530 l 1,33,-1
 2185 494 l 2,34,35
 2132 245 2132 245 1971 126 c 0,36,37
 1774 -20 1774 -20 1540 -20 c 0,38,39
 1304 -20 1304 -20 1168 131 c 1,40,41
 965 -20 965 -20 728 -20 c 0,0,1
EndSplineSet
Validated: 1
EndChar

StartChar: X
Encoding: 88 88 58
Width: 1254
GlyphClass: 2
Flags: W
HStem: -20 21G<120.944 187.754 973.588 1039.5> 1510 20G<535.898 601.396 1388.24 1454.53>
DStem2: 22 52 169 -20 0.683777 0.729691<47.9774 840.346 1231.73 2025.51> 592 1530 310 1412 0.425097 -0.905148<0 639.707 930.39 1569.19>
LayerCount: 2
Fore
SplineSet
169 -20 m 1,0,-1
 159 -20 l 1,1,-1
 22 52 l 1,2,-1
 639 711 l 1,3,-1
 310 1412 l 1,4,-1
 582 1530 l 1,5,-1
 592 1530 l 1,6,-1
 864 951 l 1,7,-1
 1407 1530 l 1,8,-1
 1417 1530 l 1,9,-1
 1554 1457 l 1,10,-1
 936 798 l 1,11,-1
 1265 97 l 1,12,-1
 993 -20 l 1,13,-1
 983 -20 l 1,14,-1
 711 558 l 1,15,-1
 169 -20 l 1,0,-1
EndSplineSet
Validated: 1
EndChar

StartChar: Y
Encoding: 89 89 59
Width: 1270
GlyphClass: 2
Flags: W
HStem: -20 21G<471 527.395> 1510 20G<668.605 725 1458.61 1515>
VStem: 259 293<620.047 800.879>
DStem2: 75.361 -20 395.52 -20 0.207912 0.978148<838.764 1434.43> 865.783 -20 1185.54 -20 0.207912 0.978148<738.436 1434.34>
LayerCount: 2
Fore
SplineSet
481 -20 m 1,0,-1
 471 -20 l 1,1,-1
 559 397 l 1,2,3
 442 444 442 444 370 524 c 0,4,5
 259 647 259 647 259 797 c 0,6,7
 259 844 259 844 269 891 c 2,8,-1
 374 1383 l 1,9,-1
 715 1530 l 1,10,-1
 725 1530 l 1,11,-1
 556 735 l 2,12,13
 552 716 552 716 552 697 c 0,14,15
 552 637 552 637 596 585 c 0,16,17
 646 527 646 527 747 527 c 128,-1,18
 848 527 848 527 927 586 c 0,19,20
 1007 645 1007 645 1026 735 c 2,21,-1
 1164 1383 l 1,22,-1
 1505 1530 l 1,23,-1
 1515 1530 l 1,24,-1
 1379 891 l 2,25,26
 1326 642 1326 642 1165 523 c 0,27,28
 1058 444 1058 444 880 398 c 1,29,-1
 822 127 l 1,30,-1
 481 -20 l 1,0,-1
EndSplineSet
Validated: 1
EndChar

StartChar: Z
Encoding: 90 90 60
Width: 1138
GlyphClass: 2
Flags: W
HStem: 0 150<475 1061> 1360 150<429 984>
DStem2: 12 10 475 150 0.584305 0.811534<384.148 1663.52>
LayerCount: 2
Fore
SplineSet
10 0 m 1,0,-1
 12 10 l 1,1,-1
 984 1360 l 1,2,-1
 330 1360 l 1,3,-1
 332 1370 l 1,4,-1
 429 1510 l 1,5,-1
 1449 1510 l 1,6,-1
 1447 1500 l 1,7,-1
 475 150 l 1,8,-1
 1160 150 l 1,9,-1
 1158 140 l 1,10,-1
 1061 0 l 1,11,-1
 10 0 l 1,0,-1
EndSplineSet
Validated: 1
EndChar

StartChar: bracketleft
Encoding: 91 91 61
Width: 920
GlyphClass: 2
Flags: W
HStem: -240 150<461 792> 1600 150<820 1183>
DStem2: 109 -240 429.117 -240 0.207912 0.978148<219.907 1905.6>
LayerCount: 2
Fore
SplineSet
109 -240 m 1,0,-1
 505 1624 l 1,1,-1
 800 1750 l 1,2,-1
 1282 1750 l 1,3,-1
 1280 1740 l 1,4,-1
 1183 1600 l 1,5,-1
 820 1600 l 1,6,-1
 461 -90 l 1,7,-1
 891 -90 l 1,8,-1
 889 -100 l 1,9,-1
 792 -240 l 1,10,-1
 109 -240 l 1,0,-1
EndSplineSet
Validated: 1
EndChar

StartChar: backslash
Encoding: 92 92 62
Width: 1069
GlyphClass: 2
Flags: W
DStem2: 601 1710 351 1606 0.235692 -0.971828<42.147 1858.35>
LayerCount: 2
Fore
SplineSet
797 -200 m 1,0,-1
 787 -200 l 1,1,-1
 351 1606 l 1,2,-1
 591 1710 l 1,3,-1
 601 1710 l 1,4,-1
 1039 -96 l 1,5,-1
 797 -200 l 1,0,-1
EndSplineSet
Validated: 1
EndChar

StartChar: bracketright
Encoding: 93 93 63
Width: 920
GlyphClass: 2
Flags: W
HStem: -240 150<58 421> 1600 150<449 780>
DStem2: 389.117 -240 709.218 -240 0.207912 0.978148<195.368 1881.06>
LayerCount: 2
Fore
SplineSet
441 -240 m 1,0,-1
 -41 -240 l 1,1,-1
 -39 -230 l 1,2,-1
 58 -90 l 1,3,-1
 421 -90 l 1,4,-1
 780 1600 l 1,5,-1
 350 1600 l 1,6,-1
 352 1610 l 1,7,-1
 449 1750 l 1,8,-1
 1132 1750 l 1,9,-1
 736 -114 l 1,10,-1
 441 -240 l 1,0,-1
EndSplineSet
Validated: 1
EndChar

StartChar: asciicircum
Encoding: 94 94 64
Width: 1062
GlyphClass: 2
Flags: W
HStem: 1039 531
LayerCount: 2
Fore
SplineSet
657 1442 m 1,0,-1
 953 1570 l 1,1,-1
 963 1570 l 1,2,-1
 1279 1161 l 1,3,-1
 997 1039 l 1,4,-1
 987 1039 l 1,5,-1
 763 1329 l 1,6,-1
 426 1039 l 1,7,-1
 416 1039 l 1,8,-1
 268 1118 l 1,9,-1
 657 1442 l 1,0,-1
EndSplineSet
Validated: 1
EndChar

StartChar: underscore
Encoding: 95 95 65
Width: 1404
GlyphClass: 2
Flags: W
HStem: -410 200<156 1116>
LayerCount: 2
Fore
SplineSet
23 -410 m 1,0,-1
 25 -400 l 1,1,-1
 156 -210 l 1,2,-1
 1249 -210 l 1,3,-1
 1247 -220 l 1,4,-1
 1116 -410 l 1,5,-1
 23 -410 l 1,0,-1
EndSplineSet
Validated: 1
EndChar

StartChar: grave
Encoding: 96 96 66
Width: 405
GlyphClass: 2
Flags: W
HStem: 1160 410
VStem: 346 293
DStem2: 554 1570 346 1485 0.252301 -0.967649<29.7715 336.899>
LayerCount: 2
Fore
SplineSet
544 1570 m 1,0,-1
 554 1570 l 1,1,-1
 639 1244 l 1,2,-1
 444 1160 l 1,3,-1
 434 1160 l 1,4,-1
 346 1485 l 1,5,-1
 544 1570 l 1,0,-1
EndSplineSet
Validated: 1
EndChar

StartChar: a
Encoding: 97 97 67
Width: 1104
GlyphClass: 2
Flags: W
HStem: -20 140<413.085 652.788> 577 140<487.475 744.76> 960 140<531 805.988>
VStem: 111 279<149.248 446.171> 839 279<669.195 921.924>
DStem2: 673.524 -20 959.998 -20 0.207912 0.978148<200.576 503.166 696.388 856.13>
LayerCount: 2
Fore
SplineSet
393 248 m 2,0,1
 390 234 390 234 390 220 c 0,2,3
 390 181 390 181 417 155 c 0,4,5
 453 120 453 120 527.5 120 c 128,-1,6
 602 120 602 120 661 156 c 0,7,8
 718 191 718 191 731 249 c 2,9,-1
 773 448 l 2,10,11
 776 461 776 461 776 473 c 0,12,13
 776 515 776 515 741 542 c 0,14,15
 697 577 697 577 623 577 c 128,-1,16
 549 577 549 577 498.5 541.5 c 128,-1,17
 448 506 448 506 435 448 c 2,18,-1
 393 248 l 2,0,1
468 -20 m 0,19,20
 302 -20 302 -20 201 75 c 0,21,22
 111 160 111 160 111 296 c 0,23,24
 111 324 111 324 115 353 c 0,25,26
 138 536 138 536 303 636 c 0,27,28
 436 717 436 717 584 717 c 0,29,30
 727 717 727 717 805 664 c 1,31,-1
 835 804 l 2,32,33
 839 824 839 824 839 842 c 0,34,35
 839 892 839 892 807 926 c 128,-1,36
 775 960 775 960 693 960 c 2,37,-1
 438 960 l 1,38,-1
 440 970 l 1,39,-1
 531 1100 l 1,40,-1
 713 1100 l 2,41,42
 915 1100 915 1100 1026 984 c 0,43,44
 1118 888 1118 888 1118 762 c 0,45,46
 1118 723 1118 723 1109 681 c 2,47,-1
 989 118 l 1,48,-1
 670 -20 l 1,49,-1
 660 -20 l 1,50,-1
 671 35 l 1,51,52
 586 -20 586 -20 468 -20 c 0,19,20
EndSplineSet
Validated: 1
EndChar

StartChar: b
Encoding: 98 98 68
Width: 1210
GlyphClass: 2
Flags: W
HStem: -20 140<523.118 771.165> 980 140<684.995 931.008> 1510 20G<708.768 765>
VStem: 218 275<167.413 454.992> 956 290<646.805 933.119>
DStem2: 136.089 -20 435.634 -20 0.207912 0.978148<358.557 1048.18 1178.73 1443.5> 770.264 -20 1085.81 -20 0.207912 0.978148<264.957 872.472>
LayerCount: 2
Fore
SplineSet
496 264 m 2,0,1
 493 249 493 249 493 236 c 0,2,3
 493 192 493 192 524 161 c 0,4,5
 566 120 566 120 640.5 120 c 128,-1,6
 715 120 715 120 766.5 160.5 c 128,-1,7
 818 201 818 201 831 265 c 2,8,-1
 952 835 l 2,9,10
 956 853 956 853 956 870 c 0,11,12
 956 912 956 912 932 940 c 0,13,14
 898 980 898 980 823 980 c 128,-1,15
 748 980 748 980 689.5 939 c 128,-1,16
 631 898 631 898 618 836 c 2,17,-1
 496 264 l 2,0,1
640 -20 m 0,18,19
 424 -20 424 -20 312 102 c 0,20,21
 218 204 218 204 218 328 c 0,22,23
 218 365 218 365 226 403 c 2,24,-1
 436 1392 l 1,25,-1
 755 1530 l 1,26,-1
 765 1530 l 1,27,-1
 668 1072 l 1,28,29
 749 1120 749 1120 843 1120 c 0,30,31
 1041 1120 1041 1120 1153 998 c 0,32,33
 1246 897 1246 897 1246 772 c 0,34,35
 1246 735 1246 735 1238 696 c 2,36,-1
 1176 403 l 2,37,38
 1132 197 1132 197 1001 101 c 0,39,40
 836 -20 836 -20 640 -20 c 0,18,19
EndSplineSet
Validated: 1
EndChar

StartChar: c
Encoding: 99 99 69
Width: 1110
GlyphClass: 2
Flags: W
HStem: -20 140<509.685 752.261> 980 140<666.218 910.067>
VStem: 198 283<167.469 403> 938 276<781 930.617>
DStem2: 116.089 -20 425.909 -20 0.207912 0.978148<358.557 966.438>
LayerCount: 2
Fore
SplineSet
621 -20 m 0,0,1
 406 -20 406 -20 292 102 c 0,2,3
 198 203 198 203 198 328 c 0,4,5
 198 365 198 365 206 403 c 2,6,-1
 268 697 l 2,7,8
 312 904 312 904 442 999 c 0,9,10
 608 1120 608 1120 802 1120 c 0,11,12
 1012 1120 1012 1120 1125 993 c 0,13,14
 1210 896 1210 896 1214 781 c 1,15,-1
 902 646 l 1,16,-1
 892 646 l 1,17,-1
 934 842 l 2,18,19
 938 861 938 861 938 874 c 0,20,21
 938 916 938 916 909 942 c 0,22,23
 867 980 867 980 800 980 c 0,24,25
 731 980 731 980 674 941 c 0,26,27
 623 906 623 906 609 842 c 2,28,-1
 485 258 l 2,29,30
 481 239 481 239 481 226 c 0,31,32
 481 184 481 184 510 158 c 0,33,34
 552 120 552 120 619 120 c 0,35,36
 688 120 688 120 745 159 c 0,37,38
 797 194 797 194 810 258 c 2,39,-1
 823 320 l 1,40,-1
 1159 465 l 1,41,-1
 1169 465 l 1,42,-1
 1157 410 l 2,43,44
 1111 198 1111 198 982 103 c 0,45,46
 816 -20 816 -20 621 -20 c 0,0,1
EndSplineSet
Validated: 1
EndChar

StartChar: d
Encoding: 100 100 70
Width: 1210
GlyphClass: 2
Flags: W
HStem: -20 140<513.35 759.313> 980 140<674.739 920.232> 1510 20G<1338.77 1395>
VStem: 198 289<165.201 454.984>
DStem2: 115.81 -20 430.421 -20 0.207912 0.978148<356.66 964.982> 766.052 -20 1066.09 -20 0.207912 0.978148<263.158 902.737 1116.36 1443.51>
LayerCount: 2
Fore
SplineSet
948 836 m 2,0,1
 951 851 951 851 951 864 c 0,2,3
 951 908 951 908 920 939 c 0,4,5
 878 980 878 980 803.5 980 c 128,-1,6
 729 980 729 980 677.5 939.5 c 128,-1,7
 626 899 626 899 612 835 c 2,8,-1
 491 265 l 2,9,10
 487 247 487 247 487 230 c 0,11,12
 487 188 487 188 512 160 c 0,13,14
 547 120 547 120 621.5 120 c 128,-1,15
 696 120 696 120 754.5 161 c 128,-1,16
 813 202 813 202 826 264 c 2,17,-1
 948 836 l 2,0,1
622 -20 m 0,18,19
 404 -20 404 -20 291 101 c 0,20,21
 198 201 198 201 198 326 c 0,22,23
 198 363 198 363 206 403 c 2,24,-1
 268 696 l 2,25,26
 312 902 312 902 441 998 c 0,27,28
 605 1120 605 1120 803 1120 c 0,29,30
 931 1120 931 1120 998 1072 c 1,31,-1
 1066 1392 l 1,32,-1
 1385 1530 l 1,33,-1
 1395 1530 l 1,34,-1
 1156 403 l 2,35,36
 1113 199 1113 199 982 102 c 0,37,38
 818 -20 818 -20 622 -20 c 0,18,19
EndSplineSet
Validated: 1
EndChar

StartChar: e
Encoding: 101 101 71
Width: 1190
GlyphClass: 2
Flags: W
HStem: -20 140<509.685 752.261> 980 140<666.32 909.902>
VStem: 198 283<166.992 360.352> 938 277<671.336 935.891>
DStem2: 116.089 -20 425.909 -20 0.207912 0.978148<358.557 449.829 612.423 966.438> 540 516 506 357 0.918183 0.396157<0 390.114>
LayerCount: 2
Fore
SplineSet
621 -20 m 0,0,1
 406 -20 406 -20 292 102 c 0,2,3
 198 203 198 203 198 328 c 0,4,5
 198 365 198 365 206 403 c 2,6,-1
 268 697 l 2,7,8
 312 904 312 904 442 999 c 0,9,10
 608 1120 608 1120 802.5 1120 c 128,-1,11
 997 1120 997 1120 1125 993 c 0,12,13
 1215 904 1215 904 1215 764 c 0,14,15
 1215 729 1215 729 1206 688 c 2,16,-1
 1199 656 l 1,17,-1
 506 357 l 1,18,-1
 485 258 l 2,19,20
 481 239 481 239 481 226 c 0,21,22
 481 184 481 184 510 158 c 0,23,24
 552 120 552 120 619 120 c 0,25,26
 688 120 688 120 745 159 c 0,27,28
 797 194 797 194 810 258 c 2,29,-1
 823 320 l 1,30,-1
 1159 465 l 1,31,-1
 1169 465 l 1,32,-1
 1157 410 l 2,33,34
 1111 198 1111 198 982 103 c 0,35,36
 816 -20 816 -20 621 -20 c 0,0,1
540 516 m 1,37,-1
 898 671 l 1,38,-1
 934 842 l 2,39,40
 938 859 938 859 938 874 c 0,41,42
 938 916 938 916 909 942 c 0,43,44
 867 980 867 980 800 980 c 128,-1,45
 733 980 733 980 674 941 c 0,46,47
 623 906 623 906 609 842 c 2,48,-1
 540 516 l 1,37,-1
EndSplineSet
Validated: 1
EndChar

StartChar: f
Encoding: 102 102 72
Width: 860
GlyphClass: 2
Flags: W
HStem: -20 21G<136 192.232> 732 140<625 905> 1370 140<769.589 1079>
DStem2: 136 -20 435.667 -20 0.207912 0.978148<203.387 831.206 974.176 1359.74>
LayerCount: 2
Fore
SplineSet
146 -20 m 1,0,-1
 136 -20 l 1,1,-1
 369 1076 l 2,2,3
 414 1288 414 1288 545 1386 c 0,4,5
 711 1510 711 1510 906 1510 c 2,6,-1
 1171 1510 l 1,7,-1
 1169 1500 l 1,8,-1
 1079 1370 l 1,9,-1
 906 1370 l 2,10,11
 830 1370 830 1370 771 1329 c 0,12,13
 713 1288 713 1288 700 1225 c 2,14,-1
 625 872 l 1,15,-1
 996 872 l 1,16,-1
 994 862 l 1,17,-1
 905 732 l 1,18,-1
 596 732 l 1,19,-1
 465 118 l 1,20,-1
 146 -20 l 1,0,-1
EndSplineSet
Validated: 1
EndChar

StartChar: g
Encoding: 103 103 73
Width: 1210
GlyphClass: 2
Flags: W
HStem: -410 140<265 673.95> -20 140<511.77 759.969> 980 140<673 920.464>
VStem: 198 289<167.957 403> 951 275<697 932.043>
DStem2: 33.1915 -410 347.524 -410 0.207912 0.978148<762.009 1365.15> 682.9 -410 982.75 -410 0.207912 0.978148<262.784 447.785 578.333 1263.22>
LayerCount: 2
Fore
SplineSet
605 -20 m 0,0,1
 405 -20 405 -20 292 102 c 0,2,3
 198 203 198 203 198 333 c 0,4,5
 198 365 198 365 206 403 c 2,6,-1
 268 697 l 2,7,8
 312 904 312 904 442 999 c 0,9,10
 609 1120 609 1120 804 1120 c 0,11,12
 1018 1120 1018 1120 1132 998 c 0,13,14
 1226 897 1226 897 1226 767 c 0,15,16
 1226 735 1226 735 1218 697 c 2,17,-1
 1075 24 l 2,18,19
 1029 -194 1029 -194 899 -289 c 0,20,21
 732 -410 732 -410 538 -410 c 2,22,-1
 173 -410 l 1,23,-1
 175 -400 l 1,24,-1
 265 -270 l 1,25,-1
 538 -270 l 2,26,27
 614 -270 614 -270 672 -229 c 0,28,29
 729 -188 729 -188 743 -125 c 2,30,-1
 776 28 l 1,31,32
 691 -20 691 -20 605 -20 c 0,0,1
948 836 m 2,33,34
 951 851 951 851 951 864 c 0,35,36
 951 908 951 908 920 939 c 0,37,38
 878 980 878 980 803.5 980 c 128,-1,39
 729 980 729 980 677.5 939.5 c 128,-1,40
 626 899 626 899 612 835 c 2,41,-1
 491 265 l 2,42,43
 487 247 487 247 487 230 c 0,44,45
 487 188 487 188 512 160 c 0,46,47
 547 120 547 120 621.5 120 c 128,-1,48
 696 120 696 120 754.5 161 c 128,-1,49
 813 202 813 202 826 264 c 2,50,-1
 948 836 l 2,33,34
EndSplineSet
Validated: 1
EndChar

StartChar: h
Encoding: 104 104 74
Width: 1250
GlyphClass: 2
Flags: W
HStem: -20 21G<156 212.232 806 862.232> 979 141<704.261 959.369> 1510 20G<728.768 785>
VStem: 990 278<767.462 937.09>
DStem2: 156 -20 455.667 -20 0.207912 0.978148<203.387 1047.22 1178.75 1443.52> 806 -20 1105.67 -20 0.207912 0.978148<203.387 880.223>
LayerCount: 2
Fore
SplineSet
166 -20 m 1,0,-1
 156 -20 l 1,1,-1
 456 1392 l 1,2,-1
 775 1530 l 1,3,-1
 785 1530 l 1,4,-1
 688 1072 l 1,5,6
 775 1120 775 1120 873 1120 c 0,7,8
 1071 1120 1071 1120 1183 998 c 0,9,10
 1268 907 1268 907 1268 783 c 0,11,12
 1268 741 1268 741 1258 696 c 2,13,-1
 1135 118 l 1,14,-1
 816 -20 l 1,15,-1
 806 -20 l 1,16,-1
 987 834 l 2,17,18
 990 850 990 850 990 865 c 0,19,20
 990 909 990 909 959 938 c 0,21,22
 916 979 916 979 842 979 c 128,-1,23
 768 979 768 979 709.5 938 c 128,-1,24
 651 897 651 897 637 835 c 2,25,-1
 485 118 l 1,26,-1
 166 -20 l 1,0,-1
EndSplineSet
Validated: 1
EndChar

StartChar: i
Encoding: 105 105 75
Width: 620
GlyphClass: 2
Flags: W
HStem: -20 21G<156 212.232> 1100 20G<641.768 698> 1179 365<511.097 687.323>
VStem: 156 628
DStem2: 156 -20 455.667 -20 0.207912 0.978148<203.387 1024.39>
LayerCount: 2
Fore
SplineSet
638 1544 m 0,0,1
 714 1544 714 1544 755 1491 c 0,2,3
 784 1453 784 1453 784 1402 c 0,4,5
 784 1383 784 1383 780 1362 c 0,6,7
 764 1287 764 1287 699.5 1233 c 128,-1,8
 635 1179 635 1179 561 1179 c 0,9,10
 485 1179 485 1179 445 1233 c 0,11,12
 415 1272 415 1272 415 1322 c 0,13,14
 415 1341 415 1341 419 1361 c 0,15,16
 435 1437 435 1437 499 1490 c 0,17,18
 563 1544 563 1544 638 1544 c 0,0,1
166 -20 m 1,19,-1
 156 -20 l 1,20,-1
 369 982 l 1,21,-1
 688 1120 l 1,22,-1
 698 1120 l 1,23,-1
 485 118 l 1,24,-1
 166 -20 l 1,19,-1
EndSplineSet
Validated: 1
EndChar

StartChar: j
Encoding: 106 106 76
Width: 620
GlyphClass: 2
Flags: W
HStem: -410 21G<-162 12.5> 1100 20G<641.768 698> 1179 365<511.097 687.323>
DStem2: 73.1213 -410 372.788 -410 0.207912 0.978148<283.108 1423.1>
LayerCount: 2
Fore
SplineSet
-162 -410 m 1,0,-1
 -160 -400 l 1,1,-1
 -77 -280 l 1,2,3
 6 -275 6 -275 63 -232 c 0,4,5
 120 -188 120 -188 134 -120 c 2,6,-1
 369 982 l 1,7,-1
 688 1120 l 1,8,-1
 698 1120 l 1,9,-1
 469 41 l 2,10,11
 418 -200 418 -200 242 -315 c 0,12,13
 97 -410 97 -410 -72 -410 c 2,14,-1
 -162 -410 l 1,0,-1
638 1544 m 0,15,16
 714 1544 714 1544 755 1491 c 0,17,18
 784 1453 784 1453 784 1402 c 0,19,20
 784 1383 784 1383 780 1362 c 0,21,22
 764 1287 764 1287 699.5 1233 c 128,-1,23
 635 1179 635 1179 561 1179 c 0,24,25
 485 1179 485 1179 445 1233 c 0,26,27
 415 1272 415 1272 415 1322 c 0,28,29
 415 1341 415 1341 419 1361 c 0,30,31
 435 1437 435 1437 499 1490 c 0,32,33
 563 1544 563 1544 638 1544 c 0,15,16
EndSplineSet
Validated: 1
EndChar

StartChar: k
Encoding: 107 107 77
Width: 1210
GlyphClass: 2
Flags: W
HStem: -20 21G<156 212.232 786 842.232> 1100 20G<1117.47 1199.89> 1510 20G<728.768 785>
VStem: 906 281<466.054 638.997>
DStem2: 156 -20 455.667 -20 0.207912 0.978148<203.387 746.612 921.026 1443.52> 634 820 642 640 0.854298 0.519784<205.443 598.461>
LayerCount: 2
Fore
SplineSet
166 -20 m 1,0,-1
 156 -20 l 1,1,-1
 456 1392 l 1,2,-1
 775 1530 l 1,3,-1
 785 1530 l 1,4,-1
 634 820 l 1,5,-1
 1152 1120 l 1,6,-1
 1162 1120 l 1,7,-1
 1306 1044 l 1,8,-1
 883 806 l 1,9,10
 1024 787 1024 787 1101 709 c 0,11,12
 1187 622 1187 622 1187 497 c 0,13,14
 1187 455 1187 455 1177 408 c 2,15,-1
 1115 118 l 1,16,-1
 796 -20 l 1,17,-1
 786 -20 l 1,18,-1
 903 532 l 2,19,20
 906 546 906 546 906 563 c 0,21,22
 906 608 906 608 875 640 c 0,23,24
 833 682 833 682 766 682 c 0,25,26
 698 682 698 682 642 640 c 0,27,28
 587 599 587 599 573 532 c 2,29,-1
 485 118 l 1,30,-1
 166 -20 l 1,0,-1
EndSplineSet
Validated: 1
EndChar

StartChar: l
Encoding: 108 108 78
Width: 620
GlyphClass: 2
Flags: W
HStem: -20 21G<156 212.232> 1510 20G<728.768 785>
VStem: 156 629
DStem2: 156 -20 455.667 -20 0.207912 0.978148<203.387 1443.52>
LayerCount: 2
Fore
SplineSet
166 -20 m 1,0,-1
 156 -20 l 1,1,-1
 456 1392 l 1,2,-1
 775 1530 l 1,3,-1
 785 1530 l 1,4,-1
 485 118 l 1,5,-1
 166 -20 l 1,0,-1
EndSplineSet
Validated: 1
EndChar

StartChar: m
Encoding: 109 109 79
Width: 1880
GlyphClass: 2
Flags: W
HStem: -20 21G<136 192.232 786 842.232 1436 1492.23> 979 141<685.534 938.361 1334.83 1590.37>
VStem: 1620 276<696 932.141>
DStem2: 136 -20 435.667 -20 0.207912 0.978148<203.387 966.456> 786 -20 1085.67 -20 0.207912 0.978148<203.387 903.397> 1436 -20 1735.67 -20 0.207912 0.978148<203.387 865.379>
LayerCount: 2
Fore
SplineSet
146 -20 m 1,0,-1
 136 -20 l 1,1,-1
 288 697 l 2,2,3
 332 904 332 904 462 999 c 0,4,5
 628 1120 628 1120 823 1120 c 0,6,7
 1013 1120 1013 1120 1123 1007 c 1,8,9
 1284 1120 1284 1120 1473 1120 c 0,10,11
 1691 1120 1691 1120 1803 998 c 0,12,13
 1896 897 1896 897 1896 768 c 0,14,15
 1896 734 1896 734 1888 696 c 2,16,-1
 1765 118 l 1,17,-1
 1446 -20 l 1,18,-1
 1436 -20 l 1,19,-1
 1617 834 l 2,20,21
 1620 848 1620 848 1620 865 c 0,22,23
 1620 909 1620 909 1589 938 c 0,24,25
 1546 979 1546 979 1472 979 c 128,-1,26
 1398 979 1398 979 1340 938 c 0,27,28
 1280 896 1280 896 1267 835 c 2,29,-1
 1115 118 l 1,30,-1
 796 -20 l 1,31,-1
 786 -20 l 1,32,-1
 967 834 l 2,33,34
 970 848 970 848 970 865 c 0,35,36
 970 909 970 909 939 938 c 0,37,38
 896 979 896 979 822 979 c 128,-1,39
 748 979 748 979 690 938 c 0,40,41
 630 896 630 896 617 835 c 2,42,-1
 465 118 l 1,43,-1
 146 -20 l 1,0,-1
EndSplineSet
Validated: 1
EndChar

StartChar: n
Encoding: 110 110 80
Width: 1230
GlyphClass: 2
Flags: W
HStem: -20 21G<136 192.232 786 842.232> 979 141<685.534 940.372>
VStem: 970 276<696 932.043>
DStem2: 136 -20 435.667 -20 0.207912 0.978148<203.387 966.456> 786 -20 1085.67 -20 0.207912 0.978148<203.387 864.431>
LayerCount: 2
Fore
SplineSet
146 -20 m 1,0,-1
 136 -20 l 1,1,-1
 288 697 l 2,2,3
 332 904 332 904 462 999 c 0,4,5
 628 1120 628 1120 823 1120 c 0,6,7
 1041 1120 1041 1120 1153 998 c 0,8,9
 1246 897 1246 897 1246 767 c 0,10,11
 1246 734 1246 734 1238 696 c 2,12,-1
 1115 118 l 1,13,-1
 796 -20 l 1,14,-1
 786 -20 l 1,15,-1
 967 834 l 2,16,17
 970 848 970 848 970 865 c 0,18,19
 970 909 970 909 939 938 c 0,20,21
 896 979 896 979 822 979 c 128,-1,22
 748 979 748 979 690 938 c 0,23,24
 630 896 630 896 617 835 c 2,25,-1
 465 118 l 1,26,-1
 146 -20 l 1,0,-1
EndSplineSet
Validated: 1
EndChar

StartChar: o
Encoding: 111 111 81
Width: 1190
GlyphClass: 2
Flags: W
HStem: -20 140<509.023 757.307> 980 140<666.859 914.977>
VStem: 198 283<166.992 449.281> 943 283<650.719 933.008>
DStem2: 116.089 -20 425.909 -20 0.207912 0.978148<358.557 966.438> 755.776 -20 1065.6 -20 0.207912 0.978148<263.811 871.326>
LayerCount: 2
Fore
SplineSet
621.5 120 m 128,-1,1
 691 120 691 120 750 159 c 0,2,3
 801 194 801 194 815 258 c 2,4,-1
 939 842 l 2,5,6
 943 859 943 859 943 874 c 0,7,8
 943 916 943 916 914 942 c 0,9,10
 872 980 872 980 802.5 980 c 128,-1,11
 733 980 733 980 674 941 c 0,12,13
 623 906 623 906 609 842 c 2,14,-1
 485 258 l 2,15,16
 481 241 481 241 481 226 c 0,17,18
 481 184 481 184 510 158 c 0,19,0
 552 120 552 120 621.5 120 c 128,-1,1
620 -20 m 0,20,21
 404 -20 404 -20 292 102 c 0,22,23
 198 203 198 203 198 328 c 0,24,25
 198 365 198 365 206 403 c 2,26,-1
 268 697 l 2,27,28
 312 904 312 904 442 999 c 0,29,30
 609 1120 609 1120 804 1120 c 0,31,32
 1020 1120 1020 1120 1132 998 c 0,33,34
 1226 897 1226 897 1226 772 c 0,35,36
 1226 735 1226 735 1218 697 c 2,37,-1
 1156 403 l 2,38,39
 1112 197 1112 197 981 101 c 0,40,41
 816 -20 816 -20 620 -20 c 0,20,21
EndSplineSet
Validated: 1
EndChar

StartChar: p
Encoding: 112 112 82
Width: 1210
GlyphClass: 2
Flags: W
HStem: -430 21G<49 105.232> -20 140<523.768 769.26> 980 140<684.687 933.18>
VStem: 956 290<645.016 933.619>
DStem2: 49 -430 348.667 -430 0.207912 0.978148<203.387 530.533 744.157 1383.74> 683.116 -430 998.449 -430 0.207912 0.978148<685.265 1292.61>
LayerCount: 2
Fore
SplineSet
496 264 m 2,0,1
 493 249 493 249 493 236 c 0,2,3
 493 192 493 192 524 161 c 0,4,5
 566 120 566 120 640.5 120 c 128,-1,6
 715 120 715 120 766.5 160.5 c 128,-1,7
 818 201 818 201 831 265 c 2,8,-1
 952 835 l 2,9,10
 956 853 956 853 956 870 c 0,11,12
 956 912 956 912 932 940 c 0,13,14
 898 980 898 980 823 980 c 128,-1,15
 748 980 748 980 689.5 939 c 128,-1,16
 631 898 631 898 618 836 c 2,17,-1
 496 264 l 2,0,1
59 -430 m 1,18,-1
 49 -430 l 1,19,-1
 288 697 l 2,20,21
 331 901 331 901 462 998 c 0,22,23
 626 1120 626 1120 822 1120 c 0,24,25
 1038 1120 1038 1120 1152 999 c 0,26,27
 1246 898 1246 898 1246 773 c 0,28,29
 1246 736 1246 736 1238 697 c 2,30,-1
 1176 404 l 2,31,32
 1132 198 1132 198 1003 102 c 0,33,34
 839 -20 839 -20 641 -20 c 0,35,36
 513 -20 513 -20 446 28 c 1,37,-1
 378 -292 l 1,38,-1
 59 -430 l 1,18,-1
EndSplineSet
Validated: 1
EndChar

StartChar: q
Encoding: 113 113 83
Width: 1210
GlyphClass: 2
Flags: W
HStem: -430 21G<679 735.232> -20 140<513.008 759.782> 980 140<672.775 920.882>
VStem: 198 289<166.881 453.195> 951 275<645.008 932.587>
DStem2: 28.7278 -430 343.273 -430 0.207912 0.978148<777.761 1385.19> 679 -430 978.667 -430 0.207912 0.978148<203.387 468.159 598.707 1288.33>
LayerCount: 2
Fore
SplineSet
948 836 m 2,0,1
 951 851 951 851 951 864 c 0,2,3
 951 908 951 908 920 939 c 0,4,5
 878 980 878 980 803.5 980 c 128,-1,6
 729 980 729 980 677.5 939.5 c 128,-1,7
 626 899 626 899 612 835 c 2,8,-1
 491 265 l 2,9,10
 487 247 487 247 487 230 c 0,11,12
 487 188 487 188 512 160 c 0,13,14
 547 120 547 120 621.5 120 c 128,-1,15
 696 120 696 120 754.5 161 c 128,-1,16
 813 202 813 202 826 264 c 2,17,-1
 948 836 l 2,0,1
689 -430 m 1,18,-1
 679 -430 l 1,19,-1
 776 28 l 1,20,21
 689 -20 689 -20 601 -20 c 0,22,23
 403 -20 403 -20 291 102 c 0,24,25
 198 203 198 203 198 328 c 0,26,27
 198 365 198 365 206 404 c 2,28,-1
 268 697 l 2,29,30
 312 903 312 903 442 999 c 0,31,32
 608 1120 608 1120 804 1120 c 0,33,34
 1020 1120 1020 1120 1132 998 c 0,35,36
 1226 896 1226 896 1226 772 c 0,37,38
 1226 735 1226 735 1218 697 c 2,39,-1
 1008 -292 l 1,40,-1
 689 -430 l 1,18,-1
EndSplineSet
Validated: 1
EndChar

StartChar: r
Encoding: 114 114 84
Width: 860
GlyphClass: 2
Flags: W
HStem: -20 21G<136 192.232> 960 140<683.05 992>
DStem2: 136 -20 435.667 -20 0.207912 0.978148<203.387 946.062>
LayerCount: 2
Fore
SplineSet
146 -20 m 1,0,-1
 136 -20 l 1,1,-1
 284 677 l 2,2,3
 328 884 328 884 458 979 c 0,4,5
 625 1100 625 1100 819 1100 c 2,6,-1
 1084 1100 l 1,7,-1
 1082 1090 l 1,8,-1
 992 960 l 1,9,-1
 819 960 l 2,10,11
 742 960 742 960 684 919 c 0,12,13
 626 877 626 877 613 815 c 2,14,-1
 465 118 l 1,15,-1
 146 -20 l 1,0,-1
EndSplineSet
Validated: 1
EndChar

StartChar: t
Encoding: 116 116 85
Width: 890
GlyphClass: 2
Flags: W
HStem: -20 21G<296 352.26> 960 140<306 504 819 1022> 1510 20G<853.74 910>
DStem2: 296 -20 581.155 -20 0.207912 0.978148<193.214 1001.83 1204.26 1450.57>
LayerCount: 2
Fore
SplineSet
306 -20 m 1,0,-1
 296 -20 l 1,1,-1
 504 960 l 1,2,-1
 214 960 l 1,3,-1
 216 970 l 1,4,-1
 306 1100 l 1,5,-1
 534 1100 l 1,6,-1
 597 1399 l 1,7,-1
 900 1530 l 1,8,-1
 910 1530 l 1,9,-1
 819 1100 l 1,10,-1
 1114 1100 l 1,11,-1
 1112 1090 l 1,12,-1
 1022 960 l 1,13,-1
 789 960 l 1,14,-1
 609 111 l 1,15,-1
 306 -20 l 1,0,-1
EndSplineSet
Validated: 1
EndChar

StartChar: u
Encoding: 117 117 86
Width: 1230
GlyphClass: 2
Flags: W
HStem: -20 142<525.332 778.421> 1100 20G<621.768 678 1271.77 1328>
VStem: 218 276<162.941 404>
DStem2: 135.876 -20 436.209 -20 0.207912 0.978148<363.371 1024.41> 786.018 -20 1085.69 -20 0.207912 0.978148<261.316 1024.39>
LayerCount: 2
Fore
SplineSet
641 -20 m 0,0,1
 418 -20 418 -20 306 102 c 0,2,3
 218 198 218 198 218 333 c 0,4,5
 218 366 218 366 226 404 c 2,6,-1
 349 982 l 1,7,-1
 668 1120 l 1,8,-1
 678 1120 l 1,9,-1
 497 266 l 2,10,11
 494 252 494 252 494 235 c 0,12,13
 494 192 494 192 525 162 c 0,14,15
 567 122 567 122 642 122 c 128,-1,16
 717 122 717 122 774 162 c 0,17,18
 833 204 833 204 846 265 c 2,19,-1
 999 982 l 1,20,-1
 1318 1120 l 1,21,-1
 1328 1120 l 1,22,-1
 1176 403 l 2,23,24
 1132 196 1132 196 1002 101 c 0,25,26
 836 -20 836 -20 641 -20 c 0,0,1
EndSplineSet
Validated: 1
EndChar

StartChar: v
Encoding: 118 118 87
Width: 1108
GlyphClass: 2
Flags: W
HStem: -20 21G<408.207 468.25> 1100 20G<441.846 501.774 1177.14 1239.08>
DStem2: 498 1120 218 1003 0.186318 -0.98249<62.7823 846.683> 655 288 718 108 0.540892 0.841092<0 989.166>
LayerCount: 2
Fore
SplineSet
422 -20 m 1,0,-1
 412 -20 l 1,1,-1
 218 1003 l 1,2,-1
 488 1120 l 1,3,-1
 498 1120 l 1,4,-1
 655 288 l 1,5,-1
 1190 1120 l 1,6,-1
 1200 1120 l 1,7,-1
 1327 1055 l 1,8,-1
 718 108 l 1,9,-1
 422 -20 l 1,0,-1
EndSplineSet
Validated: 1
EndChar

StartChar: w
Encoding: 119 119 88
Width: 1880
GlyphClass: 2
Flags: W
HStem: -20 142<524.877 779.304 1175.62 1428.6> 1100 20G<621.768 678 1271.77 1328 1921.77 1978>
VStem: 218 276<173.5 404>
DStem2: 135.876 -20 436.209 -20 0.207912 0.978148<362.453 1024.41> 785.421 -20 1086.21 -20 0.207912 0.978148<324.439 1024.51> 1436.02 -20 1735.69 -20 0.207912 0.978148<261.316 1024.39>
LayerCount: 2
Fore
SplineSet
641 -20 m 0,0,1
 428 -20 428 -20 316 102 c 0,2,3
 218 208 218 208 218 332 c 0,4,5
 218 367 218 367 226 404 c 2,6,-1
 349 982 l 1,7,-1
 668 1120 l 1,8,-1
 678 1120 l 1,9,-1
 497 266 l 2,10,11
 494 250 494 250 494 235 c 0,12,13
 494 192 494 192 525 162 c 0,14,15
 567 122 567 122 642 122 c 128,-1,16
 717 122 717 122 774.5 162.5 c 128,-1,17
 832 203 832 203 846 265 c 2,18,-1
 999 982 l 1,19,-1
 1318 1120 l 1,20,-1
 1328 1120 l 1,21,-1
 1147 266 l 2,22,23
 1144 250 1144 250 1144 235 c 0,24,25
 1144 192 1144 192 1175 162 c 0,26,27
 1217 122 1217 122 1292 122 c 128,-1,28
 1367 122 1367 122 1424.5 162.5 c 128,-1,29
 1482 203 1482 203 1496 265 c 2,30,-1
 1649 982 l 1,31,-1
 1968 1120 l 1,32,-1
 1978 1120 l 1,33,-1
 1826 403 l 2,34,35
 1782 196 1782 196 1652 101 c 0,36,37
 1486 -20 1486 -20 1291 -20 c 0,38,39
 1101 -20 1101 -20 991 93 c 1,40,41
 830 -20 830 -20 641 -20 c 0,0,1
EndSplineSet
Validated: 1
EndChar

StartChar: x
Encoding: 120 120 89
Width: 984
GlyphClass: 2
Flags: W
HStem: -20 21G<105.846 173.442 720.203 786.667> 1100 20G<430.761 496.798 1046.56 1113.54>
DStem2: 20 45 154 -20 0.697373 0.716708<46.862 596.339 947.609 1499.91> 487 1120 225 1011 0.439538 -0.898224<0 440.967 692.052 1130.78>
LayerCount: 2
Fore
SplineSet
154 -20 m 1,0,-1
 144 -20 l 1,1,-1
 20 45 l 1,2,-1
 471 509 l 1,3,-1
 225 1011 l 1,4,-1
 477 1120 l 1,5,-1
 487 1120 l 1,6,-1
 681 724 l 1,7,-1
 1066 1120 l 1,8,-1
 1076 1120 l 1,9,-1
 1198 1055 l 1,10,-1
 746 590 l 1,11,-1
 992 88 l 1,12,-1
 740 -20 l 1,13,-1
 730 -20 l 1,14,-1
 537 374 l 1,15,-1
 154 -20 l 1,0,-1
EndSplineSet
Validated: 1
EndChar

StartChar: y
Encoding: 121 121 90
Width: 1250
GlyphClass: 2
Flags: W
HStem: -410 140<285 693.95> -20 140<523.053 782.333> 1100 20G<621.768 678 1271.77 1328>
VStem: 218 274<167.957 403>
DStem2: 53.1915 -410 353.012 -410 0.207912 0.978148<762.009 1423.08> 702.9 -410 1002.75 -410 0.207912 0.978148<262.784 447.785 574.692 1423.14>
LayerCount: 2
Fore
SplineSet
625 -20 m 0,0,1
 426 -20 426 -20 312 102 c 0,2,3
 218 203 218 203 218 333 c 0,4,5
 218 365 218 365 226 403 c 2,6,-1
 349 982 l 1,7,-1
 668 1120 l 1,8,-1
 678 1120 l 1,9,-1
 495 258 l 2,10,11
 492 244 492 244 492 231 c 0,12,13
 492 188 492 188 525 158 c 0,14,15
 567 120 567 120 641.5 120 c 128,-1,16
 716 120 716 120 775 159 c 0,17,18
 832 198 832 198 845 258 c 2,19,-1
 999 982 l 1,20,-1
 1318 1120 l 1,21,-1
 1328 1120 l 1,22,-1
 1095 24 l 2,23,24
 1049 -194 1049 -194 919 -289 c 0,25,26
 752 -410 752 -410 558 -410 c 2,27,-1
 193 -410 l 1,28,-1
 195 -400 l 1,29,-1
 285 -270 l 1,30,-1
 558 -270 l 2,31,32
 634 -270 634 -270 692 -229 c 0,33,34
 749 -188 749 -188 763 -125 c 2,35,-1
 796 28 l 1,36,37
 711 -20 711 -20 625 -20 c 0,0,1
EndSplineSet
Validated: 1
EndChar

StartChar: z
Encoding: 122 122 91
Width: 974
GlyphClass: 2
Flags: W
HStem: 0 140<454 902> 960 140<338 755>
DStem2: 12 10 454 140 0.616062 0.787697<374.7 1206.05>
LayerCount: 2
Fore
SplineSet
10 0 m 1,0,-1
 12 10 l 1,1,-1
 755 960 l 1,2,-1
 246 960 l 1,3,-1
 248 970 l 1,4,-1
 338 1100 l 1,5,-1
 1198 1100 l 1,6,-1
 1196 1090 l 1,7,-1
 454 140 l 1,8,-1
 994 140 l 1,9,-1
 992 130 l 1,10,-1
 902 0 l 1,11,-1
 10 0 l 1,0,-1
EndSplineSet
Validated: 1
EndChar

StartChar: braceleft
Encoding: 123 123 92
Width: 830
GlyphClass: 2
Flags: W
HStem: -240 150<632.238 749> 680 150<253 379> 1599 151<976.449 1140>
VStem: 280 293<-12.7666 178.317>
DStem2: 182.746 -240 503.18 -240 0.207912 0.978148<418.939 940.699 1093.87 1768.01>
LayerCount: 2
Fore
SplineSet
749 -240 m 1,0,1
 515 -240 515 -240 380 -93 c 0,2,3
 280 17 280 17 280 166 c 0,4,5
 280 218 280 218 292 274 c 2,6,-1
 379 680 l 1,7,-1
 155 680 l 1,8,-1
 157 690 l 1,9,-1
 253 830 l 1,10,-1
 410 830 l 1,11,-1
 497 1236 l 2,12,13
 550 1485 550 1485 711 1604 c 0,14,15
 909 1750 909 1750 1172 1750 c 1,16,-1
 1140 1599 l 1,17,18
 1037 1598 1037 1598 954 1542 c 0,19,20
 869 1483 869 1483 851 1398 c 2,21,-1
 578 112 l 2,22,23
 573 91 573 91 573 71 c 0,24,25
 573 10 573 10 619 -34 c 0,26,27
 677 -90 677 -90 781 -90 c 1,28,-1
 749 -240 l 1,0,1
EndSplineSet
Validated: 1
EndChar

StartChar: bar
Encoding: 124 124 93
Width: 690
GlyphClass: 2
Flags: W
VStem: 167 676
DStem2: 167 -200 437.643 -200 0.207912 0.978148<183.04 1825.98>
LayerCount: 2
Fore
SplineSet
167 -200 m 1,0,-1
 547 1586 l 1,1,-1
 833 1710 l 1,2,-1
 843 1710 l 1,3,-1
 464 -76 l 1,4,-1
 177 -200 l 1,5,-1
 167 -200 l 1,0,-1
EndSplineSet
Validated: 1
EndChar

StartChar: braceright
Encoding: 125 125 94
Width: 830
GlyphClass: 2
Flags: W
HStem: -240 151<11 174.551> 680 150<772 898> 1600 150<402 518.762>
VStem: 578 293<1213.89 1524.1>
DStem2: 225.18 -240 544.746 -240 0.207912 0.978148<332.993 1007.14 1160.31 1682.07>
LayerCount: 2
Fore
SplineSet
-21 -240 m 1,0,-1
 11 -89 l 1,1,2
 114 -88 114 -88 197 -32 c 0,3,4
 282 27 282 27 300 112 c 2,5,-1
 573 1398 l 2,6,7
 578 1419 578 1419 578 1439 c 0,8,9
 578 1500 578 1500 532 1544 c 0,10,11
 474 1600 474 1600 370 1600 c 1,12,-1
 402 1750 l 1,13,14
 636 1750 636 1750 770 1603 c 0,15,16
 871 1493 871 1493 871 1344 c 0,17,18
 871 1292 871 1292 859 1236 c 2,19,-1
 772 830 l 1,20,-1
 996 830 l 1,21,-1
 994 820 l 1,22,-1
 898 680 l 1,23,-1
 741 680 l 1,24,-1
 654 274 l 2,25,26
 600 24 600 24 440 -94 c 0,27,28
 242 -240 242 -240 -21 -240 c 1,0,-1
EndSplineSet
Validated: 1
EndChar

StartChar: asciitilde
Encoding: 126 126 95
Width: 1178
GlyphClass: 2
Flags: W
HStem: 515 212<789.378 1036.55> 785 212<463.066 709.622>
LayerCount: 2
Fore
SplineSet
628 997 m 0,0,1
 809 997 809 997 855 844 c 0,2,3
 872 787 872 787 888 763 c 0,4,5
 912 727 912 727 961 727 c 0,6,7
 1065 727 1065 727 1108 928 c 1,8,-1
 1270 997 l 1,9,-1
 1280 997 l 1,10,11
 1178 515 1178 515 871 515 c 0,12,13
 690 515 690 515 644 668 c 0,14,15
 627 725 627 725 611 749 c 0,16,17
 587 785 587 785 539 785 c 0,18,19
 435 785 435 785 391 584 c 1,20,-1
 229 515 l 1,21,-1
 219 515 l 1,22,23
 322 997 322 997 628 997 c 0,0,1
EndSplineSet
Validated: 1
EndChar

StartChar: exclamdown
Encoding: 161 161 97
Width: 640
GlyphClass: 2
Flags: W
HStem: -430 21G<69 125.395> 755 365<431.097 607.323>
VStem: 69 635
DStem2: 69 -430 388.754 -430 0.207912 0.978148<216.765 1010.07>
LayerCount: 2
Fore
SplineSet
558 1120 m 0,0,1
 634 1120 634 1120 675 1067 c 0,2,3
 704 1029 704 1029 704 978 c 0,4,5
 704 959 704 959 700 938 c 0,6,7
 684 863 684 863 619.5 809 c 128,-1,8
 555 755 555 755 481 755 c 0,9,10
 405 755 405 755 365 809 c 0,11,12
 335 848 335 848 335 898 c 0,13,14
 335 917 335 917 339 937 c 0,15,16
 355 1013 355 1013 419 1066 c 0,17,18
 483 1120 483 1120 558 1120 c 0,0,1
79 -430 m 1,19,-1
 69 -430 l 1,20,-1
 279 558 l 1,21,-1
 620 705 l 1,22,-1
 630 705 l 1,23,-1
 420 -283 l 1,24,-1
 79 -430 l 1,19,-1
EndSplineSet
Validated: 1
EndChar

StartChar: cent
Encoding: 162 162 98
Width: 1110
GlyphClass: 2
Flags: W
VStem: 198 283<167.469 403> 938 276<781 930.617>
DStem2: 94.8329 -120 404.654 -120 0.207912 0.978148<460.791 1068.67> 509 -120 629.16 -120 0.207912 0.978148<77.122 108.466 279.527 1116.37 1286.46 1317.8>
LayerCount: 2
Fore
SplineSet
640 -69 m 1,0,-1
 519 -120 l 1,1,-1
 509 -120 l 1,2,-1
 532 -14 l 1,3,4
 381 7 381 7 292 102 c 0,5,6
 198 203 198 203 198 328 c 0,7,8
 198 365 198 365 206 403 c 2,9,-1
 268 697 l 2,10,11
 312 904 312 904 442 999 c 0,12,13
 595 1111 595 1111 772 1119 c 1,14,-1
 783 1169 l 1,15,-1
 904 1220 l 1,16,-1
 914 1220 l 1,17,-1
 891 1114 l 1,18,19
 1037 1092 1037 1092 1125 993 c 0,20,21
 1210 896 1210 896 1214 781 c 1,22,-1
 902 646 l 1,23,-1
 892 646 l 1,24,-1
 934 842 l 2,25,26
 938 861 938 861 938 874 c 0,27,28
 938 916 938 916 909 942 c 0,29,30
 888 961 888 961 861 970 c 1,31,-1
 682 129 l 1,32,33
 715 139 715 139 745 159 c 0,34,35
 797 194 797 194 810 258 c 2,36,-1
 823 320 l 1,37,-1
 1159 465 l 1,38,-1
 1169 465 l 1,39,-1
 1157 410 l 2,40,41
 1111 198 1111 198 982 103 c 0,42,43
 829 -11 829 -11 651 -19 c 1,44,-1
 640 -69 l 1,0,-1
562 128 m 1,45,-1
 741 972 l 1,46,47
 706 962 706 962 674 941 c 0,48,49
 623 906 623 906 609 842 c 2,50,-1
 485 258 l 2,51,52
 481 239 481 239 481 226 c 0,53,54
 481 184 481 184 510 158 c 0,55,56
 533 137 533 137 562 128 c 1,45,-1
EndSplineSet
Validated: 1
EndChar

StartChar: sterling
Encoding: 163 163 99
Width: 1375
GlyphClass: 2
Flags: W
HStem: 0 150<209 292 612 1198> 625 150<343 393 745 1060> 1402 128<913.541 1127.88>
VStem: 1147 298<1190 1368.34>
DStem2: 260.117 0 580.117 0 0.207912 0.978148<219.883 638.97 858.877 1389.02>
LayerCount: 2
Fore
SplineSet
110 0 m 1,0,-1
 112 10 l 1,1,-1
 209 150 l 1,2,-1
 292 150 l 1,3,-1
 393 625 l 1,4,-1
 244 625 l 1,5,-1
 246 635 l 1,6,-1
 343 775 l 1,7,-1
 425 775 l 1,8,-1
 498 1119 l 2,9,10
 546 1345 546 1345 674 1427 c 0,11,12
 837 1530 837 1530 1028 1530 c 0,13,14
 1233 1530 1233 1530 1351 1426 c 0,15,16
 1445 1343 1445 1343 1445 1202 c 0,17,18
 1445 1196 1445 1196 1445 1190 c 1,19,-1
 1107 1045 l 1,20,-1
 1097 1045 l 1,21,-1
 1141 1253 l 2,22,23
 1147 1281 1147 1281 1147 1306 c 0,24,25
 1146 1348 1146 1348 1126 1369 c 0,26,27
 1094 1402 1094 1402 1033 1402 c 0,28,29
 965 1402 965 1402 920 1372 c 0,30,31
 863 1334 863 1334 846 1253 c 2,32,-1
 745 775 l 1,33,-1
 1160 775 l 1,34,-1
 1158 765 l 1,35,-1
 1060 625 l 1,36,-1
 713 625 l 1,37,-1
 612 150 l 1,38,-1
 1297 150 l 1,39,-1
 1295 140 l 1,40,-1
 1198 0 l 1,41,-1
 110 0 l 1,0,-1
EndSplineSet
Validated: 1
EndChar

StartChar: currency
Encoding: 164 164 100
Width: 1535
GlyphClass: 2
Flags: W
HStem: 180 150<707.914 981.637> 1177 151<871.044 1145.28>
VStem: 346 305<452.241 837.356> 1201 307<670.851 1068.53>
LayerCount: 2
Fore
SplineSet
1018 1177 m 0,0,1
 901 1177 901 1177 817 1086 c 0,2,3
 725 987 725 987 675 754 c 0,4,5
 651 641 651 641 651 558 c 128,-1,6
 651 475 651 475 675 422 c 0,7,8
 715 330 715 330 834 330 c 128,-1,9
 953 330 953 330 1036 422 c 0,10,11
 1128 522 1128 522 1177 754 c 0,12,13
 1201 866 1201 866 1201 949 c 128,-1,14
 1201 1032 1201 1032 1177 1086 c 0,15,16
 1136 1177 1136 1177 1018 1177 c 0,0,1
1676 1215 m 1,17,-1
 1682 1208 l 1,18,-1
 1478 1040 l 1,19,20
 1508 957 1508 957 1508 860 c 0,21,22
 1508 810 1508 810 1500 756 c 0,23,24
 1476 599 1476 599 1378 472 c 1,25,-1
 1510 305 l 1,26,-1
 1501 298 l 1,27,-1
 1172 190 l 1,28,-1
 1122 254 l 1,29,30
 979 180 979 180 812 180 c 128,-1,31
 645 180 645 180 531 260 c 1,32,-1
 467 206 l 1,33,-1
 184 314 l 1,34,-1
 178 321 l 1,35,-1
 372 480 l 1,36,37
 346 559 346 559 346 651 c 0,38,39
 346 702 346 702 354 758 c 0,40,41
 377 912 377 912 478 1041 c 1,42,-1
 347 1209 l 1,43,-1
 355 1216 l 1,44,-1
 682 1323 l 1,45,-1
 736 1256 l 1,46,47
 876 1328 876 1328 1039 1328 c 128,-1,48
 1202 1328 1202 1328 1311 1255 c 1,49,-1
 1394 1323 l 1,50,-1
 1676 1215 l 1,17,-1
EndSplineSet
Validated: 1
EndChar

StartChar: yen
Encoding: 165 165 101
Width: 1270
GlyphClass: 2
Flags: W
HStem: -20 21G<471 527.316> 94 140<321 495 845 1019> 294 140<363 488 983 1061> 1510 20G<668.605 725 1458.61 1515>
VStem: 259 293<620.453 891>
DStem2: 75.361 -20 395.52 -20 0.207912 0.978148<842.556 1434.43> 865.783 -20 1185.54 -20 0.207912 0.978148<735.949 1434.34>
LayerCount: 2
Fore
SplineSet
481 -20 m 1,0,-1
 471 -20 l 1,1,-1
 495 94 l 1,2,-1
 230 94 l 1,3,-1
 232 104 l 1,4,-1
 321 234 l 1,5,-1
 525 234 l 1,6,-1
 537 294 l 1,7,-1
 272 294 l 1,8,-1
 275 304 l 1,9,-1
 363 434 l 1,10,-1
 488 434 l 1,11,12
 417 468 417 468 372 520 c 0,13,14
 259 650 259 650 259 801 c 0,15,16
 259 844 259 844 269 891 c 2,17,-1
 374 1383 l 1,18,-1
 715 1530 l 1,19,-1
 725 1530 l 1,20,-1
 556 735 l 2,21,22
 552 716 552 716 552 697 c 0,23,24
 552 637 552 637 596 585 c 0,25,26
 646 527 646 527 747 527 c 128,-1,27
 848 527 848 527 927 586 c 0,28,29
 1007 645 1007 645 1026 735 c 2,30,-1
 1164 1383 l 1,31,-1
 1505 1530 l 1,32,-1
 1515 1530 l 1,33,-1
 1379 891 l 2,34,35
 1325 637 1325 637 1165 523 c 0,36,37
 1083 464 1083 464 983 434 c 1,38,-1
 1152 434 l 1,39,-1
 1150 424 l 1,40,-1
 1061 294 l 1,41,-1
 857 294 l 1,42,-1
 845 234 l 1,43,-1
 1110 234 l 1,44,-1
 1108 224 l 1,45,-1
 1019 94 l 1,46,-1
 745 94 l 1,47,-1
 481 -20 l 1,0,-1
EndSplineSet
Validated: 1
EndChar

StartChar: brokenbar
Encoding: 166 166 102
Width: 690
GlyphClass: 2
Flags: W
VStem: 167 676
DStem2: 167 -200 437.643 -200 0.207912 0.978148<183.04 806.688 1194.09 1825.98>
LayerCount: 2
Fore
SplineSet
167 -200 m 1,0,-1
 335 589 l 1,1,-1
 622 713 l 1,2,-1
 632 713 l 1,3,-1
 464 -76 l 1,4,-1
 177 -200 l 1,5,-1
 167 -200 l 1,0,-1
833 1710 m 1,6,-1
 843 1710 l 1,7,-1
 674 913 l 1,8,-1
 388 789 l 1,9,-1
 378 789 l 1,10,-1
 547 1586 l 1,11,-1
 833 1710 l 1,6,-1
EndSplineSet
Validated: 1
EndChar

StartChar: section
Encoding: 167 167 103
Width: 1127
GlyphClass: 2
Flags: W
HStem: -20 140<520.633 680.889> 1390 140<767.111 927.367>
VStem: 265 302<624.458 850.049> 427 277<1085.79 1327.32> 744 277<182.678 424.21> 881 302<659.951 885.542>
LayerCount: 2
Fore
SplineSet
584 -20 m 0,0,1
 407 -20 407 -20 322 77 c 0,2,3
 252 157 252 157 246 250 c 1,4,-1
 525 371 l 1,5,-1
 535 371 l 1,6,-1
 514 274 l 2,7,8
 508 246 508 246 508 222 c 0,9,10
 508 190 508 190 519 167 c 0,11,12
 541 120 541 120 596 120 c 0,13,14
 644 120 644 120 680 157 c 0,15,16
 718 195 718 195 736 281 c 0,17,18
 744 320 744 320 744 350 c 0,19,20
 744 397 744 397 723 418 c 0,21,22
 698 444 698 444 619 449 c 0,23,24
 422 461 422 461 334 542 c 0,25,26
 265 606 265 606 265 705 c 0,27,28
 265 723 265 723 267 742 c 0,29,30
 280 866 280 866 363 957 c 1,31,-1
 587 833 l 1,32,33
 580 812 580 812 575 788 c 0,34,35
 567 752 567 752 567 723 c 0,36,37
 567 661 567 661 602 628 c 0,38,39
 637 594 637 594 704 589 c 0,40,41
 867 577 867 577 946 515 c 0,42,43
 1021 457 1021 457 1021 340 c 0,44,45
 1021 320 1021 320 1019 298 c 0,46,47
 1005 148 1005 148 882 64 c 0,48,49
 758 -20 758 -20 584 -20 c 0,0,1
864 1530 m 0,50,51
 1041 1530 1041 1530 1126 1433 c 0,52,53
 1196 1353 1196 1353 1202 1260 c 1,54,-1
 923 1139 l 1,55,-1
 913 1139 l 1,56,-1
 934 1236 l 2,57,58
 940 1264 940 1264 940 1288 c 0,59,60
 940 1320 940 1320 929 1343 c 0,61,62
 907 1390 907 1390 852 1390 c 0,63,64
 804 1390 804 1390 768 1353 c 0,65,66
 730 1315 730 1315 712 1229 c 0,67,68
 704 1190 704 1190 704 1160 c 0,69,70
 704 1113 704 1113 725 1092 c 0,71,72
 750 1066 750 1066 829 1061 c 0,73,74
 1026 1049 1026 1049 1114 968 c 0,75,76
 1183 904 1183 904 1183 805 c 0,77,78
 1183 787 1183 787 1181 768 c 0,79,80
 1168 644 1168 644 1085 553 c 1,81,-1
 861 677 l 1,82,83
 868 698 868 698 873 722 c 0,84,85
 881 758 881 758 881 787 c 0,86,87
 881 849 881 849 846 882 c 0,88,89
 811 916 811 916 744 921 c 0,90,91
 581 933 581 933 502 995 c 0,92,93
 427 1053 427 1053 427 1170 c 0,94,95
 427 1190 427 1190 429 1212 c 0,96,97
 443 1362 443 1362 566 1446 c 0,98,99
 690 1530 690 1530 864 1530 c 0,50,51
EndSplineSet
Validated: 1
EndChar

StartChar: dieresis
Encoding: 168 168 104
Width: 690
GlyphClass: 2
Flags: W
HStem: 1210 297<383.468 545.489 722.984 883.99>
VStem: 315 300<1278.5 1438.97> 653 300<1278.5 1437.11>
LayerCount: 2
Fore
SplineSet
834 1507 m 128,-1,1
 894 1507 894 1507 928 1463 c 0,2,3
 952 1432 952 1432 953 1391 c 0,4,5
 953 1374 953 1374 949 1358 c 0,6,7
 936 1298 936 1298 884 1254 c 128,-1,8
 832 1210 832 1210 771 1210 c 128,-1,9
 710 1210 710 1210 677 1254 c 0,10,11
 653 1286 653 1286 653 1325 c 0,12,13
 653 1341 653 1341 657 1358 c 0,14,15
 669 1417 669 1417 722 1462 c 0,16,0
 774 1507 774 1507 834 1507 c 128,-1,1
495.5 1507 m 128,-1,18
 556 1507 556 1507 590 1463 c 0,19,20
 615 1431 615 1431 615 1391 c 0,21,22
 615 1376 615 1376 611 1358 c 0,23,24
 598 1298 598 1298 545.5 1254 c 128,-1,25
 493 1210 493 1210 433 1210 c 0,26,27
 372 1210 372 1210 339 1254 c 0,28,29
 315 1286 315 1286 315 1325 c 0,30,31
 315 1341 315 1341 319 1358 c 0,32,33
 332 1419 332 1419 383 1462 c 0,34,17
 435 1507 435 1507 495.5 1507 c 128,-1,18
EndSplineSet
Validated: 1
EndChar

StartChar: copyright
Encoding: 169 169 105
Width: 1340
GlyphClass: 2
Flags: W
HStem: 386 52<604.584 925.646> 544 96<739.848 907.286> 1263 95<845.296 1014.34> 1478 52<824.632 1143.39>
VStem: 302 59<686.575 1015.56> 542 188<654.405 922.648> 1024 191<1114 1240.5> 1386 59<900.437 1234>
DStem2: 455.75 386 661.006 386 0.207912 0.978148<390.424 890.71>
LayerCount: 2
Fore
SplineSet
951 1358 m 0,0,1
 1089 1358 1089 1358 1156 1277 c 0,2,3
 1212 1210 1212 1210 1215 1114 c 1,4,-1
 1001 1036 l 1,5,-1
 991 1036 l 1,6,-1
 1022 1183 l 2,7,8
 1024 1193 1024 1193 1024 1202 c 0,9,10
 1024 1225 1024 1225 1010 1241 c 0,11,12
 990 1263 990 1263 944 1263 c 128,-1,13
 898 1263 898 1263 868 1241 c 128,-1,14
 838 1219 838 1219 830 1183 c 2,15,-1
 732 720 l 2,16,17
 730 710 730 710 730 701 c 0,18,19
 730 678 730 678 745 662 c 0,20,21
 766 640 766 640 812 640 c 128,-1,22
 858 640 858 640 887 662 c 128,-1,23
 916 684 916 684 924 720 c 2,24,-1
 938 785 l 1,25,-1
 1156 873 l 1,26,-1
 1166 873 l 1,27,-1
 1155 825 l 2,28,29
 1124 689 1124 689 1038 624 c 0,30,31
 932 544 932 544 807.5 544 c 128,-1,32
 683 544 683 544 603 623 c 0,33,34
 542 683 542 683 542 766 c 0,35,36
 542 792 542 792 548 820 c 2,37,-1
 604 1083 l 2,38,39
 632 1214 632 1214 720 1280 c 0,40,41
 826 1358 826 1358 951 1358 c 0,0,1
754 386 m 0,42,43
 528 386 528 386 398 549 c 0,44,45
 302 669 302 669 302 841 c 0,46,47
 302 890 302 890 310 943 c 0,48,49
 345 1183 345 1183 555 1362 c 0,50,51
 752 1530 752 1530 993 1530 c 0,52,53
 1219 1530 1219 1530 1349 1367 c 0,54,55
 1445 1247 1445 1247 1445 1075 c 0,56,57
 1445 1026 1445 1026 1437 973 c 0,58,59
 1402 733 1402 733 1192 554 c 0,60,61
 994 386 994 386 754 386 c 0,42,43
983 1478 m 0,62,63
 783 1478 783 1478 603 1330 c 0,64,65
 421 1181 421 1181 373 953 c 0,66,67
 361 897 361 897 361 843 c 0,68,69
 361 704 361 704 442 587 c 0,70,71
 545 438 545 438 764 438 c 0,72,73
 964 438 964 438 1144 586 c 0,74,75
 1326 735 1326 735 1374 963 c 0,76,77
 1386 1022 1386 1022 1386 1077 c 0,78,79
 1386 1216 1386 1216 1308 1329 c 0,80,81
 1205 1478 1205 1478 983 1478 c 0,62,63
EndSplineSet
Validated: 1
EndChar

StartChar: ordfeminine
Encoding: 170 170 106
Width: 581
GlyphClass: 2
Flags: W
HStem: 733 180<295 626> 969 83<444.725 570.184> 1256 89<479.1 607.99> 1486 84<541 650.661>
VStem: 292 145<1061.94 1234.26> 656 185<1253.87 1485.66>
LayerCount: 2
Fore
SplineSet
447 1162 m 0,0,1
 437 1128 437 1128 437 1105 c 0,2,3
 437 1080 437 1080 449 1069 c 0,4,5
 466 1052 466 1052 505.5 1052 c 128,-1,6
 545 1052 545 1052 571 1070 c 0,7,8
 594 1086 594 1086 608 1154 c 0,9,10
 614 1182 614 1182 615 1201 c 0,11,12
 615 1228 615 1228 603 1238 c 0,13,14
 583 1256 583 1256 547 1256 c 0,15,16
 512 1256 512 1256 491 1242 c 0,17,18
 464 1226 464 1226 447 1162 c 0,0,1
577 969 m 1,19,-1
 567 969 l 1,20,-1
 570 983 l 1,21,22
 531 969 531 969 486 969 c 0,23,24
 395 969 395 969 336 1022 c 0,25,26
 292 1062 292 1062 292 1120 c 0,27,28
 292 1138 292 1138 296 1158 c 0,29,30
 317 1259 317 1259 398 1305 c 0,31,32
 469 1345 469 1345 549 1345 c 0,33,34
 606 1345 606 1345 646 1335 c 1,35,36
 656 1383 656 1383 656 1416 c 0,37,38
 656 1486 656 1486 610 1486 c 2,39,-1
 462 1486 l 1,40,-1
 464 1496 l 1,41,-1
 541 1570 l 1,42,-1
 628 1570 l 2,43,44
 734 1570 734 1570 796 1504 c 0,45,46
 841 1456 841 1456 841 1389 c 0,47,48
 841 1366 841 1366 836 1340 c 2,49,-1
 772 1040 l 1,50,-1
 577 969 l 1,19,-1
295 913 m 1,51,-1
 745 913 l 1,52,-1
 743 903 l 1,53,-1
 626 733 l 1,54,-1
 176 733 l 1,55,-1
 178 743 l 1,56,-1
 295 913 l 1,51,-1
EndSplineSet
Validated: 1
EndChar

StartChar: guillemotleft
Encoding: 171 171 107
Width: 1292
GlyphClass: 2
Flags: W
DStem2: 544 857 270 755 0.35398 -0.935253<0 525.631> 270 755 544 857 0.626077 0.779761<251.081 793.832> 1025 857 751 755 0.35398 -0.935253<0 525.631> 751 755 1025 857 0.626077 0.779761<251.081 793.832>
LayerCount: 2
Fore
SplineSet
751 755 m 1,0,-1
 1248 1374 l 1,1,-1
 1258 1374 l 1,2,-1
 1384 1307 l 1,3,-1
 1025 857 l 1,4,-1
 1210 365 l 1,5,-1
 951 253 l 1,6,-1
 941 253 l 1,7,-1
 751 755 l 1,0,-1
270 755 m 1,8,-1
 767 1374 l 1,9,-1
 777 1374 l 1,10,-1
 903 1307 l 1,11,-1
 544 857 l 1,12,-1
 729 365 l 1,13,-1
 470 253 l 1,14,-1
 460 253 l 1,15,-1
 270 755 l 1,8,-1
EndSplineSet
Validated: 1
EndChar

StartChar: logicalnot
Encoding: 172 172 108
Width: 1240
GlyphClass: 2
Flags: W
HStem: 620 270<424 891>
VStem: 709 246<358 604>
LayerCount: 2
Fore
SplineSet
424 890 m 1,0,-1
 1319 890 l 1,1,-1
 1317 880 l 1,2,-1
 955 358 l 1,3,-1
 709 358 l 1,4,-1
 891 620 l 1,5,-1
 242 620 l 1,6,-1
 244 630 l 1,7,-1
 424 890 l 1,0,-1
EndSplineSet
Validated: 1
EndChar

StartChar: uni00AD
Encoding: 173 173 109
Width: 1240
GlyphClass: 2
Flags: W
HStem: 620 270<424 1137>
LayerCount: 2
Fore
SplineSet
424 890 m 1,0,-1
 1319 890 l 1,1,-1
 1317 880 l 1,2,-1
 1137 620 l 1,3,-1
 242 620 l 1,4,-1
 244 630 l 1,5,-1
 424 890 l 1,0,-1
EndSplineSet
Validated: 1
EndChar

StartChar: registered
Encoding: 174 174 110
Width: 1340
GlyphClass: 2
Flags: W
HStem: 386 52<604.584 925.646> 778 97<784 837> 1259 96<866 996.339> 1478 52<824.632 1143.39>
VStem: 302 59<686.575 1015.56> 1012 194<961.269 1241.09> 1386 59<900.437 1234>
DStem2: 479.566 386 679.624 386 0.207912 0.978148<283.889 442.363 541.61 912.101>
LayerCount: 2
Fore
SplineSet
784 875 m 1,0,-1
 855 875 l 2,1,2
 895 875 895 875 928 904 c 0,3,4
 974 944 974 944 1000 1067 c 0,5,6
 1012 1125 1012 1125 1012 1165 c 0,7,8
 1012 1209 1012 1209 997 1230 c 0,9,10
 976 1259 976 1259 937 1259 c 2,11,-1
 866 1259 l 1,12,-1
 784 875 l 1,0,-1
754 386 m 0,13,14
 528 386 528 386 398 549 c 0,15,16
 302 669 302 669 302 841 c 0,17,18
 302 890 302 890 310 943 c 0,19,20
 345 1183 345 1183 555 1362 c 0,21,22
 752 1530 752 1530 993 1530 c 0,23,24
 1219 1530 1219 1530 1349 1367 c 0,25,26
 1445 1247 1445 1247 1445 1075 c 0,27,28
 1445 1026 1445 1026 1437 973 c 0,29,30
 1402 733 1402 733 1192 554 c 0,31,32
 994 386 994 386 754 386 c 0,13,14
983 1478 m 0,33,34
 783 1478 783 1478 603 1330 c 0,35,36
 421 1181 421 1181 373 953 c 0,37,38
 361 897 361 897 361 843 c 0,39,40
 361 704 361 704 442 587 c 0,41,42
 545 438 545 438 764 438 c 0,43,44
 964 438 964 438 1144 586 c 0,45,46
 1326 735 1326 735 1374 963 c 0,47,48
 1386 1022 1386 1022 1386 1077 c 0,49,50
 1386 1216 1386 1216 1308 1329 c 0,51,52
 1205 1478 1205 1478 983 1478 c 0,33,34
524 548 m 1,53,-1
 514 548 l 1,54,-1
 670 1278 l 1,55,-1
 860 1355 l 1,56,-1
 959 1355 l 2,57,58
 1087 1355 1087 1355 1153 1270 c 0,59,60
 1206 1203 1206 1203 1206 1110 c 0,61,62
 1206 1082 1206 1082 1201 1052 c 0,63,64
 1182 933 1182 933 1076 863 c 0,65,66
 1053 848 1053 848 1026 836 c 1,67,-1
 1141 613 l 1,68,-1
 961 548 l 1,69,-1
 951 548 l 1,70,-1
 837 778 l 1,71,-1
 763 778 l 1,72,-1
 730 623 l 1,73,-1
 524 548 l 1,53,-1
EndSplineSet
Validated: 1
EndChar

StartChar: macron
Encoding: 175 175 111
Width: 680
GlyphClass: 2
Flags: W
HStem: 1288 190<430 838>
VStem: 304 660
LayerCount: 2
Fore
SplineSet
430 1478 m 1,0,-1
 964 1478 l 1,1,-1
 962 1468 l 1,2,-1
 838 1288 l 1,3,-1
 304 1288 l 1,4,-1
 306 1298 l 1,5,-1
 430 1478 l 1,0,-1
EndSplineSet
Validated: 1
EndChar

StartChar: degree
Encoding: 176 176 112
Width: 730
GlyphClass: 2
Flags: W
HStem: 895 95<495.013 675.309> 1476 94<577.992 762.053>
VStem: 287 194<1023.39 1335.05> 773 194<1132.43 1442.25>
LayerCount: 2
Fore
SplineSet
680 1476 m 0,0,1
 625 1476 625 1476 578.5 1433 c 128,-1,2
 532 1390 532 1390 499 1233 c 0,3,4
 481 1147 481 1147 481 1096 c 0,5,6
 482 1053 482 1053 494 1033 c 0,7,8
 522 990 522 990 576.5 990 c 128,-1,9
 631 990 631 990 676.5 1033 c 128,-1,10
 722 1076 722 1076 755 1233 c 0,11,12
 773 1320 773 1320 773 1372 c 0,13,14
 773 1415 773 1415 762 1433 c 0,15,16
 736 1476 736 1476 680 1476 c 0,0,1
684 1570 m 0,17,18
 835 1570 835 1570 910 1471 c 0,19,20
 967 1397 967 1397 967 1295 c 0,21,22
 967 1265 967 1265 962 1232 c 0,23,24
 939 1085 939 1085 828 994 c 0,25,26
 709 895 709 895 570 895 c 0,27,28
 419 895 419 895 344 994 c 0,29,30
 287 1069 287 1069 287 1170 c 0,31,32
 287 1200 287 1200 292 1233 c 0,33,34
 315 1380 315 1380 426 1471 c 0,35,36
 546 1570 546 1570 684 1570 c 0,17,18
EndSplineSet
Validated: 1
EndChar

StartChar: plusminus
Encoding: 177 177 113
Width: 1240
GlyphClass: 2
Flags: W
HStem: 154 270<325 1038> 828 270<468 661 988 1181>
DStem2: 517.446 154 787.876 154 0.207912 0.978148<489.698 689.118 1021.21 1220.83>
LayerCount: 2
Fore
SplineSet
325 424 m 1,0,-1
 1220 424 l 1,1,-1
 1218 414 l 1,2,-1
 1038 154 l 1,3,-1
 143 154 l 1,4,-1
 145 164 l 1,5,-1
 325 424 l 1,0,-1
1058 1473 m 1,6,-1
 1068 1473 l 1,7,-1
 988 1098 l 1,8,-1
 1363 1098 l 1,9,-1
 1361 1088 l 1,10,-1
 1181 828 l 1,11,-1
 931 828 l 1,12,-1
 878 578 l 1,13,-1
 591 453 l 1,14,-1
 581 453 l 1,15,-1
 661 828 l 1,16,-1
 286 828 l 1,17,-1
 288 838 l 1,18,-1
 468 1098 l 1,19,-1
 718 1098 l 1,20,-1
 772 1348 l 1,21,-1
 1058 1473 l 1,6,-1
EndSplineSet
Validated: 1
EndChar

StartChar: uni00B2
Encoding: 178 178 114
Width: 671
GlyphClass: 2
Flags: W
HStem: 764 191<493 731> 1475 95<563.221 716.224>
VStem: 308 206<1232.32 1415.94> 727 198<1235.38 1442.37>
LayerCount: 2
Fore
SplineSet
657 1570 m 0,0,1
 805 1570 805 1570 875 1492 c 0,2,3
 925 1436 925 1436 925 1364 c 0,4,5
 925 1341 925 1341 920 1317 c 0,6,7
 885 1144 885 1144 688 1049 c 2,8,-1
 493 955 l 1,9,-1
 844 955 l 1,10,-1
 842 945 l 1,11,-1
 731 764 l 1,12,-1
 192 764 l 1,13,-1
 195 774 l 1,14,-1
 320 966 l 1,15,-1
 544 1100 l 2,16,17
 689 1187 689 1187 719 1328 c 0,18,19
 727 1363 727 1363 727 1390 c 0,20,21
 727 1423 727 1423 715 1443 c 0,22,23
 697 1475 697 1475 647 1475 c 0,24,25
 600 1475 600 1475 567 1443 c 0,26,27
 535 1412 535 1412 520 1339 c 0,28,29
 514 1313 514 1313 514 1290 c 0,30,31
 514 1260 514 1260 524 1234 c 1,32,-1
 336 1165 l 1,33,-1
 326 1165 l 1,34,35
 308 1204 308 1204 308 1253 c 0,36,37
 308 1283 308 1283 315 1318 c 0,38,39
 340 1435 340 1435 425 1495 c 0,40,41
 532 1570 532 1570 657 1570 c 0,0,1
EndSplineSet
Validated: 1
EndChar

StartChar: uni00B3
Encoding: 179 179 115
Width: 661
GlyphClass: 2
Flags: W
HStem: 753 96<447.587 587.435> 1464 96<458 657>
VStem: 248 191<854.652 987> 655 198<921.578 1174.5>
LayerCount: 2
Fore
SplineSet
458 1560 m 1,0,-1
 956 1560 l 1,1,-1
 716 1271 l 1,2,3
 773 1248 773 1248 808 1206 c 0,4,5
 853 1153 853 1153 853 1075 c 0,6,7
 853 1052 853 1052 849 1026 c 0,8,9
 832 907 832 907 739 833 c 0,10,11
 638 753 638 753 501 753 c 0,12,13
 350 753 350 753 296 829 c 0,14,15
 248 896 248 896 248 978 c 0,16,17
 248 983 248 983 248 987 c 1,18,-1
 443 1066 l 1,19,-1
 453 1066 l 1,20,21
 439 999 439 999 439 953 c 0,22,23
 439 849 439 849 510 849 c 0,24,25
 551 849 551 849 585 883 c 0,26,27
 621 920 621 920 644 1034 c 0,28,29
 655 1089 655 1089 655 1126 c 0,30,31
 655 1159 655 1159 648 1175 c 0,32,33
 630 1215 630 1215 573 1215 c 0,34,35
 531 1215 531 1215 496 1195 c 1,36,-1
 473 1228 l 1,37,-1
 657 1464 l 1,38,-1
 396 1464 l 1,39,-1
 398 1474 l 1,40,-1
 458 1560 l 1,0,-1
EndSplineSet
Validated: 1
EndChar

StartChar: acute
Encoding: 180 180 116
Width: 401
GlyphClass: 2
Flags: W
HStem: 1160 410
VStem: 296 389
DStem2: 296 1250 478 1160 0.541289 0.840837<22.8392 380.573>
LayerCount: 2
Fore
SplineSet
512 1570 m 1,0,-1
 685 1478 l 1,1,-1
 478 1160 l 1,2,-1
 468 1160 l 1,3,-1
 296 1250 l 1,4,-1
 502 1570 l 1,5,-1
 512 1570 l 1,0,-1
EndSplineSet
Validated: 1
EndChar

StartChar: uni00B5
Encoding: 181 181 117
Width: 1230
GlyphClass: 2
Flags: W
HStem: -430 21G<49 105.232> -20 142<523.272 778.603> 1100 20G<621.768 678 1271.77 1328>
DStem2: 49 -430 348.667 -430 0.207912 0.978148<203.387 530.533 743.448 1443.52> 698.87 -430 998.537 -430 0.207912 0.978148<680.476 1443.54>
LayerCount: 2
Fore
SplineSet
59 -430 m 1,0,-1
 49 -430 l 1,1,-1
 349 982 l 1,2,-1
 668 1120 l 1,3,-1
 678 1120 l 1,4,-1
 497 266 l 2,5,6
 494 250 494 250 494 235 c 0,7,8
 494 192 494 192 525 162 c 0,9,10
 567 122 567 122 642 122 c 128,-1,11
 717 122 717 122 774.5 162.5 c 128,-1,12
 832 203 832 203 846 265 c 2,13,-1
 999 982 l 1,14,-1
 1318 1120 l 1,15,-1
 1328 1120 l 1,16,-1
 1176 403 l 2,17,18
 1132 196 1132 196 1002 101 c 0,19,20
 836 -20 836 -20 641 -20 c 0,21,22
 509 -20 509 -20 446 28 c 1,23,-1
 378 -292 l 1,24,-1
 59 -430 l 1,0,-1
EndSplineSet
Validated: 1
EndChar

StartChar: paragraph
Encoding: 182 182 118
Width: 1220
GlyphClass: 2
Flags: W
HStem: -20 21G<736 792.538> 1510 20G<783.5 988>
DStem2: 736 -20 855.947 -20 0.207912 0.978148<78.1001 481.499> 939.445 -20 1055.75 -20 0.207912 0.978148<174.466 1189.41>
LayerCount: 2
Fore
SplineSet
736 -20 m 1,0,-1
 836 451 l 1,1,2
 758 428 758 428 686 428 c 0,3,4
 492 428 492 428 380 562 c 0,5,6
 290 670 290 670 290 803 c 0,7,8
 290 848 290 848 300 896 c 2,9,-1
 336 1062 l 2,10,11
 386 1292 386 1292 517 1396 c 0,12,13
 686 1530 686 1530 881 1530 c 0,14,15
 1095 1530 1095 1530 1208 1404 c 0,16,17
 1301 1300 1301 1300 1301 1172 c 0,18,19
 1301 1133 1301 1133 1292 1092 c 2,20,-1
 1087 127 l 1,21,-1
 959 72 l 1,22,-1
 1187 1144 l 1,23,-1
 1095 1106 l 1,24,-1
 867 32 l 1,25,-1
 746 -20 l 1,26,-1
 736 -20 l 1,0,-1
EndSplineSet
Validated: 1
EndChar

StartChar: periodcentered
Encoding: 183 183 119
Width: 420
GlyphClass: 2
Flags: W
HStem: 573 365<282.097 458.323>
VStem: 186 369<668.75 842.936>
LayerCount: 2
Fore
SplineSet
409 938 m 0,0,1
 485 938 485 938 526 885 c 0,2,3
 555 847 555 847 555 796 c 0,4,5
 555 777 555 777 551 756 c 0,6,7
 535 681 535 681 470.5 627 c 128,-1,8
 406 573 406 573 332 573 c 0,9,10
 256 573 256 573 216 627 c 0,11,12
 186 666 186 666 186 716 c 0,13,14
 186 735 186 735 190 755 c 0,15,16
 206 831 206 831 270 884 c 0,17,18
 334 938 334 938 409 938 c 0,0,1
EndSplineSet
Validated: 1
EndChar

StartChar: cedilla
Encoding: 184 184 120
Width: 440
GlyphClass: 2
Flags: W
HStem: -410 410 -20 20G<136 294.5>
VStem: 172 199<-200.312 -79.297>
LayerCount: 2
Fore
SplineSet
-57 -410 m 1,0,-1
 -55 -400 l 1,1,-1
 69 -220 l 1,2,3
 158 -204 158 -204 171 -145 c 0,4,5
 172 -139 172 -139 172 -133 c 0,6,7
 172 -97 172 -97 120 -76 c 1,8,-1
 136 0 l 1,9,-1
 299 0 l 1,10,-1
 290 -40 l 1,11,12
 371 -82 371 -82 371 -166 c 0,13,14
 371 -176 371 -176 370 -187 c 0,15,16
 346 -410 346 -410 -57 -410 c 1,0,-1
EndSplineSet
Validated: 1
EndChar

StartChar: uni00B9
Encoding: 185 185 121
Width: 392
GlyphClass: 2
Flags: W
VStem: 293 373
DStem2: 293 756 493.058 756 0.207912 0.978148<118.27 647.236>
LayerCount: 2
Fore
SplineSet
656 1570 m 1,0,-1
 666 1570 l 1,1,-1
 509 831 l 1,2,-1
 303 756 l 1,3,-1
 293 756 l 1,4,-1
 428 1389 l 1,5,-1
 295 1337 l 1,6,-1
 315 1432 l 1,7,-1
 656 1570 l 1,0,-1
EndSplineSet
Validated: 1
EndChar

StartChar: ordmasculine
Encoding: 186 186 122
Width: 594
GlyphClass: 2
Flags: W
HStem: 733 180<295 639> 961 90<480.517 606.932> 1480 90<545.247 671.494>
VStem: 298 175<1059.51 1307.14> 679 175<1223.86 1471.89>
DStem2: 205.649 733 395.992 733 0.207912 0.978148<427.7 777.425> 529.992 733 719.649 733 0.207912 0.978148<350.868 703.497>
LayerCount: 2
Fore
SplineSet
621.5 1480 m 128,-1,1
 591 1480 591 1480 569.5 1465 c 128,-1,2
 548 1450 548 1450 544 1431 c 2,3,-1
 474 1100 l 2,4,5
 473 1096 473 1096 473 1092 c 0,6,7
 473 1078 473 1078 485 1066 c 0,8,9
 500 1052 500 1052 531 1051 c 0,10,11
 565 1051 565 1051 584.5 1066 c 128,-1,12
 604 1081 604 1081 608 1100 c 2,13,-1
 678 1431 l 2,14,15
 679 1435 679 1435 679 1439 c 0,16,17
 679 1454 679 1454 667 1466 c 0,18,0
 652 1480 652 1480 621.5 1480 c 128,-1,1
295 913 m 1,19,-1
 758 913 l 1,20,-1
 756 903 l 1,21,-1
 639 733 l 1,22,-1
 176 733 l 1,23,-1
 178 743 l 1,24,-1
 295 913 l 1,19,-1
632 1570 m 128,-1,26
 738 1570 738 1570 804 1503 c 0,27,28
 854 1452 854 1452 854 1384 c 0,29,30
 854 1363 854 1363 849 1340 c 2,31,-1
 817 1191 l 2,32,33
 794 1082 794 1082 716 1026 c 0,34,35
 626 961 626 961 521 961 c 0,36,37
 412 961 412 961 350 1028 c 0,38,39
 298 1083 298 1083 298 1150 c 0,40,41
 298 1170 298 1170 303 1191 c 2,42,-1
 335 1340 l 2,43,44
 358 1449 358 1449 436 1505 c 0,45,25
 526 1570 526 1570 632 1570 c 128,-1,26
EndSplineSet
Validated: 1
EndChar

StartChar: guillemotright
Encoding: 187 187 123
Width: 1292
GlyphClass: 2
Flags: W
DStem2: 229 203 365 136 0.626077 0.779761<32.9024 575.654> 672 1257 403 1145 0.35398 -0.935253<9.52766 535.158> 710 203 846 136 0.626077 0.779761<32.9024 575.654> 1153 1257 884 1145 0.35398 -0.935253<9.52766 535.158>
LayerCount: 2
Fore
SplineSet
862 755 m 1,0,-1
 365 136 l 1,1,-1
 355 136 l 1,2,-1
 229 203 l 1,3,-1
 588 653 l 1,4,-1
 403 1145 l 1,5,-1
 662 1257 l 1,6,-1
 672 1257 l 1,7,-1
 862 755 l 1,0,-1
1343 755 m 1,8,-1
 846 136 l 1,9,-1
 836 136 l 1,10,-1
 710 203 l 1,11,-1
 1069 653 l 1,12,-1
 884 1145 l 1,13,-1
 1143 1257 l 1,14,-1
 1153 1257 l 1,15,-1
 1343 755 l 1,8,-1
EndSplineSet
Validated: 1
EndChar

StartChar: onequarter
Encoding: 188 188 124
Width: 1543
GlyphClass: 2
Flags: W
HStem: -20 21G<450.301 511.57 1154 1218.93> 142 96<998 1188 1409 1416> 1510 20G<697.58 757 1237.42 1298.52>
DStem2: 227.558 -20 427.617 -20 0.207912 0.978148<870.713 1399.68> 275 93 498 -20 0.561853 0.827237<31.8155 1737.11> 802 152 998 238 0.669408 0.742895<195.093 607.175> 1154 -20 1354.06 -20 0.207912 0.978148<118.27 165.529 305.38 576.625>
LayerCount: 2
Fore
SplineSet
747 1530 m 1,0,-1
 757 1530 l 1,1,-1
 600 791 l 1,2,-1
 394 716 l 1,3,-1
 384 716 l 1,4,-1
 519 1349 l 1,5,-1
 386 1297 l 1,6,-1
 406 1392 l 1,7,-1
 747 1530 l 1,0,-1
998 238 m 1,8,-1
 1209 238 l 1,9,-1
 1274 544 l 1,10,-1
 998 238 l 1,8,-1
1164 -20 m 1,11,-1
 1154 -20 l 1,12,-1
 1188 142 l 1,13,-1
 800 142 l 1,14,-1
 802 152 l 1,15,-1
 1303 708 l 1,16,-1
 1517 794 l 1,17,-1
 1527 794 l 1,18,-1
 1409 238 l 1,19,-1
 1484 238 l 1,20,-1
 1481 228 l 1,21,-1
 1416 133 l 1,22,-1
 1386 133 l 1,23,-1
 1370 55 l 1,24,-1
 1164 -20 l 1,11,-1
488 -20 m 1,25,-1
 275 93 l 1,26,-1
 1251 1530 l 1,27,-1
 1261 1530 l 1,28,-1
 1473 1417 l 1,29,-1
 498 -20 l 1,30,-1
 488 -20 l 1,25,-1
EndSplineSet
Validated: 1
EndChar

StartChar: onehalf
Encoding: 189 189 125
Width: 1677
GlyphClass: 2
Flags: W
HStem: -20 21G<450.301 511.57> 0 191<1257 1495> 711 95<1327.22 1480.22> 1510 20G<697.58 757 1237.42 1298.52>
VStem: 1072 206<468.319 651.944> 1491 198<471.375 678.372>
DStem2: 227.558 -20 427.617 -20 0.207912 0.978148<870.713 1399.68> 275 93 498 -20 0.561853 0.827237<31.8155 1737.11>
LayerCount: 2
Fore
SplineSet
747 1530 m 1,0,-1
 757 1530 l 1,1,-1
 600 791 l 1,2,-1
 394 716 l 1,3,-1
 384 716 l 1,4,-1
 519 1349 l 1,5,-1
 386 1297 l 1,6,-1
 406 1392 l 1,7,-1
 747 1530 l 1,0,-1
1421 806 m 0,8,9
 1569 806 1569 806 1639 728 c 0,10,11
 1689 672 1689 672 1689 600 c 0,12,13
 1689 577 1689 577 1684 553 c 0,14,15
 1649 380 1649 380 1452 285 c 2,16,-1
 1257 191 l 1,17,-1
 1608 191 l 1,18,-1
 1606 181 l 1,19,-1
 1495 0 l 1,20,-1
 956 0 l 1,21,-1
 959 10 l 1,22,-1
 1084 202 l 1,23,-1
 1308 336 l 2,24,25
 1453 423 1453 423 1483 564 c 0,26,27
 1491 599 1491 599 1491 626 c 0,28,29
 1491 659 1491 659 1479 679 c 0,30,31
 1461 711 1461 711 1411 711 c 0,32,33
 1364 711 1364 711 1331 679 c 0,34,35
 1299 648 1299 648 1284 575 c 0,36,37
 1278 549 1278 549 1278 526 c 0,38,39
 1278 496 1278 496 1288 470 c 1,40,-1
 1100 401 l 1,41,-1
 1090 401 l 1,42,43
 1072 440 1072 440 1072 489 c 0,44,45
 1072 519 1072 519 1079 554 c 0,46,47
 1104 671 1104 671 1189 731 c 0,48,49
 1296 806 1296 806 1421 806 c 0,8,9
488 -20 m 1,50,-1
 275 93 l 1,51,-1
 1251 1530 l 1,52,-1
 1261 1530 l 1,53,-1
 1473 1417 l 1,54,-1
 498 -20 l 1,55,-1
 488 -20 l 1,50,-1
EndSplineSet
Validated: 1
EndChar

StartChar: threequarters
Encoding: 190 190 126
Width: 1780
GlyphClass: 2
Flags: W
HStem: -20 21G<687.301 748.57 1391 1455.93> 142 96<1235 1425 1646 1653> 723 96<520.587 660.435> 1434 96<531 730>
VStem: 321 191<824.652 957> 728 198<891.578 1144.5>
DStem2: 512 93 735 -20 0.561853 0.827237<31.8155 1737.11> 1039 152 1235 238 0.669408 0.742895<195.093 607.175> 1391 -20 1591.06 -20 0.207912 0.978148<118.27 165.529 305.38 576.625>
LayerCount: 2
Fore
SplineSet
1235 238 m 1,0,-1
 1446 238 l 1,1,-1
 1511 544 l 1,2,-1
 1235 238 l 1,0,-1
1401 -20 m 1,3,-1
 1391 -20 l 1,4,-1
 1425 142 l 1,5,-1
 1037 142 l 1,6,-1
 1039 152 l 1,7,-1
 1540 708 l 1,8,-1
 1754 794 l 1,9,-1
 1764 794 l 1,10,-1
 1646 238 l 1,11,-1
 1721 238 l 1,12,-1
 1718 228 l 1,13,-1
 1653 133 l 1,14,-1
 1623 133 l 1,15,-1
 1607 55 l 1,16,-1
 1401 -20 l 1,3,-1
531 1530 m 1,17,-1
 1029 1530 l 1,18,-1
 789 1241 l 1,19,20
 846 1218 846 1218 881 1176 c 0,21,22
 926 1123 926 1123 926 1045 c 0,23,24
 926 1022 926 1022 922 996 c 0,25,26
 905 877 905 877 812 803 c 0,27,28
 711 723 711 723 574 723 c 0,29,30
 423 723 423 723 369 799 c 0,31,32
 321 866 321 866 321 948 c 0,33,34
 321 953 321 953 321 957 c 1,35,-1
 516 1036 l 1,36,-1
 526 1036 l 1,37,38
 512 969 512 969 512 923 c 0,39,40
 512 819 512 819 583 819 c 0,41,42
 624 819 624 819 658 853 c 0,43,44
 694 890 694 890 717 1004 c 0,45,46
 728 1059 728 1059 728 1096 c 0,47,48
 728 1129 728 1129 721 1145 c 0,49,50
 703 1185 703 1185 646 1185 c 0,51,52
 604 1185 604 1185 569 1165 c 1,53,-1
 546 1198 l 1,54,-1
 730 1434 l 1,55,-1
 469 1434 l 1,56,-1
 471 1444 l 1,57,-1
 531 1530 l 1,17,-1
725 -20 m 1,58,-1
 512 93 l 1,59,-1
 1488 1530 l 1,60,-1
 1498 1530 l 1,61,-1
 1710 1417 l 1,62,-1
 735 -20 l 1,63,-1
 725 -20 l 1,58,-1
EndSplineSet
Validated: 1
EndChar

StartChar: questiondown
Encoding: 191 191 127
Width: 1339
GlyphClass: 2
Flags: W
HStem: -430 151<471.748 758.229> 755 365<805.677 981.903>
VStem: 106 313<-224.79 121.271> 923 326<-71.4969 183.157>
LayerCount: 2
Fore
SplineSet
603 -430 m 0,0,1
 344 -430 344 -430 197 -283 c 0,2,3
 106 -192 106 -192 106 -61 c 0,4,5
 106 -18 106 -18 116 29 c 0,6,7
 169 296 169 296 523 437 c 0,8,9
 633 481 633 481 654 593 c 1,10,-1
 999 740 l 1,11,-1
 1009 740 l 1,12,13
 954 482 954 482 689 378 c 0,14,15
 495 302 495 302 434 19 c 0,16,17
 419 -50 419 -50 419 -101 c 0,18,19
 419 -163 419 -163 441 -199 c 0,20,21
 491 -279 491 -279 608 -279 c 0,22,23
 710 -279 710 -279 795 -209 c 128,-1,24
 880 -139 880 -139 912 10 c 0,25,26
 923 63 923 63 923 108 c 0,27,28
 923 142 923 142 917 173 c 1,29,-1
 1214 300 l 1,30,-1
 1224 300 l 1,31,32
 1249 239 1249 239 1249 157 c 0,33,34
 1249 108 1249 108 1240 52 c 0,35,36
 1209 -147 1209 -147 1046 -280 c 0,37,38
 860 -430 860 -430 603 -430 c 0,0,1
932 1120 m 0,39,40
 1008 1120 1008 1120 1048 1066 c 0,41,42
 1078 1027 1078 1027 1078 977 c 0,43,44
 1078 958 1078 958 1074 938 c 0,45,46
 1058 862 1058 862 994 809 c 0,47,48
 930 755 930 755 855 755 c 0,49,50
 779 755 779 755 738 808 c 0,51,52
 709 846 709 846 709 897 c 0,53,54
 709 916 709 916 713 937 c 0,55,56
 729 1012 729 1012 793.5 1066 c 128,-1,57
 858 1120 858 1120 932 1120 c 0,39,40
EndSplineSet
Validated: 1
EndChar

StartChar: endash
Encoding: 8211 8211 128
Width: 1240
GlyphClass: 2
Flags: W
HStem: 620 270<424 1137>
LayerCount: 2
Fore
SplineSet
424 890 m 1,0,-1
 1319 890 l 1,1,-1
 1317 880 l 1,2,-1
 1137 620 l 1,3,-1
 242 620 l 1,4,-1
 244 630 l 1,5,-1
 424 890 l 1,0,-1
EndSplineSet
Validated: 1
EndChar

StartChar: emdash
Encoding: 8212 8212 129
Width: 1570
GlyphClass: 2
Flags: W
HStem: 620 270<424 1467>
LayerCount: 2
Fore
SplineSet
424 890 m 1,0,-1
 1649 890 l 1,1,-1
 1647 880 l 1,2,-1
 1467 620 l 1,3,-1
 242 620 l 1,4,-1
 244 630 l 1,5,-1
 424 890 l 1,0,-1
EndSplineSet
Validated: 1
EndChar

StartChar: afii00208
Encoding: 8213 8213 130
Width: 1570
GlyphClass: 2
Flags: W
HStem: 620 270<424 1467>
LayerCount: 2
Fore
SplineSet
424 890 m 1,0,-1
 1649 890 l 1,1,-1
 1647 880 l 1,2,-1
 1467 620 l 1,3,-1
 242 620 l 1,4,-1
 244 630 l 1,5,-1
 424 890 l 1,0,-1
EndSplineSet
Validated: 1
EndChar

StartChar: quoteleft
Encoding: 8216 8216 131
Width: 496
GlyphClass: 2
Flags: W
HStem: 934 666
VStem: 281 282<1124.94 1316.96>
LayerCount: 2
Fore
SplineSet
706 1600 m 1,0,-1
 712 1593 l 1,1,2
 601 1444 601 1444 569 1296 c 0,3,4
 563 1269 563 1269 563 1244 c 0,5,6
 563 1126 563 1126 691 1060 c 1,7,-1
 396 934 l 1,8,-1
 386 934 l 1,9,10
 281 1014 281 1014 281 1142 c 0,11,12
 281 1178 281 1178 289 1218 c 0,13,14
 343 1475 343 1475 706 1600 c 1,0,-1
EndSplineSet
Validated: 1
EndChar

StartChar: quoteright
Encoding: 8217 8217 132
Width: 496
GlyphClass: 2
Flags: W
HStem: 934 666
VStem: 471 283<1217.04 1409.06>
LayerCount: 2
Fore
SplineSet
343 1474 m 1,0,-1
 639 1600 l 1,1,-1
 649 1600 l 1,2,3
 754 1520 754 1520 754 1392 c 0,4,5
 754 1356 754 1356 746 1316 c 0,6,7
 691 1059 691 1059 329 934 c 1,8,-1
 323 941 l 1,9,10
 434 1090 434 1090 465 1238 c 0,11,12
 471 1265 471 1265 471 1290 c 0,13,14
 471 1408 471 1408 343 1474 c 1,0,-1
EndSplineSet
Validated: 1
EndChar

StartChar: quotesinglbase
Encoding: 8218 8218 133
Width: 496
GlyphClass: 2
Flags: W
HStem: -328 666
VStem: 203 283<-42.5039 147.058>
LayerCount: 2
Fore
SplineSet
75 212 m 1,0,-1
 371 338 l 1,1,-1
 381 338 l 1,2,3
 486 259 486 259 486 132 c 0,4,5
 486 95 486 95 477 54 c 0,6,7
 422 -203 422 -203 60 -328 c 1,8,-1
 55 -321 l 1,9,10
 166 -172 166 -172 197 -24 c 0,11,12
 203 3 203 3 203 28 c 0,13,14
 203 146 203 146 75 212 c 1,0,-1
EndSplineSet
Validated: 1
EndChar

StartChar: quotereversed
Encoding: 8219 8219 134
Width: 496
GlyphClass: 2
Flags: W
HStem: 934 666<475.621 537>
VStem: 302 243<1092.94 1320.7>
LayerCount: 2
Fore
SplineSet
779 1474 m 1,0,1
 590 1394 590 1394 557 1238 c 0,2,3
 545 1179 545 1179 545 1120 c 0,4,5
 545 1031 545 1031 573 941 c 1,6,-1
 565 934 l 1,7,8
 302 1040 302 1040 302 1242 c 0,9,10
 302 1277 302 1277 310 1316 c 0,11,12
 349 1498 349 1498 527 1600 c 1,13,-1
 537 1600 l 1,14,-1
 779 1474 l 1,0,1
EndSplineSet
Validated: 1
EndChar

StartChar: quotedblleft
Encoding: 8220 8220 135
Width: 914
GlyphClass: 2
Flags: W
HStem: 934 666
VStem: 281 282<1124.94 1316.96> 699 282<1124.94 1316.96>
LayerCount: 2
Fore
SplineSet
706 1600 m 1,0,-1
 712 1593 l 1,1,2
 601 1444 601 1444 569 1296 c 0,3,4
 563 1269 563 1269 563 1244 c 0,5,6
 563 1126 563 1126 691 1060 c 1,7,-1
 396 934 l 1,8,-1
 386 934 l 1,9,10
 281 1014 281 1014 281 1142 c 0,11,12
 281 1178 281 1178 289 1218 c 0,13,14
 343 1475 343 1475 706 1600 c 1,0,-1
1124 1600 m 1,15,-1
 1130 1593 l 1,16,17
 1019 1444 1019 1444 987 1296 c 0,18,19
 981 1269 981 1269 981 1244 c 0,20,21
 981 1126 981 1126 1109 1060 c 1,22,-1
 814 934 l 1,23,-1
 804 934 l 1,24,25
 699 1014 699 1014 699 1142 c 0,26,27
 699 1178 699 1178 707 1218 c 0,28,29
 761 1475 761 1475 1124 1600 c 1,15,-1
EndSplineSet
Validated: 1
EndChar

StartChar: quotedblright
Encoding: 8221 8221 136
Width: 914
GlyphClass: 2
Flags: W
HStem: 934 666
VStem: 471 283<1217.04 1409.06> 889 283<1217.04 1409.06>
LayerCount: 2
Fore
SplineSet
761 1474 m 1,0,-1
 1057 1600 l 1,1,-1
 1067 1600 l 1,2,3
 1172 1520 1172 1520 1172 1392 c 0,4,5
 1172 1356 1172 1356 1164 1316 c 0,6,7
 1109 1059 1109 1059 747 934 c 1,8,-1
 741 941 l 1,9,10
 852 1090 852 1090 883 1238 c 0,11,12
 889 1265 889 1265 889 1290 c 0,13,14
 889 1408 889 1408 761 1474 c 1,0,-1
343 1474 m 1,15,-1
 639 1600 l 1,16,-1
 649 1600 l 1,17,18
 754 1520 754 1520 754 1392 c 0,19,20
 754 1356 754 1356 746 1316 c 0,21,22
 691 1059 691 1059 329 934 c 1,23,-1
 323 941 l 1,24,25
 434 1090 434 1090 465 1238 c 0,26,27
 471 1265 471 1265 471 1290 c 0,28,29
 471 1408 471 1408 343 1474 c 1,15,-1
EndSplineSet
Validated: 1
EndChar

StartChar: quotedblbase
Encoding: 8222 8222 137
Width: 914
GlyphClass: 2
Flags: W
HStem: -328 666
VStem: 203 283<-42.5039 147.058> 621 283<-42.5039 147.058>
LayerCount: 2
Fore
SplineSet
493 212 m 1,0,-1
 789 338 l 1,1,-1
 799 338 l 1,2,3
 904 259 904 259 904 132 c 0,4,5
 904 95 904 95 895 54 c 0,6,7
 840 -203 840 -203 478 -328 c 1,8,-1
 473 -321 l 1,9,10
 584 -172 584 -172 615 -24 c 0,11,12
 621 3 621 3 621 28 c 0,13,14
 621 146 621 146 493 212 c 1,0,-1
75 212 m 1,15,-1
 371 338 l 1,16,-1
 381 338 l 1,17,18
 486 259 486 259 486 132 c 0,19,20
 486 95 486 95 477 54 c 0,21,22
 422 -203 422 -203 60 -328 c 1,23,-1
 55 -321 l 1,24,25
 166 -172 166 -172 197 -24 c 0,26,27
 203 3 203 3 203 28 c 0,28,29
 203 146 203 146 75 212 c 1,15,-1
EndSplineSet
Validated: 1
EndChar

StartChar: dagger
Encoding: 8224 8224 138
Width: 1254
GlyphClass: 2
Flags: W
HStem: -20 21G<463 519.395> 964 150<414 672 1024 1282> 1510 20G<1055.92 1112>
DStem2: 463 -20 782.754 -20 0.207912 0.978148<216.765 1005.95 1225.86 1433.32>
LayerCount: 2
Fore
SplineSet
473 -20 m 1,0,-1
 463 -20 l 1,1,-1
 672 964 l 1,2,-1
 315 964 l 1,3,-1
 317 974 l 1,4,-1
 414 1114 l 1,5,-1
 704 1114 l 1,6,-1
 761 1382 l 1,7,-1
 1102 1530 l 1,8,-1
 1112 1530 l 1,9,-1
 1024 1114 l 1,10,-1
 1381 1114 l 1,11,-1
 1379 1104 l 1,12,-1
 1282 964 l 1,13,-1
 992 964 l 1,14,-1
 814 127 l 1,15,-1
 473 -20 l 1,0,-1
EndSplineSet
Validated: 1
EndChar

StartChar: daggerdbl
Encoding: 8225 8225 139
Width: 1254
GlyphClass: 2
Flags: W
HStem: -20 21G<463 519.395> 396 150<293 551 903 1161> 964 150<414 672 1024 1282> 1510 20G<1055.61 1112>
DStem2: 463 -20 782.542 -20 0.207912 0.978148<216.765 425.206 645.113 1005.95 1225.86 1434.3>
LayerCount: 2
Fore
SplineSet
473 -20 m 1,0,-1
 463 -20 l 1,1,-1
 551 396 l 1,2,-1
 194 396 l 1,3,-1
 196 406 l 1,4,-1
 293 546 l 1,5,-1
 583 546 l 1,6,-1
 672 964 l 1,7,-1
 315 964 l 1,8,-1
 317 974 l 1,9,-1
 414 1114 l 1,10,-1
 704 1114 l 1,11,-1
 761 1382 l 1,12,-1
 761 1383 l 1,13,-1
 1102 1530 l 1,14,-1
 1112 1530 l 1,15,-1
 1024 1114 l 1,16,-1
 1381 1114 l 1,17,-1
 1379 1104 l 1,18,-1
 1282 964 l 1,19,-1
 992 964 l 1,20,-1
 903 546 l 1,21,-1
 1260 546 l 1,22,-1
 1258 536 l 1,23,-1
 1161 396 l 1,24,-1
 871 396 l 1,25,-1
 814 128 l 1,26,-1
 814 127 l 1,27,-1
 473 -20 l 1,0,-1
EndSplineSet
Validated: 1
EndChar

StartChar: bullet
Encoding: 8226 8226 140
Width: 950
GlyphClass: 2
Flags: W
HStem: 380 742<511.298 762.701>
LayerCount: 2
Fore
SplineSet
576 380 m 0,0,1
 408 380 408 380 326 489 c 0,2,3
 263 573 263 573 263 690 c 0,4,5
 263 720 263 720 267 752 c 0,6,7
 287 912 287 912 410 1013 c 0,8,9
 542 1122 542 1122 694 1122 c 0,10,11
 860 1122 860 1122 944 1013 c 0,12,13
 1007 931 1007 931 1007 811 c 0,14,15
 1007 781 1007 781 1003 750 c 0,16,17
 985 592 985 592 860 489 c 0,18,19
 729 380 729 380 576 380 c 0,0,1
EndSplineSet
Validated: 1
EndChar

StartChar: ellipsis
Encoding: 8230 8230 141
Width: 1292
GlyphClass: 2
Flags: W
HStem: -20 365<156.097 332.323 592.097 768.323 1028.1 1204.32>
LayerCount: 2
Fore
SplineSet
1078 -20 m 0,0,1
 1002 -20 1002 -20 962 34 c 0,2,3
 932 73 932 73 932 123 c 0,4,5
 932 142 932 142 936 162 c 0,6,7
 952 238 952 238 1016 291 c 0,8,9
 1080 345 1080 345 1155 345 c 0,10,11
 1231 345 1231 345 1272 292 c 0,12,13
 1301 254 1301 254 1301 203 c 0,14,15
 1301 184 1301 184 1297 163 c 0,16,17
 1281 88 1281 88 1216.5 34 c 128,-1,18
 1152 -20 1152 -20 1078 -20 c 0,0,1
642 -20 m 0,19,20
 566 -20 566 -20 526 34 c 0,21,22
 496 73 496 73 496 123 c 0,23,24
 496 142 496 142 500 162 c 0,25,26
 516 238 516 238 580 291 c 0,27,28
 644 345 644 345 719 345 c 0,29,30
 795 345 795 345 836 292 c 0,31,32
 865 254 865 254 865 203 c 0,33,34
 865 184 865 184 861 163 c 0,35,36
 845 88 845 88 780.5 34 c 128,-1,37
 716 -20 716 -20 642 -20 c 0,19,20
206 -20 m 0,38,39
 130 -20 130 -20 90 34 c 0,40,41
 60 73 60 73 60 123 c 0,42,43
 60 142 60 142 64 162 c 0,44,45
 80 238 80 238 144 291 c 0,46,47
 208 345 208 345 283 345 c 0,48,49
 359 345 359 345 400 292 c 0,50,51
 429 254 429 254 429 203 c 0,52,53
 429 184 429 184 425 163 c 0,54,55
 409 88 409 88 344.5 34 c 128,-1,56
 280 -20 280 -20 206 -20 c 0,38,39
EndSplineSet
Validated: 1
EndChar

StartChar: perthousand
Encoding: 8240 8240 142
Width: 2624
GlyphClass: 2
Flags: W
HStem: -20 104<1303.58 1486.73 2081.58 2264.73> 619 103<1398.03 1583.46 2176.03 2361.46> 788 104<586.577 769.729> 1427 103<681.029 866.465>
VStem: 353 217<932.375 1256.99> 881 216<1068.71 1386.8> 1070 217<124.375 448.995> 1598 216<260.711 578.8> 1848 217<124.375 448.995> 2376 216<260.711 578.8>
DStem2: 484 93 707 -20 0.561853 0.827237<31.8155 1737.11>
LayerCount: 2
Fore
SplineSet
2281.5 619 m 128,-1,1
 2223 619 2223 619 2172 571.5 c 128,-1,2
 2121 524 2121 524 2085 352 c 0,3,4
 2065 259 2065 259 2065 201 c 0,5,6
 2065 154 2065 154 2079 132 c 0,7,8
 2107 84 2107 84 2165 84 c 0,9,10
 2219 84 2219 84 2269 132 c 0,11,12
 2318 179 2318 179 2355 352 c 0,13,14
 2376 450 2376 450 2376 504 c 0,15,16
 2376 545 2376 545 2363 572 c 0,17,0
 2340 619 2340 619 2281.5 619 c 128,-1,1
1503.5 619 m 128,-1,19
 1445 619 1445 619 1394 571.5 c 128,-1,20
 1343 524 1343 524 1307 352 c 0,21,22
 1287 259 1287 259 1287 201 c 0,23,24
 1287 154 1287 154 1301 132 c 0,25,26
 1329 84 1329 84 1387 84 c 0,27,28
 1441 84 1441 84 1491 132 c 0,29,30
 1540 179 1540 179 1577 352 c 0,31,32
 1598 450 1598 450 1598 504 c 0,33,34
 1598 545 1598 545 1585 572 c 0,35,18
 1562 619 1562 619 1503.5 619 c 128,-1,19
786.5 1427 m 128,-1,37
 728 1427 728 1427 677 1379.5 c 128,-1,38
 626 1332 626 1332 590 1160 c 0,39,40
 570 1067 570 1067 570 1009 c 0,41,42
 570 962 570 962 584 940 c 0,43,44
 612 892 612 892 670 892 c 0,45,46
 724 892 724 892 774 940 c 0,47,48
 823 987 823 987 860 1160 c 0,49,50
 881 1258 881 1258 881 1312 c 0,51,52
 881 1353 881 1353 868 1380 c 0,53,36
 845 1427 845 1427 786.5 1427 c 128,-1,37
2161 -20 m 0,54,55
 1993 -20 1993 -20 1911 89 c 0,56,57
 1848 173 1848 173 1848 290 c 0,58,59
 1848 320 1848 320 1852 352 c 0,60,61
 1872 512 1872 512 1995 613 c 0,62,63
 2127 722 2127 722 2279 722 c 0,64,65
 2445 722 2445 722 2529 613 c 0,66,67
 2592 531 2592 531 2592 411 c 0,68,69
 2592 381 2592 381 2588 350 c 0,70,71
 2570 192 2570 192 2445 89 c 0,72,73
 2314 -20 2314 -20 2161 -20 c 0,54,55
1383 -20 m 0,74,75
 1215 -20 1215 -20 1133 89 c 0,76,77
 1070 173 1070 173 1070 290 c 0,78,79
 1070 320 1070 320 1074 352 c 0,80,81
 1094 512 1094 512 1217 613 c 0,82,83
 1349 722 1349 722 1501 722 c 0,84,85
 1667 722 1667 722 1751 613 c 0,86,87
 1814 531 1814 531 1814 411 c 0,88,89
 1814 381 1814 381 1810 350 c 0,90,91
 1792 192 1792 192 1667 89 c 0,92,93
 1536 -20 1536 -20 1383 -20 c 0,74,75
697 -20 m 1,94,-1
 484 93 l 1,95,-1
 1460 1530 l 1,96,-1
 1470 1530 l 1,97,-1
 1682 1417 l 1,98,-1
 707 -20 l 1,99,-1
 697 -20 l 1,94,-1
784 1530 m 0,100,101
 950 1530 950 1530 1034 1421 c 0,102,103
 1097 1339 1097 1339 1097 1219 c 0,104,105
 1097 1189 1097 1189 1093 1158 c 0,106,107
 1075 1000 1075 1000 950 897 c 0,108,109
 819 788 819 788 666 788 c 0,110,111
 498 788 498 788 416 897 c 0,112,113
 353 981 353 981 353 1098 c 0,114,115
 353 1128 353 1128 357 1160 c 0,116,117
 377 1320 377 1320 500 1421 c 0,118,119
 632 1530 632 1530 784 1530 c 0,100,101
EndSplineSet
Validated: 1
EndChar

StartChar: minute
Encoding: 8242 8242 143
Width: 450
GlyphClass: 2
Flags: W
HStem: 1140 460
VStem: 287 452
LayerCount: 2
Fore
SplineSet
543 1600 m 1,0,-1
 553 1600 l 1,1,-1
 739 1501 l 1,2,-1
 430 1140 l 1,3,-1
 420 1140 l 1,4,-1
 287 1210 l 1,5,-1
 543 1600 l 1,0,-1
EndSplineSet
Validated: 1
EndChar

StartChar: second
Encoding: 8243 8243 144
Width: 770
GlyphClass: 2
Flags: W
HStem: 1140 460
LayerCount: 2
Fore
SplineSet
863 1600 m 1,0,-1
 873 1600 l 1,1,-1
 1059 1501 l 1,2,-1
 750 1140 l 1,3,-1
 740 1140 l 1,4,-1
 607 1210 l 1,5,-1
 863 1600 l 1,0,-1
543 1600 m 1,6,-1
 553 1600 l 1,7,-1
 739 1501 l 1,8,-1
 430 1140 l 1,9,-1
 420 1140 l 1,10,-1
 287 1210 l 1,11,-1
 543 1600 l 1,6,-1
EndSplineSet
Validated: 1
EndChar

StartChar: guilsinglleft
Encoding: 8249 8249 145
Width: 811
GlyphClass: 2
Flags: W
VStem: 270 633
DStem2: 544 857 270 755 0.35398 -0.935253<0 525.631> 270 755 544 857 0.626077 0.779761<251.081 793.832>
LayerCount: 2
Fore
SplineSet
270 755 m 1,0,-1
 767 1374 l 1,1,-1
 777 1374 l 1,2,-1
 903 1307 l 1,3,-1
 544 857 l 1,4,-1
 729 365 l 1,5,-1
 470 253 l 1,6,-1
 460 253 l 1,7,-1
 270 755 l 1,0,-1
EndSplineSet
Validated: 1
EndChar

StartChar: guilsinglright
Encoding: 8250 8250 146
Width: 811
GlyphClass: 2
Flags: W
VStem: 229 633
DStem2: 229 203 365 136 0.626077 0.779761<32.9024 575.654> 672 1257 403 1145 0.35398 -0.935253<9.52766 535.158>
LayerCount: 2
Fore
SplineSet
862 755 m 1,0,-1
 365 136 l 1,1,-1
 355 136 l 1,2,-1
 229 203 l 1,3,-1
 588 653 l 1,4,-1
 403 1145 l 1,5,-1
 662 1257 l 1,6,-1
 672 1257 l 1,7,-1
 862 755 l 1,0,-1
EndSplineSet
Validated: 1
EndChar

StartChar: fraction
Encoding: 8260 8260 147
Width: 937
GlyphClass: 2
Flags: W
HStem: -20 21G<205.301 266.57> 1510 20G<992.416 1053.52>
DStem2: 30 93 253 -20 0.561853 0.827237<31.8155 1737.11>
LayerCount: 2
Fore
SplineSet
243 -20 m 1,0,-1
 30 93 l 1,1,-1
 1006 1530 l 1,2,-1
 1016 1530 l 1,3,-1
 1228 1417 l 1,4,-1
 253 -20 l 1,5,-1
 243 -20 l 1,0,-1
EndSplineSet
Validated: 1
EndChar

StartChar: Euro
Encoding: 8364 8364 148
Width: 1440
GlyphClass: 2
Flags: W
HStem: -20 150<652.113 954.487> 586 140<255 325 684 1034> 786 140<298 367 727 1076> 1380 150<896.482 1200.47>
VStem: 294 302<210.102 519.203> 1250 295<1112 1292.8>
DStem2: 195.746 -20 526.18 -20 0.207912 0.978148<425.902 619.631 1035.78 1318.51>
LayerCount: 2
Fore
SplineSet
788 -20 m 128,-1,1
 550 -20 550 -20 402 127 c 0,2,3
 294 234 294 234 294 393 c 0,4,5
 294 442 294 442 305 494 c 2,6,-1
 325 586 l 1,7,-1
 165 586 l 1,8,-1
 167 596 l 1,9,-1
 255 726 l 1,10,-1
 354 726 l 1,11,-1
 367 786 l 1,12,-1
 207 786 l 1,13,-1
 209 796 l 1,14,-1
 298 926 l 1,15,-1
 397 926 l 1,16,-1
 416 1016 l 2,17,18
 469 1265 469 1265 630 1384 c 0,19,20
 827 1530 827 1530 1061 1530 c 0,21,22
 1310 1530 1310 1530 1442 1378 c 0,23,24
 1544 1259 1544 1259 1545 1112 c 1,25,-1
 1211 967 l 1,26,-1
 1201 967 l 1,27,-1
 1245 1178 l 2,28,29
 1250 1202 1250 1202 1250 1225 c 0,30,31
 1250 1284 1250 1284 1214 1324 c 0,32,33
 1164 1380 1164 1380 1060 1380 c 128,-1,34
 956 1380 956 1380 878 1324 c 0,35,36
 799 1267 799 1267 780 1178 c 2,37,-1
 727 926 l 1,38,-1
 1167 926 l 1,39,-1
 1165 916 l 1,40,-1
 1076 786 l 1,41,-1
 697 786 l 1,42,-1
 684 726 l 1,43,-1
 1124 726 l 1,44,-1
 1122 716 l 1,45,-1
 1034 586 l 1,46,-1
 655 586 l 1,47,-1
 601 332 l 2,48,49
 596 308 596 308 596 288 c 0,50,51
 596 228 596 228 637 186 c 0,52,53
 692 130 692 130 795 130 c 128,-1,54
 898 130 898 130 972 186 c 0,55,56
 1047 243 1047 243 1066 332 c 2,57,-1
 1081 404 l 1,58,-1
 1439 558 l 1,59,-1
 1449 558 l 1,60,-1
 1437 502 l 2,61,62
 1383 251 1383 251 1221 128 c 0,63,0
 1026 -20 1026 -20 788 -20 c 128,-1,1
EndSplineSet
Validated: 1
EndChar

StartChar: afii61248
Encoding: 8453 8453 149
Width: 1714
GlyphClass: 2
Flags: W
HStem: -20 96<1238.67 1413.37> 698 97<1352.8 1519.33> 716 96<511.848 679.286> 1435 95<617.296 786.336>
VStem: 314 188<826.405 1094.65> 796 191<1286 1412.5> 1046 188<84.0957 352.977> 1533 187<422.023 683.267>
DStem2: 104.893 -20 310.148 -20 0.207912 0.978148<981.337 1481.62> 418 93 641 -20 0.561853 0.827237<31.8155 1737.11> 993.334 -20 1198.59 -20 0.207912 0.978148<231.798 721.823> 1395.18 -20 1599.43 -20 0.207912 0.978148<152.348 644.855>
LayerCount: 2
Fore
SplineSet
1318 76 m 0,0,1
 1360 76 1360 76 1393 100 c 0,2,3
 1425 123 1425 123 1432 156 c 2,4,-1
 1531 619 l 2,5,6
 1533 626 1533 626 1533 633 c 0,7,8
 1533 658 1533 658 1513 676 c 0,9,10
 1488 698 1488 698 1449 698 c 0,11,12
 1408 698 1408 698 1375 675 c 0,13,14
 1341 651 1341 651 1335 619 c 2,15,-1
 1236 156 l 2,16,17
 1234 149 1234 149 1234 142 c 0,18,19
 1234 118 1234 118 1254 100 c 0,20,21
 1279 76 1279 76 1318 76 c 0,0,1
723 1530 m 0,22,23
 861 1530 861 1530 928 1449 c 0,24,25
 984 1382 984 1382 987 1286 c 1,26,-1
 773 1208 l 1,27,-1
 763 1208 l 1,28,-1
 794 1355 l 2,29,30
 796 1365 796 1365 796 1374 c 0,31,32
 796 1397 796 1397 782 1413 c 0,33,34
 762 1435 762 1435 716 1435 c 128,-1,35
 670 1435 670 1435 640 1413 c 128,-1,36
 610 1391 610 1391 602 1355 c 2,37,-1
 504 892 l 2,38,39
 502 882 502 882 502 873 c 0,40,41
 502 850 502 850 517 834 c 0,42,43
 538 812 538 812 584 812 c 128,-1,44
 630 812 630 812 659 834 c 128,-1,45
 688 856 688 856 696 892 c 2,46,-1
 710 957 l 1,47,-1
 928 1045 l 1,48,-1
 938 1045 l 1,49,-1
 927 997 l 2,50,51
 896 861 896 861 810 796 c 0,52,53
 704 716 704 716 579.5 716 c 128,-1,54
 455 716 455 716 375 795 c 0,55,56
 314 855 314 855 314 938 c 0,57,58
 314 964 314 964 320 992 c 2,59,-1
 376 1255 l 2,60,61
 404 1386 404 1386 492 1452 c 0,62,63
 598 1530 598 1530 723 1530 c 0,22,23
631 -20 m 1,64,-1
 418 93 l 1,65,-1
 1394 1530 l 1,66,-1
 1404 1530 l 1,67,-1
 1616 1417 l 1,68,-1
 641 -20 l 1,69,-1
 631 -20 l 1,64,-1
1307 -20 m 0,70,71
 1178 -20 1178 -20 1106 60 c 0,72,73
 1047 124 1047 124 1046 205 c 0,74,75
 1046 230 1046 230 1052 256 c 2,76,-1
 1108 519 l 2,77,78
 1136 649 1136 649 1232 718 c 0,79,80
 1340 795 1340 795 1462 795 c 0,81,82
 1591 795 1591 795 1662 716 c 0,83,84
 1720 651 1720 651 1720 571 c 0,85,86
 1720 546 1720 546 1714 519 c 2,87,-1
 1658 256 l 2,88,89
 1631 128 1631 128 1536 58 c 0,90,91
 1431 -20 1431 -20 1307 -20 c 0,70,71
EndSplineSet
Validated: 1
EndChar

StartChar: afii61289
Encoding: 8467 8467 150
Width: 1247
GlyphClass: 2
Flags: W
HStem: -20 236<632 800.645> 0 21G<110 490.364> 1510 20G<1129.5 1227>
LayerCount: 2
Fore
SplineSet
686 -20 m 0,0,1
 578 -20 578 -20 510 44 c 1,2,-1
 474 0 l 1,3,-1
 110 0 l 1,4,5
 306 162 306 162 444 325 c 1,6,7
 453 420 453 420 475 524 c 0,8,9
 509 686 509 686 595 865 c 0,10,11
 773 1240 773 1240 963 1423 c 0,12,13
 1074 1530 1074 1530 1185 1530 c 0,14,15
 1269 1530 1269 1530 1309 1480 c 0,16,17
 1341 1439 1341 1439 1341 1371 c 0,18,19
 1341 1331 1341 1331 1330 1281 c 0,20,21
 1310 1186 1310 1186 1250 1041 c 0,22,23
 1105 688 1105 688 734 272 c 1,24,25
 731 254 731 254 731 242 c 0,26,27
 731 216 731 216 745 216 c 0,28,29
 766 216 766 216 800 260 c 0,30,31
 821 286 821 286 839 319 c 1,32,-1
 1155 319 l 1,33,34
 1025 144 1025 144 910.5 62 c 128,-1,35
 796 -20 796 -20 686 -20 c 0,0,1
EndSplineSet
Validated: 1
EndChar

StartChar: trademark
Encoding: 8482 8482 151
Width: 1791
GlyphClass: 2
Flags: W
HStem: 1443 94<426 578 778 950 1179.92 1355.07 1586.29 1760.58>
VStem: 1772 183<1160.03 1426.61>
DStem2: 427 723 627.058 723 0.207912 0.978148<118.27 726.858> 825 723 1025.06 723 0.207912 0.978148<118.27 730.84> 1230 723 1430.06 723 0.207912 0.978148<118.27 666.969> 1635 723 1835.06 723 0.207912 0.978148<118.27 646.756>
LayerCount: 2
Fore
SplineSet
1645 723 m 1,0,-1
 1635 723 l 1,1,-1
 1770 1358 l 2,2,3
 1772 1368 1772 1368 1772 1376 c 0,4,5
 1772 1402 1772 1402 1754 1419 c 0,6,7
 1729 1443 1729 1443 1686 1443 c 0,8,9
 1644 1443 1644 1443 1608 1418 c 0,10,11
 1573 1393 1573 1393 1565 1358 c 2,12,-1
 1446 798 l 1,13,-1
 1240 723 l 1,14,-1
 1230 723 l 1,15,-1
 1365 1358 l 2,16,17
 1367 1368 1367 1368 1367 1376 c 0,18,19
 1367 1402 1367 1402 1349 1419 c 0,20,21
 1324 1443 1324 1443 1280 1443 c 0,22,23
 1237 1442 1237 1442 1202 1418 c 0,24,25
 1168 1395 1168 1395 1160 1358 c 2,26,-1
 1041 798 l 1,27,-1
 835 723 l 1,28,-1
 825 723 l 1,29,-1
 939 1262 l 2,30,31
 968 1396 968 1396 1056 1460 c 0,32,33
 1162 1537 1162 1537 1282 1537 c 128,-1,34
 1402 1537 1402 1537 1473 1469 c 1,35,36
 1574 1537 1574 1537 1696 1537 c 128,-1,37
 1818 1537 1818 1537 1896 1458 c 0,38,39
 1955 1398 1955 1398 1955 1317 c 0,40,41
 1955 1291 1955 1291 1949 1262 c 2,42,-1
 1851 798 l 1,43,-1
 1645 723 l 1,0,-1
426 1530 m 1,44,-1
 1011 1530 l 1,45,-1
 1009 1520 l 1,46,-1
 950 1434 l 1,47,-1
 778 1434 l 1,48,-1
 643 798 l 1,49,-1
 437 723 l 1,50,-1
 427 723 l 1,51,-1
 578 1434 l 1,52,-1
 365 1434 l 1,53,-1
 367 1444 l 1,54,-1
 426 1530 l 1,44,-1
EndSplineSet
Validated: 1
EndChar

StartChar: uni2126
Encoding: 8486 8486 152
Width: 1450
GlyphClass: 2
Flags: W
HStem: 0 293<648.234 688 824 947.908> 0 150<259 484 1029 1223> 1380 150<850.398 1164.81>
VStem: 292 291<377.757 695.117> 1225 294<1112.46 1295.44>
DStem2: 160.336 0 480.446 0 0.207912 0.978148<571.167 1302.3> 970.446 0 1290.34 0 0.207912 0.978148<509.101 1210.09>
LayerCount: 2
Fore
SplineSet
688 0 m 1,0,-1
 160 0 l 1,1,-1
 162 10 l 1,2,-1
 259 150 l 1,3,-1
 484 150 l 1,4,-1
 505 250 l 1,5,6
 292 324 292 324 292 554 c 0,7,8
 292 616 292 616 307 690 c 2,9,-1
 378 1025 l 2,10,11
 430 1269 430 1269 590 1386 c 0,12,13
 787 1530 787 1530 1019 1530 c 0,14,15
 1269 1530 1269 1530 1409 1386 c 0,16,17
 1519 1272 1519 1272 1519 1122 c 0,18,19
 1519 1075 1519 1075 1508 1025 c 2,20,-1
 1437 690 l 2,21,22
 1357 310 1357 310 1050 250 c 1,23,-1
 1029 150 l 1,24,-1
 1322 150 l 1,25,-1
 1320 140 l 1,26,-1
 1223 0 l 1,27,-1
 762 0 l 1,28,-1
 824 292 l 1,29,30
 1043 341 1043 341 1078 506 c 2,31,-1
 1220 1178 l 2,32,33
 1225 1200 1225 1200 1225 1220 c 0,34,35
 1225 1281 1225 1281 1181 1323 c 0,36,37
 1120 1380 1120 1380 1018 1380 c 0,38,39
 912 1380 912 1380 830 1323 c 0,40,41
 749 1267 749 1267 730 1178 c 2,42,-1
 588 506 l 2,43,44
 583 482 583 482 583 460 c 0,45,46
 583 335 583 335 750 293 c 1,47,-1
 688 0 l 1,0,-1
EndSplineSet
Validated: 1
EndChar

StartChar: estimated
Encoding: 8494 8494 153
Width: 1241
GlyphClass: 2
Flags: W
HStem: -20 183<484.071 844.178> 491 189<538 990> 935 185<629.618 988.502>
LayerCount: 2
Fore
SplineSet
615 -20 m 0,0,1
 364 -20 364 -20 245 145 c 0,2,3
 162 260 162 260 162 412 c 0,4,5
 162 479 162 479 178 553 c 0,6,7
 231 802 231 802 420 960 c 0,8,9
 612 1120 612 1120 854 1120 c 0,10,11
 1097 1120 1097 1120 1214 974 c 0,12,13
 1306 858 1306 858 1306 679 c 0,14,15
 1306 593 1306 593 1285 491 c 1,16,-1
 497 491 l 1,17,-1
 444 239 l 1,18,19
 523 163 523 163 654 163 c 0,20,21
 862 163 862 163 1020 351 c 1,22,-1
 1163 255 l 1,23,24
 1003 85 1003 85 873 32.5 c 128,-1,25
 743 -20 743 -20 615 -20 c 0,0,1
990 680 m 1,26,-1
 1028 862 l 1,27,28
 946 935 946 935 816 935 c 0,29,30
 684 935 684 935 576 861 c 1,31,-1
 538 680 l 1,32,-1
 990 680 l 1,26,-1
EndSplineSet
Validated: 1
EndChar

StartChar: partialdiff
Encoding: 8706 8706 154
Width: 1325
GlyphClass: 2
Flags: W
HStem: -20 273<518.171 730.08> 823 260<742.537 985.899> 1257 273<781.982 1086.06>
VStem: 183 317<275.435 519.417> 1130 310<1024.77 1213.04>
LayerCount: 2
Fore
SplineSet
528 -20 m 0,0,1
 258 -20 258 -20 199 171 c 0,2,3
 183 223 183 223 183 285 c 0,4,5
 183 345 183 345 198 416 c 0,6,7
 253 673 253 673 450.5 878 c 128,-1,8
 648 1083 648 1083 920 1083 c 0,9,10
 1039 1083 1039 1083 1124 1024 c 1,11,12
 1130 1059 1130 1059 1130 1089 c 0,13,14
 1130 1138 1130 1138 1114 1173 c 0,15,16
 1075 1257 1075 1257 953 1257 c 0,17,18
 798 1257 798 1257 621 1132 c 1,19,-1
 687 1443 l 1,20,21
 851 1530 851 1530 1048 1530 c 0,22,23
 1365 1530 1365 1530 1426 1271 c 0,24,25
 1440 1213 1440 1213 1440 1145 c 0,26,27
 1440 1057 1440 1057 1417 950 c 0,28,29
 1335 563 1335 563 1090 272 c 0,30,31
 847 -20 847 -20 528 -20 c 0,0,1
1028 699 m 1,32,33
 1019 756 1019 756 982 788 c 0,34,35
 942 823 942 823 875 823 c 0,36,37
 766 823 766 823 660 706 c 0,38,39
 535 567 535 567 507 431 c 0,40,41
 500 396 500 396 500 367 c 0,42,43
 500 324 500 324 516 295 c 0,44,45
 539 253 539 253 599 253 c 0,46,47
 706 253 706 253 827 376 c 128,-1,48
 948 499 948 499 1028 699 c 1,32,33
EndSplineSet
Validated: 1
EndChar

StartChar: uni2206
Encoding: 8710 8710 155
Width: 1505
GlyphClass: 2
Flags: W
HStem: 0 150<273 1150> 1510 20G<1143.69 1203.92>
DStem2: 5 0 273 150 0.533902 0.845546<269.918 1521.69> 1200 1530 942 1208 0.192414 -0.981314<266.34 1344.59>
LayerCount: 2
Fore
SplineSet
5 0 m 1,0,-1
 889 1400 l 1,1,-1
 1190 1530 l 1,2,-1
 1200 1530 l 1,3,-1
 1500 0 l 1,4,-1
 5 0 l 1,0,-1
273 150 m 1,5,-1
 1150 150 l 1,6,-1
 942 1208 l 1,7,-1
 273 150 l 1,5,-1
EndSplineSet
Validated: 1
EndChar

StartChar: product
Encoding: 8719 8719 156
Width: 1440
GlyphClass: 2
Flags: W
HStem: -430 21G<69 125.395 869 925.395> 1360 150<769 1249>
DStem2: 69 -430 388.754 -430 0.207912 0.978148<216.765 1854.41> 869 -430 1188.75 -430 0.207912 0.978148<216.765 1829.89>
LayerCount: 2
Fore
SplineSet
79 -430 m 1,0,-1
 69 -430 l 1,1,-1
 454 1384 l 1,2,-1
 749 1510 l 1,3,-1
 1601 1510 l 1,4,-1
 1220 -283 l 1,5,-1
 879 -430 l 1,6,-1
 869 -430 l 1,7,-1
 1249 1360 l 1,8,-1
 769 1360 l 1,9,-1
 420 -283 l 1,10,-1
 79 -430 l 1,0,-1
EndSplineSet
Validated: 1
EndChar

StartChar: summation
Encoding: 8721 8721 157
Width: 1284
GlyphClass: 2
Flags: W
HStem: -410 150<454 1020> 1360 150<754 1390>
DStem2: -27 -410 454 -260 0.591399 0.806379<405.42 1232.67> 754 1360 377 1427 0.359721 -0.93306<0 705.349>
LayerCount: 2
Fore
SplineSet
-27 -410 m 1,0,-1
 702 584 l 1,1,-1
 377 1427 l 1,2,-1
 571 1510 l 1,3,-1
 1489 1510 l 1,4,-1
 1487 1500 l 1,5,-1
 1390 1360 l 1,6,-1
 754 1360 l 1,7,-1
 1070 562 l 1,8,-1
 454 -260 l 1,9,-1
 1119 -260 l 1,10,-1
 1117 -270 l 1,11,-1
 1020 -410 l 1,12,-1
 -27 -410 l 1,0,-1
EndSplineSet
Validated: 1
EndChar

StartChar: minus
Encoding: 8722 8722 158
Width: 1240
GlyphClass: 2
Flags: W
HStem: 620 270<424 1137>
LayerCount: 2
Fore
SplineSet
424 890 m 1,0,-1
 1319 890 l 1,1,-1
 1317 880 l 1,2,-1
 1137 620 l 1,3,-1
 242 620 l 1,4,-1
 244 630 l 1,5,-1
 424 890 l 1,0,-1
EndSplineSet
Validated: 1
EndChar

StartChar: uni2215
Encoding: 8725 8725 159
Width: 937
GlyphClass: 2
Flags: W
HStem: -20 21G<205.301 266.57> 1510 20G<992.416 1053.52>
DStem2: 30 93 253 -20 0.561853 0.827237<31.8155 1737.11>
LayerCount: 2
Fore
SplineSet
243 -20 m 1,0,-1
 30 93 l 1,1,-1
 1006 1530 l 1,2,-1
 1016 1530 l 1,3,-1
 1228 1417 l 1,4,-1
 253 -20 l 1,5,-1
 243 -20 l 1,0,-1
EndSplineSet
Validated: 1
EndChar

StartChar: uni2219
Encoding: 8729 8729 160
Width: 420
GlyphClass: 2
Flags: W
HStem: 573 365<282.097 458.323>
VStem: 186 369<668.75 842.936>
LayerCount: 2
Fore
SplineSet
409 938 m 0,0,1
 485 938 485 938 526 885 c 0,2,3
 555 847 555 847 555 796 c 0,4,5
 555 777 555 777 551 756 c 0,6,7
 535 681 535 681 470.5 627 c 128,-1,8
 406 573 406 573 332 573 c 0,9,10
 256 573 256 573 216 627 c 0,11,12
 186 666 186 666 186 716 c 0,13,14
 186 735 186 735 190 755 c 0,15,16
 206 831 206 831 270 884 c 0,17,18
 334 938 334 938 409 938 c 0,0,1
EndSplineSet
Validated: 1
EndChar

StartChar: radical
Encoding: 8730 8730 161
Width: 1176
GlyphClass: 2
Flags: W
HStem: -20 21G<296.505 356.508> 1510 20G<1328.13 1390.08>
DStem2: 447 858 167 741 0.172161 -0.985069<67.0481 565.603> 551 302 603 106 0.541352 0.840796<0 1460.17>
LayerCount: 2
Fore
SplineSet
310 -20 m 1,0,-1
 300 -20 l 1,1,-1
 167 741 l 1,2,-1
 437 858 l 1,3,-1
 447 858 l 1,4,-1
 551 302 l 1,5,-1
 1341 1530 l 1,6,-1
 1351 1530 l 1,7,-1
 1478 1465 l 1,8,-1
 603 106 l 1,9,-1
 310 -20 l 1,0,-1
EndSplineSet
Validated: 1
EndChar

StartChar: infinity
Encoding: 8734 8734 162
Width: 1476
GlyphClass: 2
Flags: W
HStem: 384 101<494.502 678.709 1022.85 1206.3> 1020 104<590.143 773.587 1119.02 1301.55>
VStem: 256 222<533.577 844.262> 790 216<656.658 843.196> 1318 223<657.495 972.439>
LayerCount: 2
Fore
SplineSet
1104 485 m 128,-1,1
 1159 485 1159 485 1210 532.5 c 128,-1,2
 1261 580 1261 580 1298 752 c 0,3,4
 1318 846 1318 846 1318 903 c 0,5,6
 1318 950 1318 950 1304 972 c 0,7,8
 1273 1020 1273 1020 1218 1020 c 128,-1,9
 1163 1020 1163 1020 1114 972 c 0,10,11
 1064 924 1064 924 1027 752 c 0,12,13
 1006 654 1006 654 1006 599 c 0,14,15
 1006 555 1006 555 1020 532 c 0,16,0
 1049 485 1049 485 1104 485 c 128,-1,1
576 485 m 128,-1,18
 631 485 631 485 682 532.5 c 128,-1,19
 733 580 733 580 770 752 c 0,20,21
 790 846 790 846 790 903 c 0,22,23
 790 950 790 950 776 972 c 0,24,25
 745 1020 745 1020 690 1020 c 128,-1,26
 635 1020 635 1020 586 972 c 0,27,28
 536 924 536 924 499 752 c 0,29,30
 478 654 478 654 478 599 c 0,31,32
 478 555 478 555 492 532 c 0,33,17
 521 485 521 485 576 485 c 128,-1,18
693 1124 m 0,34,35
 855 1124 855 1124 933 1010 c 1,36,37
 1066 1124 1066 1124 1219.5 1124 c 128,-1,38
 1373 1124 1373 1124 1466 1016 c 0,39,40
 1541 929 1541 929 1541 812 c 0,41,42
 1540 784 1540 784 1536 754 c 0,43,44
 1516 601 1516 601 1385 492 c 0,45,46
 1256 384 1256 384 1104 384 c 0,47,48
 942 384 942 384 864 498 c 1,49,50
 728 384 728 384 576 384 c 128,-1,51
 424 384 424 384 331 492 c 0,52,53
 256 579 256 579 256 696 c 0,54,55
 256 723 256 723 260 754 c 0,56,57
 280 907 280 907 412 1016 c 0,58,59
 541 1124 541 1124 693 1124 c 0,34,35
EndSplineSet
Validated: 1
EndChar

StartChar: approxequal
Encoding: 8776 8776 163
Width: 1178
GlyphClass: 2
Flags: W
HStem: 265 212<736.378 983.553> 535 212<410.066 656.622> 765 212<842.378 1089.55> 1035 212<516.066 762.622>
LayerCount: 2
Fore
SplineSet
575 747 m 0,0,1
 756 747 756 747 802 594 c 0,2,3
 819 537 819 537 835 513 c 0,4,5
 859 477 859 477 908 477 c 0,6,7
 1012 477 1012 477 1055 678 c 1,8,-1
 1217 747 l 1,9,-1
 1227 747 l 1,10,11
 1125 265 1125 265 818 265 c 0,12,13
 637 265 637 265 591 418 c 0,14,15
 574 475 574 475 558 499 c 0,16,17
 534 535 534 535 486 535 c 0,18,19
 382 535 382 535 338 334 c 1,20,-1
 176 265 l 1,21,-1
 166 265 l 1,22,23
 269 747 269 747 575 747 c 0,0,1
681 1247 m 0,24,25
 862 1247 862 1247 908 1094 c 0,26,27
 925 1037 925 1037 941 1013 c 0,28,29
 965 977 965 977 1014 977 c 0,30,31
 1118 977 1118 977 1161 1178 c 1,32,-1
 1323 1247 l 1,33,-1
 1333 1247 l 1,34,35
 1231 765 1231 765 924 765 c 0,36,37
 743 765 743 765 697 918 c 0,38,39
 680 975 680 975 664 999 c 0,40,41
 640 1035 640 1035 592 1035 c 0,42,43
 488 1035 488 1035 444 834 c 1,44,-1
 282 765 l 1,45,-1
 272 765 l 1,46,47
 375 1247 375 1247 681 1247 c 0,24,25
EndSplineSet
Validated: 1
EndChar

StartChar: notequal
Encoding: 8800 8800 164
Width: 1240
GlyphClass: 2
Flags: W
HStem: 390 270<375 448 617 631 800 1088> 850 270<473 760 930 943 1113 1186>
DStem2: 298 170 465 166 0.561828 0.827254<90.5163 266.27 687.392 822.097 1243.78 1420.36>
LayerCount: 2
Fore
SplineSet
473 1120 m 1,0,-1
 943 1120 l 1,1,-1
 1096 1345 l 1,2,-1
 1255 1345 l 1,3,-1
 1263 1341 l 1,4,-1
 1113 1120 l 1,5,-1
 1368 1120 l 1,6,-1
 1366 1110 l 1,7,-1
 1186 850 l 1,8,-1
 930 850 l 1,9,-1
 800 660 l 1,10,-1
 1270 660 l 1,11,-1
 1268 650 l 1,12,-1
 1088 390 l 1,13,-1
 617 390 l 1,14,-1
 465 166 l 1,15,-1
 306 166 l 1,16,-1
 298 170 l 1,17,-1
 448 390 l 1,18,-1
 193 390 l 1,19,-1
 195 400 l 1,20,-1
 375 660 l 1,21,-1
 631 660 l 1,22,-1
 760 850 l 1,23,-1
 291 850 l 1,24,-1
 293 860 l 1,25,-1
 473 1120 l 1,0,-1
EndSplineSet
Validated: 1
EndChar

StartChar: lessequal
Encoding: 8804 8804 165
Width: 1355
GlyphClass: 2
Flags: W
HStem: 154 270<325 1103>
DStem2: 647 968 282 806 0.933479 -0.358631<0 679.37> 452 1059 647 968 0.945835 0.324646<154.895 1017.63>
LayerCount: 2
Fore
SplineSet
452 1059 m 1,0,-1
 1428 1394 l 1,1,-1
 1464 1261 l 1,2,-1
 1462 1251 l 1,3,-1
 647 968 l 1,4,-1
 1346 707 l 1,5,-1
 1343 697 l 1,6,-1
 1180 461 l 1,7,-1
 282 806 l 1,8,-1
 284 816 l 1,9,-1
 452 1059 l 1,0,-1
325 424 m 1,10,-1
 1285 424 l 1,11,-1
 1283 414 l 1,12,-1
 1103 154 l 1,13,-1
 143 154 l 1,14,-1
 145 164 l 1,15,-1
 325 424 l 1,10,-1
EndSplineSet
Validated: 1
EndChar

StartChar: greaterequal
Encoding: 8805 8805 166
Width: 1355
GlyphClass: 2
Flags: W
HStem: 154 270<375 1153>
DStem2: 284 587 318 444 0.945835 0.324646<0 862.731> 566 1377 400 1131 0.933479 -0.358631<0 679.37>
LayerCount: 2
Fore
SplineSet
1294 779 m 1,0,-1
 318 444 l 1,1,-1
 282 577 l 1,2,-1
 284 587 l 1,3,-1
 1099 870 l 1,4,-1
 400 1131 l 1,5,-1
 403 1141 l 1,6,-1
 566 1377 l 1,7,-1
 1464 1032 l 1,8,-1
 1462 1022 l 1,9,-1
 1294 779 l 1,0,-1
375 424 m 1,10,-1
 1335 424 l 1,11,-1
 1333 414 l 1,12,-1
 1153 154 l 1,13,-1
 193 154 l 1,14,-1
 195 164 l 1,15,-1
 375 424 l 1,10,-1
EndSplineSet
Validated: 1
EndChar

StartChar: lozenge
Encoding: 9674 9674 167
Width: 1178
GlyphClass: 2
Flags: W
HStem: -20 21G<575.29 603.16> 1510 20G<896.399 923.176>
DStem2: 217 738 476 830 0.660649 0.750695<240.172 683.724> 476 830 217 738 0.436739 -0.899588<0 572.01> 727 316 585 -20 0.672237 0.740336<0 436.366> 914 1530 769 1163 0.417012 -0.908901<273.1 848.73>
LayerCount: 2
Fore
SplineSet
727 316 m 1,0,-1
 1016 643 l 1,1,-1
 769 1163 l 1,2,-1
 476 830 l 1,3,-1
 727 316 l 1,0,-1
585 -20 m 1,4,-1
 217 738 l 1,5,-1
 914 1530 l 1,6,-1
 1276 741 l 1,7,-1
 585 -20 l 1,4,-1
EndSplineSet
Validated: 1
EndChar

StartChar: Oslash
Encoding: 216 216 168
Width: 1370
Flags: W
HStem: -20 150<565.794 877.222> 1379 151<816.145 1125.84>
DStem2: 111.495 -40 431.639 -40 0.207912 0.978148<487.306 1338.85> 242 -36 371 -40 0.562139 0.827043<69.2077 181.894 492.319 1494.56 1805.37 1917.11> 921.396 -40 1241.54 -40 0.207912 0.978148<353.191 1204.3>
LayerCount: 2
Fore
SplineSet
714.5 130 m 128,-1,1
 818 130 818 130 900 187 c 128,-1,2
 982 244 982 244 1001 332 c 2,3,-1
 1172 1139 l 1,4,-1
 536 203 l 1,5,6
 543 194 543 194 552 186 c 0,7,0
 611 130 611 130 714.5 130 c 128,-1,1
519 371 m 1,8,-1
 1155 1307 l 1,9,10
 1148 1315 1148 1315 1139 1323 c 0,11,12
 1081 1379 1081 1379 978 1379 c 0,13,14
 875 1378 875 1378 793 1322 c 0,15,16
 709 1264 709 1264 690 1178 c 2,17,-1
 519 371 l 1,8,-1
371 -40 m 1,18,-1
 250 -40 l 1,19,-1
 242 -36 l 1,20,-1
 343 113 l 1,21,22
 335 120 335 120 328 127 c 0,23,24
 214 239 214 239 214 393 c 0,25,26
 214 441 214 441 225 494 c 2,27,-1
 336 1016 l 2,28,29
 389 1265 389 1265 550 1384 c 0,30,31
 748 1530 748 1530 982 1530 c 0,32,33
 1140 1530 1140 1530 1259 1462 c 1,34,-1
 1319 1550 l 1,35,-1
 1440 1550 l 1,36,-1
 1449 1546 l 1,37,-1
 1348 1398 l 1,38,39
 1356 1391 1356 1391 1364 1383 c 0,40,41
 1477 1271 1477 1271 1477 1117 c 0,42,43
 1477 1068 1477 1068 1466 1016 c 2,44,-1
 1355 494 l 2,45,46
 1302 245 1302 245 1142 126 c 0,47,48
 946 -20 946 -20 712 -20 c 0,49,50
 552 -20 552 -20 431 49 c 1,51,-1
 371 -40 l 1,18,-1
EndSplineSet
Validated: 1
EndChar

StartChar: oslash
Encoding: 248 248 169
Width: 1190
Flags: W
HStem: -20 140<512.14 762.297> 980 140<661.867 913.09>
DStem2: 111.837 -40 411.117 -40 0.207912 0.978148<427.697 986.885> 321 74 377 -40 0.561983 0.827149<-62.8239 7.42553 294.286 932.068 1220.05 1289.18> 761.658 -40 1061.84 -40 0.207912 0.978148<282.151 840.973>
LayerCount: 2
Fore
SplineSet
622 120 m 0,0,1
 696 120 696 120 755 159 c 0,2,3
 812 198 812 198 825 258 c 2,4,-1
 936 783 l 1,5,-1
 510 154 l 1,6,7
 552 120 552 120 622 120 c 0,0,1
487 317 m 1,8,-1
 914 946 l 1,9,10
 872 980 872 980 802 980 c 0,11,12
 728 980 728 980 669 941 c 0,13,14
 612 902 612 902 599 842 c 2,15,-1
 487 317 l 1,8,-1
377 -40 m 1,16,-1
 256 -40 l 1,17,-1
 247 -36 l 1,18,-1
 321 74 l 1,19,20
 305 87 305 87 292 102 c 0,21,22
 198 203 198 203 198 328 c 0,23,24
 198 365 198 365 206 403 c 2,25,-1
 268 697 l 2,26,27
 312 904 312 904 442 999 c 0,28,29
 609 1120 609 1120 804 1120 c 0,30,31
 921 1120 921 1120 1008 1084 c 1,32,-1
 1046 1140 l 1,33,-1
 1167 1140 l 1,34,-1
 1176 1136 l 1,35,-1
 1102 1027 l 1,36,37
 1118 1013 1118 1013 1132 998 c 0,38,39
 1226 897 1226 897 1226 772 c 0,40,41
 1226 735 1226 735 1218 697 c 2,42,-1
 1156 403 l 2,43,44
 1112 197 1112 197 981 101 c 0,45,46
 816 -20 816 -20 620 -20 c 0,47,48
 502 -20 502 -20 415 16 c 1,49,-1
 377 -40 l 1,16,-1
EndSplineSet
Validated: 1
EndChar

StartChar: multiply
Encoding: 215 215 170
Width: 1232
Flags: W
DStem2: 264 490 521 387 0.771669 0.636024<132.808 411.294 716.76 995.245> 678 1123 377 1020 0.618315 -0.78593<0 225.055 475.197 700.253>
LayerCount: 2
Fore
SplineSet
1283 1027 m 1,0,-1
 1289 1020 l 1,1,-1
 967 755 l 1,2,-1
 1176 490 l 1,3,-1
 1168 483 l 1,4,-1
 875 387 l 1,5,-1
 736 564 l 1,6,-1
 521 387 l 1,7,-1
 270 483 l 1,8,-1
 264 490 l 1,9,-1
 585 755 l 1,10,-1
 377 1020 l 1,11,-1
 385 1027 l 1,12,-1
 678 1123 l 1,13,-1
 817 946 l 1,14,-1
 1032 1123 l 1,15,-1
 1283 1027 l 1,0,-1
EndSplineSet
Validated: 1
EndChar

StartChar: divide
Encoding: 247 247 171
Width: 1240
Flags: W
HStem: 155 365<604.097 780.323> 620 270<424 1137> 990 365<781.097 957.323>
CounterMasks: 1 e0
LayerCount: 2
Fore
SplineSet
654 155 m 0,0,1
 578 155 578 155 538 209 c 0,2,3
 508 248 508 248 508 298 c 0,4,5
 508 317 508 317 512 337 c 0,6,7
 528 413 528 413 592 466 c 0,8,9
 656 520 656 520 731 520 c 0,10,11
 807 520 807 520 848 467 c 0,12,13
 877 429 877 429 877 378 c 0,14,15
 877 359 877 359 873 338 c 0,16,17
 857 263 857 263 792.5 209 c 128,-1,18
 728 155 728 155 654 155 c 0,0,1
908 1355 m 0,19,20
 984 1355 984 1355 1025 1302 c 0,21,22
 1054 1264 1054 1264 1054 1213 c 0,23,24
 1054 1194 1054 1194 1050 1173 c 0,25,26
 1034 1098 1034 1098 969.5 1044 c 128,-1,27
 905 990 905 990 831 990 c 0,28,29
 755 990 755 990 715 1044 c 0,30,31
 685 1083 685 1083 685 1133 c 0,32,33
 685 1152 685 1152 689 1172 c 0,34,35
 705 1248 705 1248 769 1301 c 0,36,37
 833 1355 833 1355 908 1355 c 0,19,20
424 890 m 1,38,-1
 1319 890 l 1,39,-1
 1317 880 l 1,40,-1
 1137 620 l 1,41,-1
 242 620 l 1,42,-1
 244 630 l 1,43,-1
 424 890 l 1,38,-1
EndSplineSet
Validated: 1
EndChar

StartChar: uni1E02
Encoding: 7682 7682 172
Width: 1300
Flags: W
HStem: 0 150<512 879.847> 751 150<672 984.891> 1360 150<769 1086.96> 1589 365<939.097 1115.32>
VStem: 1027 328<345.595 708.284> 1111 289<1020.66 1326.84>
DStem2: 160 0 480.117 0 0.207912 0.978148<219.907 834.386 987.762 1414.88>
LayerCount: 2
Fore
SplineSet
769 1360 m 1,0,-1
 672 901 l 1,1,-1
 887 901 l 2,2,3
 954 901 954 901 1007 940 c 0,4,5
 1069 985 1069 985 1098 1123 c 0,6,7
 1111 1187 1111 1187 1111 1232 c 0,8,9
 1111 1292 1111 1292 1088 1321 c 0,10,11
 1055 1360 1055 1360 984 1360 c 2,12,-1
 769 1360 l 1,0,-1
512 150 m 1,13,-1
 702 150 l 2,14,15
 825 150 825 150 896 206 c 0,16,17
 972 266 972 266 1011 450 c 0,18,19
 1027 526 1027 526 1027 581 c 0,20,21
 1027 659 1027 659 995 697 c 0,22,23
 948 751 948 751 830 751 c 2,24,-1
 640 751 l 1,25,-1
 512 150 l 1,13,-1
160 0 m 1,26,-1
 454 1384 l 1,27,-1
 749 1510 l 1,28,-1
 976 1510 l 2,29,30
 1176 1510 1176 1510 1288 1413 c 0,31,32
 1400 1315 1400 1315 1400 1175 c 0,33,34
 1400 1144 1400 1144 1395 1112 c 0,35,36
 1365 929 1365 929 1208 838 c 1,37,38
 1355 712 1355 712 1355 527 c 0,39,40
 1355 507 1355 507 1353 485 c 0,41,42
 1336 276 1336 276 1160 139 c 0,43,44
 981 0 981 0 715 0 c 2,45,-1
 160 0 l 1,26,-1
1066 1954 m 0,46,47
 1142 1954 1142 1954 1183 1901 c 0,48,49
 1212 1863 1212 1863 1212 1812 c 0,50,51
 1212 1793 1212 1793 1208 1772 c 0,52,53
 1192 1697 1192 1697 1127.5 1643 c 128,-1,54
 1063 1589 1063 1589 989 1589 c 0,55,56
 913 1589 913 1589 873 1643 c 0,57,58
 843 1682 843 1682 843 1732 c 0,59,60
 843 1751 843 1751 847 1771 c 0,61,62
 863 1847 863 1847 927 1900 c 0,63,64
 991 1954 991 1954 1066 1954 c 0,46,47
EndSplineSet
Validated: 1
EndChar

StartChar: uni1E03
Encoding: 7683 7683 173
Width: 1210
Flags: W
HStem: -20 140<523.118 771.165> 980 140<684.995 931.008> 1179 365<893.097 1069.32> 1510 20G<708.768 765>
VStem: 218 275<167.413 454.992> 956 290<646.805 933.119>
DStem2: 136.089 -20 435.634 -20 0.207912 0.978148<358.557 1048.18 1178.73 1443.5> 770.264 -20 1085.81 -20 0.207912 0.978148<264.957 872.472>
LayerCount: 2
Fore
SplineSet
496 264 m 2,0,1
 493 249 493 249 493 236 c 0,2,3
 493 192 493 192 524 161 c 0,4,5
 566 120 566 120 640.5 120 c 128,-1,6
 715 120 715 120 766.5 160.5 c 128,-1,7
 818 201 818 201 831 265 c 2,8,-1
 952 835 l 2,9,10
 956 853 956 853 956 870 c 0,11,12
 956 912 956 912 932 940 c 0,13,14
 898 980 898 980 823 980 c 128,-1,15
 748 980 748 980 689.5 939 c 128,-1,16
 631 898 631 898 618 836 c 2,17,-1
 496 264 l 2,0,1
640 -20 m 0,18,19
 424 -20 424 -20 312 102 c 0,20,21
 218 204 218 204 218 328 c 0,22,23
 218 365 218 365 226 403 c 2,24,-1
 436 1392 l 1,25,-1
 755 1530 l 1,26,-1
 765 1530 l 1,27,-1
 668 1072 l 1,28,29
 749 1120 749 1120 843 1120 c 0,30,31
 1041 1120 1041 1120 1153 998 c 0,32,33
 1246 897 1246 897 1246 772 c 0,34,35
 1246 735 1246 735 1238 696 c 2,36,-1
 1176 403 l 2,37,38
 1132 197 1132 197 1001 101 c 0,39,40
 836 -20 836 -20 640 -20 c 0,18,19
1020 1544 m 0,41,42
 1096 1544 1096 1544 1137 1491 c 0,43,44
 1166 1453 1166 1453 1166 1402 c 0,45,46
 1166 1383 1166 1383 1162 1362 c 0,47,48
 1146 1287 1146 1287 1081.5 1233 c 128,-1,49
 1017 1179 1017 1179 943 1179 c 0,50,51
 867 1179 867 1179 827 1233 c 0,52,53
 797 1272 797 1272 797 1322 c 0,54,55
 797 1341 797 1341 801 1361 c 0,56,57
 817 1437 817 1437 881 1490 c 0,58,59
 945 1544 945 1544 1020 1544 c 0,41,42
EndSplineSet
Validated: 1
EndChar

StartChar: uni1E0A
Encoding: 7690 7690 174
Width: 1390
Flags: W
HStem: 0 150<512 891.954> 1360 150<769 1128.33> 1589 365<974.097 1150.32>
VStem: 1191 301<978.281 1267.39>
DStem2: 160 0 480.117 0 0.207912 0.978148<219.907 1413.9> 939.647 0 1270.08 0 0.207912 0.978148<339.521 1179.64>
LayerCount: 2
Fore
SplineSet
512 150 m 1,0,-1
 727 150 l 2,1,2
 830 150 830 150 914 207 c 0,3,4
 996 263 996 263 1015 351 c 2,5,-1
 1186 1159 l 2,6,7
 1191 1180 1191 1180 1191 1199 c 0,8,9
 1191 1260 1191 1260 1145 1303 c 0,10,11
 1085 1360 1085 1360 984 1360 c 2,12,-1
 769 1360 l 1,13,-1
 512 150 l 1,0,-1
160 0 m 1,14,-1
 454 1383 l 1,15,-1
 749 1510 l 1,16,-1
 1011 1510 l 2,17,18
 1245 1510 1245 1510 1380 1362 c 0,19,20
 1492 1240 1492 1240 1492 1090 c 0,21,22
 1492 1045 1492 1045 1482 997 c 2,23,-1
 1379 513 l 2,24,25
 1326 269 1326 269 1166 148 c 0,26,27
 970 0 970 0 735 0 c 2,28,-1
 160 0 l 1,14,-1
1101 1954 m 0,29,30
 1177 1954 1177 1954 1218 1901 c 0,31,32
 1247 1863 1247 1863 1247 1812 c 0,33,34
 1247 1793 1247 1793 1243 1772 c 0,35,36
 1227 1697 1227 1697 1162.5 1643 c 128,-1,37
 1098 1589 1098 1589 1024 1589 c 0,38,39
 948 1589 948 1589 908 1643 c 0,40,41
 878 1682 878 1682 878 1732 c 0,42,43
 878 1751 878 1751 882 1771 c 0,44,45
 898 1847 898 1847 962 1900 c 0,46,47
 1026 1954 1026 1954 1101 1954 c 0,29,30
EndSplineSet
Validated: 1
EndChar

StartChar: uni1E0B
Encoding: 7691 7691 175
Width: 1210
Flags: W
HStem: -20 140<513.35 759.313> 980 140<674.739 920.232> 1179 365<709.097 885.323>
VStem: 198 289<165.201 454.984>
DStem2: 115.81 -20 430.421 -20 0.207912 0.978148<356.66 964.982> 766.052 -20 1066.09 -20 0.207912 0.978148<263.158 902.737 1116.36 1443.51>
LayerCount: 2
Fore
SplineSet
948 836 m 2,0,1
 951 851 951 851 951 864 c 0,2,3
 951 908 951 908 920 939 c 0,4,5
 878 980 878 980 803.5 980 c 128,-1,6
 729 980 729 980 677.5 939.5 c 128,-1,7
 626 899 626 899 612 835 c 2,8,-1
 491 265 l 2,9,10
 487 247 487 247 487 230 c 0,11,12
 487 188 487 188 512 160 c 0,13,14
 547 120 547 120 621.5 120 c 128,-1,15
 696 120 696 120 754.5 161 c 128,-1,16
 813 202 813 202 826 264 c 2,17,-1
 948 836 l 2,0,1
622 -20 m 0,18,19
 404 -20 404 -20 291 101 c 0,20,21
 198 201 198 201 198 326 c 0,22,23
 198 363 198 363 206 403 c 2,24,-1
 268 696 l 2,25,26
 312 902 312 902 441 998 c 0,27,28
 605 1120 605 1120 803 1120 c 0,29,30
 931 1120 931 1120 998 1072 c 1,31,-1
 1066 1392 l 1,32,-1
 1385 1530 l 1,33,-1
 1395 1530 l 1,34,-1
 1156 403 l 2,35,36
 1113 199 1113 199 982 102 c 0,37,38
 818 -20 818 -20 622 -20 c 0,18,19
836 1544 m 0,39,40
 912 1544 912 1544 953 1491 c 0,41,42
 982 1453 982 1453 982 1402 c 0,43,44
 982 1383 982 1383 978 1362 c 0,45,46
 962 1287 962 1287 897.5 1233 c 128,-1,47
 833 1179 833 1179 759 1179 c 0,48,49
 683 1179 683 1179 643 1233 c 0,50,51
 613 1272 613 1272 613 1322 c 0,52,53
 613 1341 613 1341 617 1361 c 0,54,55
 633 1437 633 1437 697 1490 c 0,56,57
 761 1544 761 1544 836 1544 c 0,39,40
EndSplineSet
Validated: 1
EndChar

StartChar: uni1E1E
Encoding: 7710 7710 176
Width: 1050
Flags: W
HStem: -20 21G<156 212.395> 680 150<656 1118> 1360 150<769 1262> 1589 365<897.097 1073.32>
DStem2: 156 -20 475.754 -20 0.207912 0.978148<216.765 782.214 935.381 1435.28>
LayerCount: 2
Fore
SplineSet
166 -20 m 1,0,-1
 156 -20 l 1,1,-1
 454 1384 l 1,2,-1
 749 1510 l 1,3,-1
 1361 1510 l 1,4,-1
 1359 1500 l 1,5,-1
 1262 1360 l 1,6,-1
 769 1360 l 1,7,-1
 656 830 l 1,8,-1
 1216 830 l 1,9,-1
 1214 820 l 1,10,-1
 1118 680 l 1,11,-1
 625 680 l 1,12,-1
 507 127 l 1,13,-1
 166 -20 l 1,0,-1
1024 1954 m 0,14,15
 1100 1954 1100 1954 1141 1901 c 0,16,17
 1170 1863 1170 1863 1170 1812 c 0,18,19
 1170 1793 1170 1793 1166 1772 c 0,20,21
 1150 1697 1150 1697 1085.5 1643 c 128,-1,22
 1021 1589 1021 1589 947 1589 c 0,23,24
 871 1589 871 1589 831 1643 c 0,25,26
 801 1682 801 1682 801 1732 c 0,27,28
 801 1751 801 1751 805 1771 c 0,29,30
 821 1847 821 1847 885 1900 c 0,31,32
 949 1954 949 1954 1024 1954 c 0,14,15
EndSplineSet
Validated: 1
EndChar

StartChar: uni1E1F
Encoding: 7711 7711 177
Width: 860
Flags: W
HStem: -20 21G<136 192.232> 732 140<625 905> 1370 140<769.589 1079> 1589 365<754.097 930.323>
DStem2: 136 -20 435.667 -20 0.207912 0.978148<203.387 831.206 974.176 1359.74>
LayerCount: 2
Fore
SplineSet
146 -20 m 1,0,-1
 136 -20 l 1,1,-1
 369 1076 l 2,2,3
 414 1288 414 1288 545 1386 c 0,4,5
 711 1510 711 1510 906 1510 c 2,6,-1
 1171 1510 l 1,7,-1
 1169 1500 l 1,8,-1
 1079 1370 l 1,9,-1
 906 1370 l 2,10,11
 830 1370 830 1370 771 1329 c 0,12,13
 713 1288 713 1288 700 1225 c 2,14,-1
 625 872 l 1,15,-1
 996 872 l 1,16,-1
 994 862 l 1,17,-1
 905 732 l 1,18,-1
 596 732 l 1,19,-1
 465 118 l 1,20,-1
 146 -20 l 1,0,-1
881 1954 m 0,21,22
 957 1954 957 1954 998 1901 c 0,23,24
 1027 1863 1027 1863 1027 1812 c 0,25,26
 1027 1793 1027 1793 1023 1772 c 0,27,28
 1007 1697 1007 1697 942.5 1643 c 128,-1,29
 878 1589 878 1589 804 1589 c 0,30,31
 728 1589 728 1589 688 1643 c 0,32,33
 658 1682 658 1682 658 1732 c 0,34,35
 658 1751 658 1751 662 1771 c 0,36,37
 678 1847 678 1847 742 1900 c 0,38,39
 806 1954 806 1954 881 1954 c 0,21,22
EndSplineSet
Validated: 1
EndChar

StartChar: uni1E40
Encoding: 7744 7744 178
Width: 2220
Flags: W
HStem: -20 21G<136 192.395 946 1002.39 1756 1812.39> 1380 150<836.791 1141.27 1646.52 1953.86> 1589 365<1392.1 1568.32>
VStem: 2014 293<1105.77 1299.51>
DStem2: 136 -20 455.754 -20 0.207912 0.978148<216.765 1318.46> 946 -20 1265.75 -20 0.207912 0.978148<216.765 1260.12> 1756 -20 2075.75 -20 0.207912 0.978148<216.765 1226.16>
LayerCount: 2
Fore
SplineSet
146 -20 m 1,0,-1
 136 -20 l 1,1,-1
 356 1016 l 2,2,3
 409 1265 409 1265 570 1384 c 0,4,5
 767 1530 767 1530 1001 1530 c 0,6,7
 1237 1530 1237 1530 1373 1379 c 1,8,9
 1576 1530 1576 1530 1813 1530 c 0,10,11
 2053 1530 2053 1530 2200 1383 c 0,12,13
 2307 1276 2307 1276 2307 1118 c 0,14,15
 2307 1068 2307 1068 2296 1016 c 2,16,-1
 2107 127 l 1,17,-1
 1766 -20 l 1,18,-1
 1756 -20 l 1,19,-1
 2009 1172 l 2,20,21
 2014 1196 2014 1196 2014 1214 c 0,22,23
 2014 1277 2014 1277 1969 1322 c 0,24,25
 1911 1380 1911 1380 1808.5 1380 c 128,-1,26
 1706 1380 1706 1380 1622 1321 c 128,-1,27
 1538 1262 1538 1262 1519 1172 c 2,28,-1
 1297 127 l 1,29,-1
 956 -20 l 1,30,-1
 946 -20 l 1,31,-1
 1199 1172 l 2,32,33
 1204 1196 1204 1196 1204 1214 c 0,34,35
 1204 1277 1204 1277 1159 1322 c 0,36,37
 1101 1380 1101 1380 998.5 1380 c 128,-1,38
 896 1380 896 1380 812 1321 c 128,-1,39
 728 1262 728 1262 709 1172 c 2,40,-1
 487 127 l 1,41,-1
 146 -20 l 1,0,-1
1519 1954 m 0,42,43
 1595 1954 1595 1954 1636 1901 c 0,44,45
 1665 1863 1665 1863 1665 1812 c 0,46,47
 1665 1793 1665 1793 1661 1772 c 0,48,49
 1645 1697 1645 1697 1580.5 1643 c 128,-1,50
 1516 1589 1516 1589 1442 1589 c 0,51,52
 1366 1589 1366 1589 1326 1643 c 0,53,54
 1296 1682 1296 1682 1296 1732 c 0,55,56
 1296 1751 1296 1751 1300 1771 c 0,57,58
 1316 1847 1316 1847 1380 1900 c 0,59,60
 1444 1954 1444 1954 1519 1954 c 0,42,43
EndSplineSet
Validated: 1
EndChar

StartChar: uni1E41
Encoding: 7745 7745 179
Width: 1880
Flags: W
HStem: -20 21G<136 192.232 786 842.232 1436 1492.23> 979 141<685.534 938.361 1334.83 1590.37> 1179 365<1133.1 1309.32>
VStem: 1620 276<696 932.141>
DStem2: 136 -20 435.667 -20 0.207912 0.978148<203.387 966.456> 786 -20 1085.67 -20 0.207912 0.978148<203.387 903.397> 1436 -20 1735.67 -20 0.207912 0.978148<203.387 865.379>
LayerCount: 2
Fore
SplineSet
146 -20 m 1,0,-1
 136 -20 l 1,1,-1
 288 697 l 2,2,3
 332 904 332 904 462 999 c 0,4,5
 628 1120 628 1120 823 1120 c 0,6,7
 1013 1120 1013 1120 1123 1007 c 1,8,9
 1284 1120 1284 1120 1473 1120 c 0,10,11
 1691 1120 1691 1120 1803 998 c 0,12,13
 1896 897 1896 897 1896 768 c 0,14,15
 1896 734 1896 734 1888 696 c 2,16,-1
 1765 118 l 1,17,-1
 1446 -20 l 1,18,-1
 1436 -20 l 1,19,-1
 1617 834 l 2,20,21
 1620 848 1620 848 1620 865 c 0,22,23
 1620 909 1620 909 1589 938 c 0,24,25
 1546 979 1546 979 1472 979 c 128,-1,26
 1398 979 1398 979 1340 938 c 0,27,28
 1280 896 1280 896 1267 835 c 2,29,-1
 1115 118 l 1,30,-1
 796 -20 l 1,31,-1
 786 -20 l 1,32,-1
 967 834 l 2,33,34
 970 848 970 848 970 865 c 0,35,36
 970 909 970 909 939 938 c 0,37,38
 896 979 896 979 822 979 c 128,-1,39
 748 979 748 979 690 938 c 0,40,41
 630 896 630 896 617 835 c 2,42,-1
 465 118 l 1,43,-1
 146 -20 l 1,0,-1
1260 1544 m 0,44,45
 1336 1544 1336 1544 1377 1491 c 0,46,47
 1406 1453 1406 1453 1406 1402 c 0,48,49
 1406 1383 1406 1383 1402 1362 c 0,50,51
 1386 1287 1386 1287 1321.5 1233 c 128,-1,52
 1257 1179 1257 1179 1183 1179 c 0,53,54
 1107 1179 1107 1179 1067 1233 c 0,55,56
 1037 1272 1037 1272 1037 1322 c 0,57,58
 1037 1341 1037 1341 1041 1361 c 0,59,60
 1057 1437 1057 1437 1121 1490 c 0,61,62
 1185 1544 1185 1544 1260 1544 c 0,44,45
EndSplineSet
Validated: 1
EndChar

StartChar: uni1E56
Encoding: 7766 7766 180
Width: 1270
Flags: W
HStem: -20 21G<156 212.395> 440 151<606 942.741> 1360 150<769 1088.4> 1589 365<930.097 1106.32>
VStem: 1139 313<904.59 1261.17>
DStem2: 156 -20 475.754 -20 0.207912 0.978148<216.765 536.855 691.208 1434.3>
LayerCount: 2
Fore
SplineSet
606 591 m 1,0,-1
 803 591 l 2,1,2
 901 591 901 591 981 662 c 0,3,4
 1060 733 1060 733 1112 975 c 0,5,6
 1138 1098 1138 1098 1139 1177 c 0,7,8
 1139 1254 1139 1254 1114 1288 c 0,9,10
 1064 1360 1064 1360 966 1360 c 2,11,-1
 769 1360 l 1,12,-1
 606 591 l 1,0,-1
166 -20 m 1,13,-1
 156 -20 l 1,14,-1
 454 1383 l 1,15,-1
 749 1510 l 1,16,-1
 977 1510 l 2,17,18
 1230 1510 1230 1510 1352 1353 c 0,19,20
 1451 1226 1451 1226 1452 1049 c 0,21,22
 1452 1013 1452 1013 1448 975 c 0,23,24
 1423 747 1423 747 1241 596 c 0,25,26
 1054 440 1054 440 810 440 c 2,27,-1
 574 440 l 1,28,-1
 507 127 l 1,29,-1
 166 -20 l 1,13,-1
1057 1954 m 0,30,31
 1133 1954 1133 1954 1174 1901 c 0,32,33
 1203 1863 1203 1863 1203 1812 c 0,34,35
 1203 1793 1203 1793 1199 1772 c 0,36,37
 1183 1697 1183 1697 1118.5 1643 c 128,-1,38
 1054 1589 1054 1589 980 1589 c 0,39,40
 904 1589 904 1589 864 1643 c 0,41,42
 834 1682 834 1682 834 1732 c 0,43,44
 834 1751 834 1751 838 1771 c 0,45,46
 854 1847 854 1847 918 1900 c 0,47,48
 982 1954 982 1954 1057 1954 c 0,30,31
EndSplineSet
Validated: 1
EndChar

StartChar: uni1E57
Encoding: 7767 7767 181
Width: 1210
Flags: W
HStem: -430 21G<49 105.232> -20 140<523.768 769.26> 980 140<684.687 933.18> 1179 365<814.097 990.323>
VStem: 956 290<645.016 933.619>
DStem2: 49 -430 348.667 -430 0.207912 0.978148<203.387 530.533 744.157 1383.74> 683.116 -430 998.449 -430 0.207912 0.978148<685.265 1292.61>
LayerCount: 2
Fore
SplineSet
496 264 m 2,0,1
 493 249 493 249 493 236 c 0,2,3
 493 192 493 192 524 161 c 0,4,5
 566 120 566 120 640.5 120 c 128,-1,6
 715 120 715 120 766.5 160.5 c 128,-1,7
 818 201 818 201 831 265 c 2,8,-1
 952 835 l 2,9,10
 956 853 956 853 956 870 c 0,11,12
 956 912 956 912 932 940 c 0,13,14
 898 980 898 980 823 980 c 128,-1,15
 748 980 748 980 689.5 939 c 128,-1,16
 631 898 631 898 618 836 c 2,17,-1
 496 264 l 2,0,1
59 -430 m 1,18,-1
 49 -430 l 1,19,-1
 288 697 l 2,20,21
 331 901 331 901 462 998 c 0,22,23
 626 1120 626 1120 822 1120 c 0,24,25
 1038 1120 1038 1120 1152 999 c 0,26,27
 1246 898 1246 898 1246 773 c 0,28,29
 1246 736 1246 736 1238 697 c 2,30,-1
 1176 404 l 2,31,32
 1132 198 1132 198 1003 102 c 0,33,34
 839 -20 839 -20 641 -20 c 0,35,36
 513 -20 513 -20 446 28 c 1,37,-1
 378 -292 l 1,38,-1
 59 -430 l 1,18,-1
941 1544 m 0,39,40
 1017 1544 1017 1544 1058 1491 c 0,41,42
 1087 1453 1087 1453 1087 1402 c 0,43,44
 1087 1383 1087 1383 1083 1362 c 0,45,46
 1067 1287 1067 1287 1002.5 1233 c 128,-1,47
 938 1179 938 1179 864 1179 c 0,48,49
 788 1179 788 1179 748 1233 c 0,50,51
 718 1272 718 1272 718 1322 c 0,52,53
 718 1341 718 1341 722 1361 c 0,54,55
 738 1437 738 1437 802 1490 c 0,56,57
 866 1544 866 1544 941 1544 c 0,39,40
EndSplineSet
Validated: 1
EndChar

StartChar: uni1E6A
Encoding: 7786 7786 182
Width: 1190
Flags: W
HStem: -20 21G<431 487.712> 1360 150<398 724 1044 1402> 1589 365<877.097 1053.32>
DStem2: 431 -20 750.967 -20 0.207912 0.978148<215.787 1410.76>
LayerCount: 2
Fore
SplineSet
441 -20 m 1,0,-1
 431 -20 l 1,1,-1
 724 1360 l 1,2,-1
 299 1360 l 1,3,-1
 301 1370 l 1,4,-1
 398 1510 l 1,5,-1
 1501 1510 l 1,6,-1
 1499 1500 l 1,7,-1
 1402 1360 l 1,8,-1
 1044 1360 l 1,9,-1
 782 126 l 1,10,-1
 441 -20 l 1,0,-1
1004 1954 m 0,11,12
 1080 1954 1080 1954 1121 1901 c 0,13,14
 1150 1863 1150 1863 1150 1812 c 0,15,16
 1150 1793 1150 1793 1146 1772 c 0,17,18
 1130 1697 1130 1697 1065.5 1643 c 128,-1,19
 1001 1589 1001 1589 927 1589 c 0,20,21
 851 1589 851 1589 811 1643 c 0,22,23
 781 1682 781 1682 781 1732 c 0,24,25
 781 1751 781 1751 785 1771 c 0,26,27
 801 1847 801 1847 865 1900 c 0,28,29
 929 1954 929 1954 1004 1954 c 0,11,12
EndSplineSet
Validated: 1
EndChar

StartChar: uni1E6B
Encoding: 7787 7787 183
Width: 890
Flags: W
HStem: -20 21G<296 352.26> 960 140<306 504 819 1022> 1510 20G<853.74 910> 1589 365<733.097 909.323>
DStem2: 296 -20 581.155 -20 0.207912 0.978148<193.214 1001.83 1204.26 1450.57>
LayerCount: 2
Fore
SplineSet
306 -20 m 1,0,-1
 296 -20 l 1,1,-1
 504 960 l 1,2,-1
 214 960 l 1,3,-1
 216 970 l 1,4,-1
 306 1100 l 1,5,-1
 534 1100 l 1,6,-1
 597 1399 l 1,7,-1
 900 1530 l 1,8,-1
 910 1530 l 1,9,-1
 819 1100 l 1,10,-1
 1114 1100 l 1,11,-1
 1112 1090 l 1,12,-1
 1022 960 l 1,13,-1
 789 960 l 1,14,-1
 609 111 l 1,15,-1
 306 -20 l 1,0,-1
860 1954 m 0,16,17
 936 1954 936 1954 977 1901 c 0,18,19
 1006 1863 1006 1863 1006 1812 c 0,20,21
 1006 1793 1006 1793 1002 1772 c 0,22,23
 986 1697 986 1697 921.5 1643 c 128,-1,24
 857 1589 857 1589 783 1589 c 0,25,26
 707 1589 707 1589 667 1643 c 0,27,28
 637 1682 637 1682 637 1732 c 0,29,30
 637 1751 637 1751 641 1771 c 0,31,32
 657 1847 657 1847 721 1900 c 0,33,34
 785 1954 785 1954 860 1954 c 0,16,17
EndSplineSet
Validated: 1
EndChar

StartChar: uni1E60
Encoding: 7776 7776 184
Width: 1190
Flags: W
HStem: -20 150<468.394 733.343> 1380 150<761.221 962.074> 1589 365<868.097 1044.32>
VStem: 115 301<218.564 399> 346 314<933.012 1249.93> 905 343<342.619 678.302> 980 301<1190 1325.37>
LayerCount: 2
Fore
SplineSet
601 -20 m 0,0,1
 351 -20 351 -20 218 131 c 0,2,3
 118 246 118 246 115 399 c 1,4,-1
 449 543 l 1,5,-1
 459 543 l 1,6,-1
 426 384 l 2,7,8
 416 336 416 336 416 296 c 0,9,10
 416 221 416 221 454 185 c 0,11,12
 513 130 513 130 593 130 c 0,13,14
 677 130 677 130 754 187 c 0,15,16
 855 263 855 263 890 426 c 0,17,18
 905 496 905 496 905 550 c 0,19,20
 905 631 905 631 871 674 c 0,21,22
 825 734 825 734 733 743 c 0,23,24
 513 765 513 765 420 857 c 0,25,26
 346 930 346 930 346 1051 c 0,27,28
 346 1085 346 1085 352 1123 c 0,29,30
 379 1297 379 1297 520 1412 c 0,31,32
 664 1530 664 1530 879 1530 c 0,33,34
 1088 1530 1088 1530 1193 1404 c 0,35,36
 1278 1302 1278 1302 1281 1190 c 1,37,-1
 952 1048 l 1,38,-1
 942 1048 l 1,39,-1
 965 1155 l 2,40,41
 980 1225 980 1225 980 1269 c 0,42,43
 980 1306 980 1306 970 1326 c 0,44,45
 943 1380 943 1380 870 1380 c 0,46,47
 819 1380 819 1380 771 1345 c 0,48,49
 704 1296 704 1296 674 1155 c 0,50,51
 660 1090 660 1090 660 1043 c 0,52,53
 660 950 660 950 714 927 c 0,54,55
 758 908 758 908 817 902 c 0,56,57
 1069 876 1069 876 1170 759 c 0,58,59
 1248 669 1248 669 1248 548 c 0,60,61
 1248 519 1248 519 1244 488 c 0,62,63
 1213 264 1213 264 1031 125 c 0,64,65
 841 -20 841 -20 601 -20 c 0,0,1
995 1954 m 0,66,67
 1071 1954 1071 1954 1112 1901 c 0,68,69
 1141 1863 1141 1863 1141 1812 c 0,70,71
 1141 1793 1141 1793 1137 1772 c 0,72,73
 1121 1697 1121 1697 1056.5 1643 c 128,-1,74
 992 1589 992 1589 918 1589 c 0,75,76
 842 1589 842 1589 802 1643 c 0,77,78
 772 1682 772 1682 772 1732 c 0,79,80
 772 1751 772 1751 776 1771 c 0,81,82
 792 1847 792 1847 856 1900 c 0,83,84
 920 1954 920 1954 995 1954 c 0,66,67
EndSplineSet
Validated: 1
EndChar

StartChar: uni1E61
Encoding: 7777 7777 185
Width: 967
Flags: W
HStem: -20 140<396.813 614.594> 980 140<594.104 749.369> 1179 365<661.097 837.323>
VStem: 94 272<173.004 304> 249 282<675.79 917.566> 698 307<218.052 475.542>
LayerCount: 2
Fore
SplineSet
493 -20 m 0,0,1
 278 -20 278 -20 177 92 c 0,2,3
 95 184 95 184 94 304 c 1,4,-1
 387 430 l 1,5,-1
 397 430 l 1,6,-1
 373 314 l 2,7,8
 366 280 366 280 366 254 c 0,9,10
 366 204 366 204 389 172 c 0,11,12
 427 120 427 120 499 120 c 0,13,14
 563 120 563 120 617 164 c 0,15,16
 666 203 666 203 690 312 c 0,17,18
 698 348 698 348 698 377 c 0,19,20
 698 439 698 439 663 472 c 0,21,22
 628 506 628 506 561 511 c 0,23,24
 402 525 402 525 324 585 c 0,25,26
 249 643 249 643 249 760 c 0,27,28
 249 780 249 780 251 802 c 0,29,30
 266 953 266 953 388 1036 c 0,31,32
 512 1120 512 1120 686 1120 c 0,33,34
 863 1120 863 1120 948 1023 c 0,35,36
 1018 943 1018 943 1024 850 c 1,37,-1
 745 729 l 1,38,-1
 735 729 l 1,39,-1
 756 826 l 2,40,41
 762 854 762 854 762 878 c 0,42,43
 762 910 762 910 751 933 c 0,44,45
 729 980 729 980 679 980 c 0,46,47
 631 980 631 980 595 943 c 0,48,49
 557 905 557 905 539 819 c 0,50,51
 531 781 531 781 531 750 c 0,52,53
 531 703 531 703 552 682 c 0,54,55
 576 657 576 657 656 651 c 0,56,57
 851 636 851 636 936 558 c 0,58,59
 1005 494 1005 494 1005 395 c 0,60,61
 1005 377 1005 377 1003 358 c 0,62,63
 983 188 983 188 842 86 c 0,64,65
 695 -20 695 -20 493 -20 c 0,0,1
788 1544 m 0,66,67
 864 1544 864 1544 905 1491 c 0,68,69
 934 1453 934 1453 934 1402 c 0,70,71
 934 1383 934 1383 930 1362 c 0,72,73
 914 1287 914 1287 849.5 1233 c 128,-1,74
 785 1179 785 1179 711 1179 c 0,75,76
 635 1179 635 1179 595 1233 c 0,77,78
 565 1272 565 1272 565 1322 c 0,79,80
 565 1341 565 1341 569 1361 c 0,81,82
 585 1437 585 1437 649 1490 c 0,83,84
 713 1544 713 1544 788 1544 c 0,66,67
EndSplineSet
Validated: 1
EndChar

StartChar: Wgrave
Encoding: 7808 7808 186
Width: 2220
Flags: W
HStem: -20 150<587.139 894.481 1399.73 1704.21> 1510 20G<728.605 785 1538.61 1595 2348.61 2405>
VStem: 234 293<210.493 404.235>
DStem2: 135.746 -20 455.905 -20 0.207912 0.978148<424.954 1434.35> 945.905 -20 1265.9 -20 0.207912 0.978148<390.96 1434.32> 1511 1980 1303 1895 0.255077 -0.966921<29.1322 337.153> 1755.9 -20 2075.75 -20 0.207912 0.978148<332.621 1434.32>
LayerCount: 2
Fore
SplineSet
728 -20 m 0,0,1
 488 -20 488 -20 341 127 c 0,2,3
 234 234 234 234 234 392 c 0,4,5
 234 442 234 442 245 494 c 2,6,-1
 434 1383 l 1,7,-1
 775 1530 l 1,8,-1
 785 1530 l 1,9,-1
 532 338 l 2,10,11
 527 314 527 314 527 296 c 0,12,13
 527 233 527 233 572 188 c 0,14,15
 630 130 630 130 732.5 130 c 128,-1,16
 835 130 835 130 919 189 c 128,-1,17
 1003 248 1003 248 1022 338 c 2,18,-1
 1244 1383 l 1,19,-1
 1585 1530 l 1,20,-1
 1595 1530 l 1,21,-1
 1342 338 l 2,22,23
 1337 314 1337 314 1337 296 c 0,24,25
 1337 233 1337 233 1382 188 c 0,26,27
 1440 130 1440 130 1542.5 130 c 128,-1,28
 1645 130 1645 130 1729 189 c 128,-1,29
 1813 248 1813 248 1832 338 c 2,30,-1
 2054 1383 l 1,31,-1
 2395 1530 l 1,32,-1
 2405 1530 l 1,33,-1
 2185 494 l 2,34,35
 2132 245 2132 245 1971 126 c 0,36,37
 1774 -20 1774 -20 1540 -20 c 0,38,39
 1304 -20 1304 -20 1168 131 c 1,40,41
 965 -20 965 -20 728 -20 c 0,0,1
1501 1980 m 1,42,-1
 1511 1980 l 1,43,-1
 1597 1654 l 1,44,-1
 1401 1570 l 1,45,-1
 1391 1570 l 1,46,-1
 1303 1895 l 1,47,-1
 1501 1980 l 1,42,-1
EndSplineSet
Validated: 1
EndChar

StartChar: wgrave
Encoding: 7809 7809 187
Width: 1880
Flags: W
HStem: -20 142<524.877 779.304 1175.62 1428.6> 1100 20G<621.768 678 1271.77 1328 1921.77 1978>
VStem: 218 276<173.5 404>
DStem2: 135.876 -20 436.209 -20 0.207912 0.978148<362.453 1024.41> 785.421 -20 1086.21 -20 0.207912 0.978148<324.439 1024.51> 1243 1570 1035 1485 0.252301 -0.967649<29.7715 336.899> 1436.02 -20 1735.69 -20 0.207912 0.978148<261.316 1024.39>
LayerCount: 2
Fore
SplineSet
641 -20 m 0,0,1
 428 -20 428 -20 316 102 c 0,2,3
 218 208 218 208 218 332 c 0,4,5
 218 367 218 367 226 404 c 2,6,-1
 349 982 l 1,7,-1
 668 1120 l 1,8,-1
 678 1120 l 1,9,-1
 497 266 l 2,10,11
 494 250 494 250 494 235 c 0,12,13
 494 192 494 192 525 162 c 0,14,15
 567 122 567 122 642 122 c 128,-1,16
 717 122 717 122 774.5 162.5 c 128,-1,17
 832 203 832 203 846 265 c 2,18,-1
 999 982 l 1,19,-1
 1318 1120 l 1,20,-1
 1328 1120 l 1,21,-1
 1147 266 l 2,22,23
 1144 250 1144 250 1144 235 c 0,24,25
 1144 192 1144 192 1175 162 c 0,26,27
 1217 122 1217 122 1292 122 c 128,-1,28
 1367 122 1367 122 1424.5 162.5 c 128,-1,29
 1482 203 1482 203 1496 265 c 2,30,-1
 1649 982 l 1,31,-1
 1968 1120 l 1,32,-1
 1978 1120 l 1,33,-1
 1826 403 l 2,34,35
 1782 196 1782 196 1652 101 c 0,36,37
 1486 -20 1486 -20 1291 -20 c 0,38,39
 1101 -20 1101 -20 991 93 c 1,40,41
 830 -20 830 -20 641 -20 c 0,0,1
1233 1570 m 1,42,-1
 1243 1570 l 1,43,-1
 1328 1244 l 1,44,-1
 1133 1160 l 1,45,-1
 1123 1160 l 1,46,-1
 1035 1485 l 1,47,-1
 1233 1570 l 1,42,-1
EndSplineSet
Validated: 1
EndChar

StartChar: Wacute
Encoding: 7810 7810 188
Width: 2220
Flags: W
HStem: -20 150<587.139 894.481 1399.73 1704.21> 1510 20G<728.605 785 1538.61 1595 2348.61 2405>
VStem: 234 293<210.493 404.235>
DStem2: 135.746 -20 455.905 -20 0.207912 0.978148<424.954 1434.35> 945.905 -20 1265.9 -20 0.207912 0.978148<390.96 1434.32> 1286 1660 1468 1570 0.541289 0.840837<22.8392 380.573> 1755.9 -20 2075.75 -20 0.207912 0.978148<332.621 1434.32>
LayerCount: 2
Fore
SplineSet
728 -20 m 0,0,1
 488 -20 488 -20 341 127 c 0,2,3
 234 234 234 234 234 392 c 0,4,5
 234 442 234 442 245 494 c 2,6,-1
 434 1383 l 1,7,-1
 775 1530 l 1,8,-1
 785 1530 l 1,9,-1
 532 338 l 2,10,11
 527 314 527 314 527 296 c 0,12,13
 527 233 527 233 572 188 c 0,14,15
 630 130 630 130 732.5 130 c 128,-1,16
 835 130 835 130 919 189 c 128,-1,17
 1003 248 1003 248 1022 338 c 2,18,-1
 1244 1383 l 1,19,-1
 1585 1530 l 1,20,-1
 1595 1530 l 1,21,-1
 1342 338 l 2,22,23
 1337 314 1337 314 1337 296 c 0,24,25
 1337 233 1337 233 1382 188 c 0,26,27
 1440 130 1440 130 1542.5 130 c 128,-1,28
 1645 130 1645 130 1729 189 c 128,-1,29
 1813 248 1813 248 1832 338 c 2,30,-1
 2054 1383 l 1,31,-1
 2395 1530 l 1,32,-1
 2405 1530 l 1,33,-1
 2185 494 l 2,34,35
 2132 245 2132 245 1971 126 c 0,36,37
 1774 -20 1774 -20 1540 -20 c 0,38,39
 1304 -20 1304 -20 1168 131 c 1,40,41
 965 -20 965 -20 728 -20 c 0,0,1
1502 1980 m 1,42,-1
 1675 1888 l 1,43,-1
 1468 1570 l 1,44,-1
 1458 1570 l 1,45,-1
 1286 1660 l 1,46,-1
 1492 1980 l 1,47,-1
 1502 1980 l 1,42,-1
EndSplineSet
Validated: 1
EndChar

StartChar: wacute
Encoding: 7811 7811 189
Width: 1880
Flags: W
HStem: -20 142<524.877 779.304 1175.62 1428.6> 1100 20G<621.768 678 1271.77 1328 1921.77 1978>
VStem: 218 276<173.5 404>
DStem2: 135.876 -20 436.209 -20 0.207912 0.978148<362.453 1024.41> 785.421 -20 1086.21 -20 0.207912 0.978148<324.439 1024.51> 1019 1250 1201 1160 0.541289 0.840837<22.8392 380.573> 1436.02 -20 1735.69 -20 0.207912 0.978148<261.316 1024.39>
LayerCount: 2
Fore
SplineSet
641 -20 m 0,0,1
 428 -20 428 -20 316 102 c 0,2,3
 218 208 218 208 218 332 c 0,4,5
 218 367 218 367 226 404 c 2,6,-1
 349 982 l 1,7,-1
 668 1120 l 1,8,-1
 678 1120 l 1,9,-1
 497 266 l 2,10,11
 494 250 494 250 494 235 c 0,12,13
 494 192 494 192 525 162 c 0,14,15
 567 122 567 122 642 122 c 128,-1,16
 717 122 717 122 774.5 162.5 c 128,-1,17
 832 203 832 203 846 265 c 2,18,-1
 999 982 l 1,19,-1
 1318 1120 l 1,20,-1
 1328 1120 l 1,21,-1
 1147 266 l 2,22,23
 1144 250 1144 250 1144 235 c 0,24,25
 1144 192 1144 192 1175 162 c 0,26,27
 1217 122 1217 122 1292 122 c 128,-1,28
 1367 122 1367 122 1424.5 162.5 c 128,-1,29
 1482 203 1482 203 1496 265 c 2,30,-1
 1649 982 l 1,31,-1
 1968 1120 l 1,32,-1
 1978 1120 l 1,33,-1
 1826 403 l 2,34,35
 1782 196 1782 196 1652 101 c 0,36,37
 1486 -20 1486 -20 1291 -20 c 0,38,39
 1101 -20 1101 -20 991 93 c 1,40,41
 830 -20 830 -20 641 -20 c 0,0,1
1235 1570 m 1,42,-1
 1408 1478 l 1,43,-1
 1201 1160 l 1,44,-1
 1191 1160 l 1,45,-1
 1019 1250 l 1,46,-1
 1225 1570 l 1,47,-1
 1235 1570 l 1,42,-1
EndSplineSet
Validated: 1
EndChar

StartChar: Wdieresis
Encoding: 7812 7812 190
Width: 2220
Flags: W
HStem: -20 150<587.139 894.481 1399.73 1704.21> 1510 20G<728.605 785 1538.61 1595 2348.61 2405> 1620 297<1219.47 1381.49 1558.98 1719.99>
VStem: 234 293<210.493 404.235> 1151 300<1688.5 1848.97> 1489 300<1688.5 1847.11>
DStem2: 135.746 -20 455.905 -20 0.207912 0.978148<424.954 1434.35> 945.905 -20 1265.9 -20 0.207912 0.978148<390.96 1434.32> 1755.9 -20 2075.75 -20 0.207912 0.978148<332.621 1434.32>
LayerCount: 2
Fore
SplineSet
728 -20 m 0,0,1
 488 -20 488 -20 341 127 c 0,2,3
 234 234 234 234 234 392 c 0,4,5
 234 442 234 442 245 494 c 2,6,-1
 434 1383 l 1,7,-1
 775 1530 l 1,8,-1
 785 1530 l 1,9,-1
 532 338 l 2,10,11
 527 314 527 314 527 296 c 0,12,13
 527 233 527 233 572 188 c 0,14,15
 630 130 630 130 732.5 130 c 128,-1,16
 835 130 835 130 919 189 c 128,-1,17
 1003 248 1003 248 1022 338 c 2,18,-1
 1244 1383 l 1,19,-1
 1585 1530 l 1,20,-1
 1595 1530 l 1,21,-1
 1342 338 l 2,22,23
 1337 314 1337 314 1337 296 c 0,24,25
 1337 233 1337 233 1382 188 c 0,26,27
 1440 130 1440 130 1542.5 130 c 128,-1,28
 1645 130 1645 130 1729 189 c 128,-1,29
 1813 248 1813 248 1832 338 c 2,30,-1
 2054 1383 l 1,31,-1
 2395 1530 l 1,32,-1
 2405 1530 l 1,33,-1
 2185 494 l 2,34,35
 2132 245 2132 245 1971 126 c 0,36,37
 1774 -20 1774 -20 1540 -20 c 0,38,39
 1304 -20 1304 -20 1168 131 c 1,40,41
 965 -20 965 -20 728 -20 c 0,0,1
1670 1917 m 128,-1,43
 1730 1917 1730 1917 1764 1873 c 0,44,45
 1788 1842 1788 1842 1789 1801 c 0,46,47
 1789 1784 1789 1784 1785 1768 c 0,48,49
 1772 1708 1772 1708 1720 1664 c 128,-1,50
 1668 1620 1668 1620 1607 1620 c 128,-1,51
 1546 1620 1546 1620 1513 1664 c 0,52,53
 1489 1696 1489 1696 1489 1735 c 0,54,55
 1489 1751 1489 1751 1493 1768 c 0,56,57
 1505 1827 1505 1827 1558 1872 c 0,58,42
 1610 1917 1610 1917 1670 1917 c 128,-1,43
1331.5 1917 m 128,-1,60
 1392 1917 1392 1917 1426 1873 c 0,61,62
 1451 1841 1451 1841 1451 1801 c 0,63,64
 1451 1786 1451 1786 1447 1768 c 0,65,66
 1434 1708 1434 1708 1381.5 1664 c 128,-1,67
 1329 1620 1329 1620 1269 1620 c 0,68,69
 1208 1620 1208 1620 1175 1664 c 0,70,71
 1151 1696 1151 1696 1151 1735 c 0,72,73
 1151 1751 1151 1751 1155 1768 c 0,74,75
 1168 1829 1168 1829 1219 1872 c 0,76,59
 1271 1917 1271 1917 1331.5 1917 c 128,-1,60
EndSplineSet
Validated: 1
EndChar

StartChar: wdieresis
Encoding: 7813 7813 191
Width: 1880
Flags: W
HStem: -20 142<524.877 779.304 1175.62 1428.6> 1100 20G<621.768 678 1271.77 1328 1921.77 1978> 1210 297<967.468 1129.49 1306.98 1467.99>
VStem: 218 276<173.5 404> 899 300<1278.5 1438.97> 1237 300<1278.5 1437.11>
DStem2: 135.876 -20 436.209 -20 0.207912 0.978148<362.453 1024.41> 785.421 -20 1086.21 -20 0.207912 0.978148<324.439 1024.51> 1436.02 -20 1735.69 -20 0.207912 0.978148<261.316 1024.39>
LayerCount: 2
Fore
SplineSet
641 -20 m 0,0,1
 428 -20 428 -20 316 102 c 0,2,3
 218 208 218 208 218 332 c 0,4,5
 218 367 218 367 226 404 c 2,6,-1
 349 982 l 1,7,-1
 668 1120 l 1,8,-1
 678 1120 l 1,9,-1
 497 266 l 2,10,11
 494 250 494 250 494 235 c 0,12,13
 494 192 494 192 525 162 c 0,14,15
 567 122 567 122 642 122 c 128,-1,16
 717 122 717 122 774.5 162.5 c 128,-1,17
 832 203 832 203 846 265 c 2,18,-1
 999 982 l 1,19,-1
 1318 1120 l 1,20,-1
 1328 1120 l 1,21,-1
 1147 266 l 2,22,23
 1144 250 1144 250 1144 235 c 0,24,25
 1144 192 1144 192 1175 162 c 0,26,27
 1217 122 1217 122 1292 122 c 128,-1,28
 1367 122 1367 122 1424.5 162.5 c 128,-1,29
 1482 203 1482 203 1496 265 c 2,30,-1
 1649 982 l 1,31,-1
 1968 1120 l 1,32,-1
 1978 1120 l 1,33,-1
 1826 403 l 2,34,35
 1782 196 1782 196 1652 101 c 0,36,37
 1486 -20 1486 -20 1291 -20 c 0,38,39
 1101 -20 1101 -20 991 93 c 1,40,41
 830 -20 830 -20 641 -20 c 0,0,1
1418 1507 m 128,-1,43
 1478 1507 1478 1507 1512 1463 c 0,44,45
 1536 1432 1536 1432 1537 1391 c 0,46,47
 1537 1374 1537 1374 1533 1358 c 0,48,49
 1520 1298 1520 1298 1468 1254 c 128,-1,50
 1416 1210 1416 1210 1355 1210 c 128,-1,51
 1294 1210 1294 1210 1261 1254 c 0,52,53
 1237 1286 1237 1286 1237 1325 c 0,54,55
 1237 1341 1237 1341 1241 1358 c 0,56,57
 1253 1417 1253 1417 1306 1462 c 0,58,42
 1358 1507 1358 1507 1418 1507 c 128,-1,43
1079.5 1507 m 128,-1,60
 1140 1507 1140 1507 1174 1463 c 0,61,62
 1199 1431 1199 1431 1199 1391 c 0,63,64
 1199 1376 1199 1376 1195 1358 c 0,65,66
 1182 1298 1182 1298 1129.5 1254 c 128,-1,67
 1077 1210 1077 1210 1017 1210 c 0,68,69
 956 1210 956 1210 923 1254 c 0,70,71
 899 1286 899 1286 899 1325 c 0,72,73
 899 1341 899 1341 903 1358 c 0,74,75
 916 1419 916 1419 967 1462 c 0,76,59
 1019 1507 1019 1507 1079.5 1507 c 128,-1,60
EndSplineSet
Validated: 1
EndChar

StartChar: Ygrave
Encoding: 7922 7922 192
Width: 1270
Flags: W
HStem: -20 21G<471 527.395> 1510 20G<668.605 725 1458.61 1515>
VStem: 259 293<620.047 800.879>
DStem2: 75.361 -20 395.52 -20 0.207912 0.978148<838.764 1434.43> 865.783 -20 1185.54 -20 0.207912 0.978148<738.436 1434.34> 1109 1980 901 1895 0.255077 -0.966921<29.1322 337.153>
LayerCount: 2
Fore
SplineSet
481 -20 m 1,0,-1
 471 -20 l 1,1,-1
 559 397 l 1,2,3
 442 444 442 444 370 524 c 0,4,5
 259 647 259 647 259 797 c 0,6,7
 259 844 259 844 269 891 c 2,8,-1
 374 1383 l 1,9,-1
 715 1530 l 1,10,-1
 725 1530 l 1,11,-1
 556 735 l 2,12,13
 552 716 552 716 552 697 c 0,14,15
 552 637 552 637 596 585 c 0,16,17
 646 527 646 527 747 527 c 128,-1,18
 848 527 848 527 927 586 c 0,19,20
 1007 645 1007 645 1026 735 c 2,21,-1
 1164 1383 l 1,22,-1
 1505 1530 l 1,23,-1
 1515 1530 l 1,24,-1
 1379 891 l 2,25,26
 1326 642 1326 642 1165 523 c 0,27,28
 1058 444 1058 444 880 398 c 1,29,-1
 822 127 l 1,30,-1
 481 -20 l 1,0,-1
1099 1980 m 1,31,-1
 1109 1980 l 1,32,-1
 1195 1654 l 1,33,-1
 999 1570 l 1,34,-1
 989 1570 l 1,35,-1
 901 1895 l 1,36,-1
 1099 1980 l 1,31,-1
EndSplineSet
Validated: 1
EndChar

StartChar: ygrave
Encoding: 7923 7923 193
Width: 1250
Flags: W
HStem: -410 140<285 693.95> -20 140<523.053 782.333> 1100 20G<621.768 678 1271.77 1328>
VStem: 218 274<167.957 403>
DStem2: 53.1915 -410 353.012 -410 0.207912 0.978148<762.009 1423.08> 702.9 -410 1002.75 -410 0.207912 0.978148<262.784 447.785 574.692 1423.14> 983 1570 775 1485 0.252301 -0.967649<29.7715 336.899>
LayerCount: 2
Fore
SplineSet
625 -20 m 0,0,1
 426 -20 426 -20 312 102 c 0,2,3
 218 203 218 203 218 333 c 0,4,5
 218 365 218 365 226 403 c 2,6,-1
 349 982 l 1,7,-1
 668 1120 l 1,8,-1
 678 1120 l 1,9,-1
 495 258 l 2,10,11
 492 244 492 244 492 231 c 0,12,13
 492 188 492 188 525 158 c 0,14,15
 567 120 567 120 641.5 120 c 128,-1,16
 716 120 716 120 775 159 c 0,17,18
 832 198 832 198 845 258 c 2,19,-1
 999 982 l 1,20,-1
 1318 1120 l 1,21,-1
 1328 1120 l 1,22,-1
 1095 24 l 2,23,24
 1049 -194 1049 -194 919 -289 c 0,25,26
 752 -410 752 -410 558 -410 c 2,27,-1
 193 -410 l 1,28,-1
 195 -400 l 1,29,-1
 285 -270 l 1,30,-1
 558 -270 l 2,31,32
 634 -270 634 -270 692 -229 c 0,33,34
 749 -188 749 -188 763 -125 c 2,35,-1
 796 28 l 1,36,37
 711 -20 711 -20 625 -20 c 0,0,1
973 1570 m 1,38,-1
 983 1570 l 1,39,-1
 1068 1244 l 1,40,-1
 873 1160 l 1,41,-1
 863 1160 l 1,42,-1
 775 1485 l 1,43,-1
 973 1570 l 1,38,-1
EndSplineSet
Validated: 1
EndChar

StartChar: AE
Encoding: 198 198 194
Width: 1728
Flags: W
HStem: -20 21G<136 192.395> 0 150<1140 1651> 680 150<636 933 1284 1746> 1360 150<1397 1890> 1380 150<830.451 1077.27>
DStem2: 136 -20 455.754 -20 0.207912 0.978148<216.765 782.214 935.381 1316.6> 783.749 -20 1103.87 -20 0.207912 0.978148<240.354 715.734 935.434 1419.6>
LayerCount: 2
Fore
SplineSet
1651 0 m 1,0,-1
 788 0 l 1,1,-1
 933 680 l 1,2,-1
 605 680 l 1,3,-1
 487 127 l 1,4,-1
 146 -20 l 1,5,-1
 136 -20 l 1,6,-1
 356 1016 l 2,7,8
 408 1262 408 1262 570 1383 c 0,9,10
 768 1530 768 1530 1001 1530 c 0,11,12
 1114 1530 1114 1530 1184 1510 c 1,13,-1
 1989 1510 l 1,14,-1
 1987 1500 l 1,15,-1
 1890 1360 l 1,16,-1
 1397 1360 l 1,17,-1
 1284 830 l 1,18,-1
 1844 830 l 1,19,-1
 1842 820 l 1,20,-1
 1746 680 l 1,21,-1
 1253 680 l 1,22,-1
 1140 150 l 1,23,-1
 1750 150 l 1,24,-1
 1748 140 l 1,25,-1
 1651 0 l 1,0,-1
1079 1368 m 1,26,27
 1043 1380 1043 1380 999 1380 c 0,28,29
 897 1380 897 1380 814 1326 c 0,30,31
 730 1270 730 1270 713 1188 c 2,32,-1
 636 830 l 1,33,-1
 964 830 l 1,34,-1
 1079 1368 l 1,26,27
EndSplineSet
Validated: 1
EndChar

StartChar: Eth
Encoding: 208 208 195
Width: 1390
Flags: W
HStem: 0 150<512 891.954> 680 150<243 305 656 883> 1360 150<769 1128.33>
VStem: 1191 301<978.281 1267.39>
DStem2: 160 0 480.117 0 0.207912 0.978148<219.907 695.288 914.987 1413.9> 939.647 0 1270.08 0 0.207912 0.978148<339.521 1179.64>
CounterMasks: 1 e0
LayerCount: 2
Fore
SplineSet
512 150 m 1,0,-1
 727 150 l 2,1,2
 830 150 830 150 914 207 c 0,3,4
 996 263 996 263 1015 351 c 2,5,-1
 1186 1159 l 2,6,7
 1191 1180 1191 1180 1191 1199 c 0,8,9
 1191 1260 1191 1260 1145 1303 c 0,10,11
 1085 1360 1085 1360 984 1360 c 2,12,-1
 769 1360 l 1,13,-1
 656 830 l 1,14,-1
 981 830 l 1,15,-1
 979 820 l 1,16,-1
 883 680 l 1,17,-1
 625 680 l 1,18,-1
 512 150 l 1,0,-1
160 0 m 1,19,-1
 305 680 l 1,20,-1
 145 680 l 1,21,-1
 147 690 l 1,22,-1
 243 830 l 1,23,-1
 336 830 l 1,24,-1
 454 1383 l 1,25,-1
 749 1510 l 1,26,-1
 1011 1510 l 2,27,28
 1245 1510 1245 1510 1380 1362 c 0,29,30
 1492 1240 1492 1240 1492 1090 c 0,31,32
 1492 1045 1492 1045 1482 997 c 2,33,-1
 1379 513 l 2,34,35
 1326 269 1326 269 1166 148 c 0,36,37
 970 0 970 0 735 0 c 2,38,-1
 160 0 l 1,19,-1
EndSplineSet
Validated: 1
EndChar

StartChar: Dcroat
Encoding: 272 272 196
Width: 1390
Flags: W
HStem: 0 150<512 891.954> 680 150<243 305 656 883> 1360 150<769 1128.33>
VStem: 1191 301<978.281 1267.39>
DStem2: 160 0 480.117 0 0.207912 0.978148<219.907 695.288 914.987 1413.9> 939.647 0 1270.08 0 0.207912 0.978148<339.521 1179.64>
CounterMasks: 1 e0
LayerCount: 2
Fore
SplineSet
512 150 m 1,0,-1
 727 150 l 2,1,2
 830 150 830 150 914 207 c 0,3,4
 996 263 996 263 1015 351 c 2,5,-1
 1186 1159 l 2,6,7
 1191 1180 1191 1180 1191 1199 c 0,8,9
 1191 1260 1191 1260 1145 1303 c 0,10,11
 1085 1360 1085 1360 984 1360 c 2,12,-1
 769 1360 l 1,13,-1
 656 830 l 1,14,-1
 981 830 l 1,15,-1
 979 820 l 1,16,-1
 883 680 l 1,17,-1
 625 680 l 1,18,-1
 512 150 l 1,0,-1
160 0 m 1,19,-1
 305 680 l 1,20,-1
 145 680 l 1,21,-1
 147 690 l 1,22,-1
 243 830 l 1,23,-1
 336 830 l 1,24,-1
 454 1383 l 1,25,-1
 749 1510 l 1,26,-1
 1011 1510 l 2,27,28
 1245 1510 1245 1510 1380 1362 c 0,29,30
 1492 1240 1492 1240 1492 1090 c 0,31,32
 1492 1045 1492 1045 1482 997 c 2,33,-1
 1379 513 l 2,34,35
 1326 269 1326 269 1166 148 c 0,36,37
 970 0 970 0 735 0 c 2,38,-1
 160 0 l 1,19,-1
EndSplineSet
Validated: 1
EndChar

StartChar: Hbar
Encoding: 294 294 197
Width: 1440
Flags: W
HStem: -20 21G<156 212.395 956 1012.39> 680 150<656 1105> 1212 150<387 418 770 1218 1570 1601> 1510 20G<748.605 805 1548.61 1605>
DStem2: 156 -20 475.754 -20 0.207912 0.978148<216.765 782.214 935.381 1259.55> 956 -20 1275.75 -20 0.207912 0.978148<216.765 715.682 868.85 1259.55>
LayerCount: 2
Fore
SplineSet
166 -20 m 1,0,-1
 156 -20 l 1,1,-1
 418 1212 l 1,2,-1
 288 1212 l 1,3,-1
 290 1222 l 1,4,-1
 387 1362 l 1,5,-1
 450 1362 l 1,6,-1
 454 1383 l 1,7,-1
 795 1530 l 1,8,-1
 805 1530 l 1,9,-1
 770 1362 l 1,10,-1
 1250 1362 l 1,11,-1
 1254 1383 l 1,12,-1
 1595 1530 l 1,13,-1
 1605 1530 l 1,14,-1
 1570 1362 l 1,15,-1
 1700 1362 l 1,16,-1
 1697 1352 l 1,17,-1
 1601 1212 l 1,18,-1
 1538 1212 l 1,19,-1
 1307 127 l 1,20,-1
 966 -20 l 1,21,-1
 956 -20 l 1,22,-1
 1105 680 l 1,23,-1
 625 680 l 1,24,-1
 507 127 l 1,25,-1
 166 -20 l 1,0,-1
738 1212 m 1,26,-1
 656 830 l 1,27,-1
 1136 830 l 1,28,-1
 1218 1212 l 1,29,-1
 738 1212 l 1,26,-1
EndSplineSet
Validated: 1
EndChar

StartChar: IJ
Encoding: 306 306 198
Width: 1831
Flags: W
HStem: -20 150<1053.37 1345.27> 1360 150<1114 1680> 1510 20G<748.605 805>
VStem: 711 290<210.334 401>
DStem2: 156 -20 475.754 -20 0.207912 0.978148<216.765 1434.3> 1386.67 -20 1706.79 -20 0.207912 0.978148<329.278 1410.83>
LayerCount: 2
Fore
SplineSet
1186 -20 m 0,0,1
 938 -20 938 -20 808 131 c 0,2,3
 711 245 711 245 711 401 c 1,4,-1
 1040 542 l 1,5,-1
 1050 542 l 1,6,-1
 1006 332 l 2,7,8
 1001 308 1001 308 1001 286 c 0,9,10
 1001 226 1001 226 1039 186 c 0,11,12
 1091 130 1091 130 1188 130 c 128,-1,13
 1285 130 1285 130 1365 187 c 0,14,15
 1443 243 1443 243 1462 332 c 2,16,-1
 1680 1360 l 1,17,-1
 1015 1360 l 1,18,-1
 1017 1370 l 1,19,-1
 1114 1510 l 1,20,-1
 2032 1510 l 1,21,-1
 1816 494 l 2,22,23
 1764 247 1764 247 1607 127 c 0,24,25
 1415 -20 1415 -20 1186 -20 c 0,0,1
166 -20 m 1,26,-1
 156 -20 l 1,27,-1
 454 1383 l 1,28,-1
 795 1530 l 1,29,-1
 805 1530 l 1,30,-1
 507 127 l 1,31,-1
 166 -20 l 1,26,-1
EndSplineSet
Validated: 1
EndChar

StartChar: lslash
Encoding: 322 322 199
Width: 766
Flags: W
HStem: -20 21G<229 285.232> 1510 20G<801.768 858>
DStem2: 199 701 170 546 0.920967 0.38964<0 126.668 576.703 703.371> 229 -20 528.667 -20 0.207912 0.978148<203.387 663.51 823.94 868.853 1029.49 1443.52>
LayerCount: 2
Fore
SplineSet
239 -20 m 1,0,-1
 229 -20 l 1,1,-1
 367 629 l 1,2,-1
 170 546 l 1,3,-1
 168 555 l 1,4,-1
 199 701 l 1,5,-1
 400 786 l 1,6,-1
 529 1392 l 1,7,-1
 848 1530 l 1,8,-1
 858 1530 l 1,9,-1
 730 926 l 1,10,-1
 926 1009 l 1,11,-1
 929 1000 l 1,12,-1
 898 854 l 1,13,-1
 696 769 l 1,14,-1
 558 118 l 1,15,-1
 239 -20 l 1,0,-1
EndSplineSet
Validated: 1
EndChar

StartChar: Lslash
Encoding: 321 321 200
Width: 1100
Flags: W
HStem: 0 150<512 1023> 1510 20G<748.288 805>
DStem2: 160 0 480.117 0 0.207912 0.978148<219.907 585.844 754.515 804.565 973.444 1414.88> 669 887 633 722 0.920967 0.38964<0 220.713>
LayerCount: 2
Fore
SplineSet
160 0 m 1,0,-1
 282 573 l 1,1,-1
 198 538 l 1,2,-1
 196 547 l 1,3,-1
 229 701 l 1,4,-1
 317 738 l 1,5,-1
 454 1384 l 1,6,-1
 795 1530 l 1,7,-1
 805 1530 l 1,8,-1
 669 887 l 1,9,-1
 956 1009 l 1,10,-1
 959 1000 l 1,11,-1
 926 846 l 1,12,-1
 633 722 l 1,13,-1
 512 150 l 1,14,-1
 1122 150 l 1,15,-1
 1120 140 l 1,16,-1
 1023 0 l 1,17,-1
 160 0 l 1,0,-1
EndSplineSet
Validated: 1
EndChar

StartChar: Eng
Encoding: 330 330 201
Width: 1410
Flags: W
HStem: -410 21G<559 766> -20 21G<136 192.395> 1380 150<836.894 1141.71>
VStem: 1204 293<1105.71 1293.09>
DStem2: 53.1029 -410 372.857 -410 0.207912 0.978148<615.478 1717.17> 863.18 -410 1182.75 -410 0.207912 0.978148<332.633 1623.91>
LayerCount: 2
Fore
SplineSet
146 -20 m 1,0,-1
 136 -20 l 1,1,-1
 356 1016 l 2,2,3
 409 1265 409 1265 570 1384 c 0,4,5
 767 1530 767 1530 1001.5 1530 c 128,-1,6
 1236 1530 1236 1530 1384 1383 c 0,7,8
 1497 1271 1497 1271 1497 1117 c 0,9,10
 1497 1068 1497 1068 1486 1016 c 2,11,-1
 1292 104 l 2,12,13
 1239 -145 1239 -145 1079 -264 c 0,14,15
 883 -410 883 -410 649 -410 c 2,16,-1
 559 -410 l 1,17,-1
 561 -400 l 1,18,-1
 650 -271 l 1,19,20
 773 -247 773 -247 837 -203 c 0,21,22
 919 -146 919 -146 938 -58 c 2,23,-1
 1199 1172 l 2,24,25
 1204 1194 1204 1194 1204 1214 c 0,26,27
 1204 1277 1204 1277 1159 1322 c 0,28,29
 1101 1380 1101 1380 998.5 1380 c 128,-1,30
 896 1380 896 1380 812 1321 c 128,-1,31
 728 1262 728 1262 709 1172 c 2,32,-1
 487 127 l 1,33,-1
 146 -20 l 1,0,-1
EndSplineSet
Validated: 1
EndChar

StartChar: OE
Encoding: 338 338 202
Width: 1714
Flags: W
HStem: -20 150<572.363 807.425> 0 150<1126 1637> 680 150<1270 1732> 1360 150<1383 1876> 1380 150<818.446 1062.77>
VStem: 214 302<220.75 494>
DStem2: 115.746 -20 446.18 -20 0.207912 0.978148<429.754 1315.52> 770.141 -20 1089.87 -20 0.207912 0.978148<240.272 782.185 935.352 1418.57>
LayerCount: 2
Fore
SplineSet
1637 0 m 1,0,-1
 843 0 l 1,1,2
 764 -20 764 -20 692 -20 c 0,3,4
 459 -20 459 -20 324 127 c 0,5,6
 214 246 214 246 214 397 c 0,7,8
 214 444 214 444 225 494 c 2,9,-1
 336 1016 l 2,10,11
 388 1262 388 1262 551 1384 c 0,12,13
 748 1530 748 1530 981 1530 c 0,14,15
 1094 1530 1094 1530 1164 1510 c 1,16,-1
 1975 1510 l 1,17,-1
 1973 1500 l 1,18,-1
 1876 1360 l 1,19,-1
 1383 1360 l 1,20,-1
 1270 830 l 1,21,-1
 1830 830 l 1,22,-1
 1828 820 l 1,23,-1
 1732 680 l 1,24,-1
 1239 680 l 1,25,-1
 1126 150 l 1,26,-1
 1736 150 l 1,27,-1
 1734 140 l 1,28,-1
 1637 0 l 1,0,-1
805 144 m 1,29,-1
 1064 1366 l 1,30,31
 1026 1380 1026 1380 979 1380 c 0,32,33
 878 1380 878 1380 798.5 1323 c 128,-1,34
 719 1266 719 1266 700 1178 c 2,35,-1
 521 332 l 2,36,37
 516 309 516 309 516 288 c 0,38,39
 516 228 516 228 557 186 c 0,40,41
 612 130 612 130 714 130 c 0,42,43
 762 130 762 130 805 144 c 1,29,-1
EndSplineSet
Validated: 1
EndChar

StartChar: Thorn
Encoding: 222 222 203
Width: 1270
Flags: W
HStem: -20 21G<156 212.395> 220 151<559 895.741> 1140 150<754 1041.4> 1510 20G<748.605 805>
VStem: 1092 313<684.59 1041.17>
DStem2: 156 -20 475.754 -20 0.207912 0.978148<216.765 311.891 466.244 1252.33 1405.7 1434.3>
LayerCount: 2
Fore
SplineSet
559 371 m 1,0,-1
 756 371 l 2,1,2
 854 371 854 371 934 442 c 0,3,4
 1013 513 1013 513 1065 755 c 0,5,6
 1091 878 1091 878 1092 957 c 0,7,8
 1092 1034 1092 1034 1067 1068 c 0,9,10
 1017 1140 1017 1140 919 1140 c 2,11,-1
 722 1140 l 1,12,-1
 559 371 l 1,0,-1
166 -20 m 1,13,-1
 156 -20 l 1,14,-1
 454 1383 l 1,15,-1
 795 1530 l 1,16,-1
 805 1530 l 1,17,-1
 754 1290 l 1,18,-1
 930 1290 l 2,19,20
 1183 1290 1183 1290 1305 1133 c 0,21,22
 1404 1006 1404 1006 1405 829 c 0,23,24
 1405 793 1405 793 1401 755 c 0,25,26
 1376 527 1376 527 1194 376 c 0,27,28
 1007 220 1007 220 763 220 c 2,29,-1
 527 220 l 1,30,-1
 507 127 l 1,31,-1
 166 -20 l 1,13,-1
EndSplineSet
Validated: 1
EndChar

StartChar: Tbar
Encoding: 358 358 204
Width: 1190
Flags: W
HStem: -20 21G<431 487.712> 431 150<430 527 878 975> 1360 150<398 724 1044 1402>
DStem2: 431 -20 750.967 -20 0.207912 0.978148<215.787 461.104 680.803 1410.76>
LayerCount: 2
Fore
SplineSet
441 -20 m 1,0,-1
 431 -20 l 1,1,-1
 527 431 l 1,2,-1
 332 431 l 1,3,-1
 334 441 l 1,4,-1
 430 581 l 1,5,-1
 558 581 l 1,6,-1
 724 1360 l 1,7,-1
 299 1360 l 1,8,-1
 301 1370 l 1,9,-1
 398 1510 l 1,10,-1
 1501 1510 l 1,11,-1
 1499 1500 l 1,12,-1
 1402 1360 l 1,13,-1
 1044 1360 l 1,14,-1
 878 581 l 1,15,-1
 1073 581 l 1,16,-1
 1071 571 l 1,17,-1
 975 431 l 1,18,-1
 847 431 l 1,19,-1
 782 126 l 1,20,-1
 441 -20 l 1,0,-1
EndSplineSet
Validated: 1
EndChar

StartChar: tbar
Encoding: 359 359 205
Width: 890
Flags: W
HStem: -20 21G<296 352.26> 436 140<279 393 707 826> 960 140<306 504 819 1022> 1510 20G<853.74 910>
DStem2: 296 -20 581.155 -20 0.207912 0.978148<193.214 466.203 668.428 1001.83 1204.26 1450.57>
LayerCount: 2
Fore
SplineSet
306 -20 m 1,0,-1
 296 -20 l 1,1,-1
 393 436 l 1,2,-1
 188 436 l 1,3,-1
 190 446 l 1,4,-1
 279 576 l 1,5,-1
 422 576 l 1,6,-1
 504 960 l 1,7,-1
 214 960 l 1,8,-1
 216 970 l 1,9,-1
 306 1100 l 1,10,-1
 534 1100 l 1,11,-1
 597 1399 l 1,12,-1
 900 1530 l 1,13,-1
 910 1530 l 1,14,-1
 819 1100 l 1,15,-1
 1114 1100 l 1,16,-1
 1112 1090 l 1,17,-1
 1022 960 l 1,18,-1
 789 960 l 1,19,-1
 707 576 l 1,20,-1
 917 576 l 1,21,-1
 915 566 l 1,22,-1
 826 436 l 1,23,-1
 678 436 l 1,24,-1
 609 111 l 1,25,-1
 306 -20 l 1,0,-1
EndSplineSet
Validated: 1
EndChar

